M48
;Layer_Color=9474304
;FILE_FORMAT=2:5
INCH,LZ
;TYPE=PLATED
T02F00S00C0.02800
T03F00S00C0.03600
T04F00S00C0.03900
T05F00S00C0.04331
T06F00S00C0.04900
T07F00S00C0.06000
T08F00S00C0.10000
%
T02
X00075Y00585
X0042Y00345
X0079Y00435
X0087Y00455
X0089Y006
X009Y0074
X00855Y00815
X00795Y0094
X011Y00905
X0102Y0074
X012Y0075
Y0068
Y00615
X01315Y00565
X01425Y0054752
X0164Y0054
X0161Y0065
X0176Y00605
X0182Y00635
X0172Y00355
X01525Y00345
X0125Y00335
X01235Y0012
X0137Y00105
X01365Y00045
X0148Y00055
X0158Y00045
X01865Y0003
X01375Y0017
X01085Y00225
X00755Y0022
X0073836Y0014086
X01355Y0091
X0149Y00825
X0205Y0076
X02125Y005
X024211Y006235
Y009365
T03
X0197Y0083
Y0093
T04
X00505Y004913
Y0058973
Y0068815
Y0078658
Y00885
X02045Y0029842
Y002
T05
X0202Y00475
Y00575
Y00675
T06
X0083972Y0012
X0093815
X0103657
X01135
T07
X023Y0009496
Y0028
Y0046504
T08
X002Y0025
X0023Y00805
X02415Y0078
M30
