G04*
G04 #@! TF.GenerationSoftware,Altium Limited,Altium Designer,26.3.0 (6)*
G04*
G04 Layer_Color=8388736*
%FSLAX44Y44*%
%MOMM*%
G71*
G04*
G04 #@! TF.SameCoordinates,9F17CBEB-97C6-4A76-B5D1-3E1F46C8A7B1*
G04*
G04*
G04 #@! TF.FilePolarity,Negative*
G04*
G01*
G75*
%ADD14R,0.7016X1.3992*%
%ADD15R,1.3992X0.7016*%
%ADD17R,1.3000X1.5500*%
%ADD21R,1.2000X0.6500*%
%ADD22R,0.6500X1.2000*%
%ADD23R,0.5588X0.9779*%
%ADD24R,0.9779X0.5588*%
%ADD27R,1.2575X0.7025*%
G04:AMPARAMS|DCode=28|XSize=1.2575mm|YSize=0.7025mm|CornerRadius=0.3512mm|HoleSize=0mm|Usage=FLASHONLY|Rotation=180.000|XOffset=0mm|YOffset=0mm|HoleType=Round|Shape=RoundedRectangle|*
%AMROUNDEDRECTD28*
21,1,1.2575,0.0000,0,0,180.0*
21,1,0.5550,0.7025,0,0,180.0*
1,1,0.7025,-0.2775,0.0000*
1,1,0.7025,0.2775,0.0000*
1,1,0.7025,0.2775,0.0000*
1,1,0.7025,-0.2775,0.0000*
%
%ADD28ROUNDEDRECTD28*%
%ADD29R,0.9016X0.5016*%
%ADD30R,0.9016X0.9016*%
%ADD31R,1.3016X1.3016*%
%ADD32R,0.5016X0.9016*%
%ADD33R,0.8016X0.7016*%
%ADD34R,0.7016X0.4516*%
%ADD35C,1.7016*%
G04:AMPARAMS|DCode=36|XSize=1.7016mm|YSize=1.7016mm|CornerRadius=0.4508mm|HoleSize=0mm|Usage=FLASHONLY|Rotation=270.000|XOffset=0mm|YOffset=0mm|HoleType=Round|Shape=RoundedRectangle|*
%AMROUNDEDRECTD36*
21,1,1.7016,0.8000,0,0,270.0*
21,1,0.8000,1.7016,0,0,270.0*
1,1,0.9016,-0.4000,-0.4000*
1,1,0.9016,-0.4000,0.4000*
1,1,0.9016,0.4000,0.4000*
1,1,0.9016,0.4000,-0.4000*
%
%ADD36ROUNDEDRECTD36*%
%ADD37C,1.4986*%
%ADD38C,1.7526*%
%ADD39C,2.0320*%
%ADD40C,1.4224*%
G04:AMPARAMS|DCode=41|XSize=1mm|YSize=1.8mm|CornerRadius=0.5mm|HoleSize=0mm|Usage=FLASHONLY|Rotation=180.000|XOffset=0mm|YOffset=0mm|HoleType=Round|Shape=RoundedRectangle|*
%AMROUNDEDRECTD41*
21,1,1.0000,0.8000,0,0,180.0*
21,1,0.0000,1.8000,0,0,180.0*
1,1,1.0000,0.0000,0.4000*
1,1,1.0000,0.0000,0.4000*
1,1,1.0000,0.0000,-0.4000*
1,1,1.0000,0.0000,-0.4000*
%
%ADD41ROUNDEDRECTD41*%
G04:AMPARAMS|DCode=42|XSize=1mm|YSize=2.2mm|CornerRadius=0.5mm|HoleSize=0mm|Usage=FLASHONLY|Rotation=180.000|XOffset=0mm|YOffset=0mm|HoleType=Round|Shape=RoundedRectangle|*
%AMROUNDEDRECTD42*
21,1,1.0000,1.2000,0,0,180.0*
21,1,0.0000,2.2000,0,0,180.0*
1,1,1.0000,0.0000,0.6000*
1,1,1.0000,0.0000,0.6000*
1,1,1.0000,0.0000,-0.6000*
1,1,1.0000,0.0000,-0.6000*
%
%ADD42ROUNDEDRECTD42*%
%ADD43C,1.6256*%
%ADD44C,1.3716*%
G36*
X352450Y187300D02*
X338450D01*
Y194800D01*
X344950Y201300D01*
X352450D01*
Y187300D01*
D02*
G37*
D14*
X250954Y153670D02*
D03*
X267970D02*
D03*
X249302Y127000D02*
D03*
X266318D02*
D03*
X300102Y10160D02*
D03*
X317118D02*
D03*
X454278Y13970D02*
D03*
X437262D02*
D03*
X284862Y81280D02*
D03*
X103758Y69850D02*
D03*
X86742D02*
D03*
X101218Y30480D02*
D03*
X84202D02*
D03*
X301878Y81280D02*
D03*
D15*
X436880Y75818D02*
D03*
Y58802D02*
D03*
X461010Y127382D02*
D03*
Y144398D02*
D03*
Y99442D02*
D03*
Y116458D02*
D03*
X316230Y53722D02*
D03*
Y70738D02*
D03*
X461010Y66546D02*
D03*
Y49530D02*
D03*
D17*
X592730Y158370D02*
D03*
Y237870D02*
D03*
X547730D02*
D03*
Y158370D02*
D03*
D21*
X128270Y33660D02*
D03*
X238760Y202570D02*
D03*
X257810Y203200D02*
D03*
X172720Y109860D02*
D03*
X238760Y219070D02*
D03*
X257810Y219700D02*
D03*
X172720Y126360D02*
D03*
X128270Y50160D02*
D03*
D22*
X421000Y45720D02*
D03*
X255900Y50800D02*
D03*
X404500Y45720D02*
D03*
X239400Y50800D02*
D03*
D23*
X375920Y28258D02*
D03*
X236220Y93663D02*
D03*
X366420Y55563D02*
D03*
X375920D02*
D03*
X385420D02*
D03*
Y28258D02*
D03*
X366420D02*
D03*
X245720Y66357D02*
D03*
X236220D02*
D03*
X226720D02*
D03*
Y93663D02*
D03*
X245720D02*
D03*
D24*
X206693Y153670D02*
D03*
X179387D02*
D03*
X206693Y163170D02*
D03*
Y144170D02*
D03*
X179387D02*
D03*
Y163170D02*
D03*
D27*
X68574Y69850D02*
D03*
Y29210D02*
D03*
D28*
X35566Y69850D02*
D03*
Y29210D02*
D03*
D29*
X291950Y203300D02*
D03*
Y211800D02*
D03*
Y228800D02*
D03*
Y237300D02*
D03*
X431950Y211800D02*
D03*
Y220300D02*
D03*
Y237300D02*
D03*
X291950Y220300D02*
D03*
Y194800D02*
D03*
Y186300D02*
D03*
Y177800D02*
D03*
Y169300D02*
D03*
Y160800D02*
D03*
Y152300D02*
D03*
Y143800D02*
D03*
Y135300D02*
D03*
Y126800D02*
D03*
Y118300D02*
D03*
X431950D02*
D03*
Y126800D02*
D03*
Y135300D02*
D03*
Y143800D02*
D03*
Y152300D02*
D03*
Y160800D02*
D03*
Y169300D02*
D03*
Y177800D02*
D03*
Y186300D02*
D03*
Y194800D02*
D03*
Y203300D02*
D03*
Y228800D02*
D03*
D30*
X291950Y107800D02*
D03*
Y247800D02*
D03*
X431950Y107800D02*
D03*
Y247800D02*
D03*
D31*
X345450Y177800D02*
D03*
Y161300D02*
D03*
X361950D02*
D03*
X378450D02*
D03*
X361950Y194300D02*
D03*
Y177800D02*
D03*
X378450D02*
D03*
Y194300D02*
D03*
D32*
X302450Y247800D02*
D03*
X319450D02*
D03*
X310950D02*
D03*
X336450D02*
D03*
X327950D02*
D03*
X353450D02*
D03*
X344950D02*
D03*
X370450D02*
D03*
X361950D02*
D03*
X387450D02*
D03*
X378950D02*
D03*
X404450D02*
D03*
X395950D02*
D03*
X412950D02*
D03*
X421450D02*
D03*
X302450Y107800D02*
D03*
X310950D02*
D03*
X319450D02*
D03*
X327950D02*
D03*
X336450D02*
D03*
X344950D02*
D03*
X353450D02*
D03*
X361950D02*
D03*
X370450D02*
D03*
X378950D02*
D03*
X387450D02*
D03*
X395950D02*
D03*
X404450D02*
D03*
X412950D02*
D03*
X421450D02*
D03*
D33*
X297180Y54000D02*
D03*
Y63500D02*
D03*
D34*
X486410Y184300D02*
D03*
Y156210D02*
D03*
X487680Y136450D02*
D03*
X488950Y123900D02*
D03*
X494030Y22150D02*
D03*
X182880Y185420D02*
D03*
X486410Y177800D02*
D03*
Y162710D02*
D03*
X487680Y142950D02*
D03*
X488950Y117400D02*
D03*
X494030Y28650D02*
D03*
X182880Y191920D02*
D03*
D35*
X521970Y119380D02*
D03*
Y144780D02*
D03*
D36*
Y170180D02*
D03*
D37*
X128270Y224790D02*
D03*
Y124790D02*
D03*
X519430Y75800D02*
D03*
X128270Y149790D02*
D03*
Y174790D02*
D03*
Y199790D02*
D03*
X519430Y50800D02*
D03*
D38*
X288290Y30480D02*
D03*
X213290D02*
D03*
X238290D02*
D03*
X263290D02*
D03*
D39*
X584200Y71120D02*
D03*
Y24120D02*
D03*
Y118120D02*
D03*
D40*
X500380Y236220D02*
D03*
Y210820D02*
D03*
D41*
X333990Y64000D02*
D03*
X420390D02*
D03*
D42*
X333990Y24000D02*
D03*
X420390D02*
D03*
D43*
X15240Y45720D02*
D03*
X618490Y204470D02*
D03*
X58420D02*
D03*
D44*
X539750Y127000D02*
D03*
X462280Y161290D02*
D03*
X304800Y190500D02*
D03*
X200660Y110490D02*
D03*
X313690Y30480D02*
D03*
X317500Y85090D02*
D03*
X226060Y152400D02*
D03*
X217170Y207010D02*
D03*
X279400Y229870D02*
D03*
X375920Y13970D02*
D03*
X361950Y139070D02*
D03*
X436880Y90170D02*
D03*
X473710Y7620D02*
D03*
X614960Y158370D02*
D03*
X520700Y193040D02*
D03*
X614960Y237870D02*
D03*
X187544Y35778D02*
D03*
X378460Y209550D02*
D03*
X275590Y57150D02*
D03*
X220980Y115570D02*
D03*
X344170Y231140D02*
D03*
X201930Y238760D02*
D03*
X191770Y55880D02*
D03*
X106680Y87630D02*
D03*
X349250Y43180D02*
D03*
X347980Y26670D02*
D03*
X346710Y11430D02*
D03*
X387350Y87630D02*
D03*
X228600Y187960D02*
D03*
X259080D02*
D03*
X334010Y143510D02*
D03*
X304800Y156210D02*
D03*
Y172720D02*
D03*
X416560Y137160D02*
D03*
X447040Y153670D02*
D03*
X26670Y88900D02*
D03*
X401320Y11430D02*
D03*
M02*
