G04*
G04 #@! TF.GenerationSoftware,Altium Limited,Altium Designer,26.3.0 (6)*
G04*
G04 Layer_Physical_Order=4*
G04 Layer_Color=16711680*
%FSLAX44Y44*%
%MOMM*%
G71*
G04*
G04 #@! TF.SameCoordinates,9F17CBEB-97C6-4A76-B5D1-3E1F46C8A7B1*
G04*
G04*
G04 #@! TF.FilePolarity,Positive*
G04*
G01*
G75*
%ADD14R,0.7016X1.3992*%
%ADD15R,1.3992X0.7016*%
%ADD17R,1.3000X1.5500*%
%ADD21R,1.2000X0.6500*%
%ADD22R,0.6500X1.2000*%
%ADD26R,0.6000X0.3500*%
%ADD37C,1.4986*%
%ADD38C,1.7526*%
%ADD39C,2.0320*%
%ADD40C,1.4224*%
G04:AMPARAMS|DCode=41|XSize=1mm|YSize=1.8mm|CornerRadius=0.5mm|HoleSize=0mm|Usage=FLASHONLY|Rotation=180.000|XOffset=0mm|YOffset=0mm|HoleType=Round|Shape=RoundedRectangle|*
%AMROUNDEDRECTD41*
21,1,1.0000,0.8000,0,0,180.0*
21,1,0.0000,1.8000,0,0,180.0*
1,1,1.0000,0.0000,0.4000*
1,1,1.0000,0.0000,0.4000*
1,1,1.0000,0.0000,-0.4000*
1,1,1.0000,0.0000,-0.4000*
%
%ADD41ROUNDEDRECTD41*%
G04:AMPARAMS|DCode=42|XSize=1mm|YSize=2.2mm|CornerRadius=0.5mm|HoleSize=0mm|Usage=FLASHONLY|Rotation=180.000|XOffset=0mm|YOffset=0mm|HoleType=Round|Shape=RoundedRectangle|*
%AMROUNDEDRECTD42*
21,1,1.0000,1.2000,0,0,180.0*
21,1,0.0000,2.2000,0,0,180.0*
1,1,1.0000,0.0000,0.6000*
1,1,1.0000,0.0000,0.6000*
1,1,1.0000,0.0000,-0.6000*
1,1,1.0000,0.0000,-0.6000*
%
%ADD42ROUNDEDRECTD42*%
%ADD46C,0.2540*%
%ADD47C,0.5080*%
%ADD48C,1.6000*%
G04:AMPARAMS|DCode=49|XSize=1.6mm|YSize=1.6mm|CornerRadius=0.4mm|HoleSize=0mm|Usage=FLASHONLY|Rotation=270.000|XOffset=0mm|YOffset=0mm|HoleType=Round|Shape=RoundedRectangle|*
%AMROUNDEDRECTD49*
21,1,1.6000,0.8000,0,0,270.0*
21,1,0.8000,1.6000,0,0,270.0*
1,1,0.8000,-0.4000,-0.4000*
1,1,0.8000,-0.4000,0.4000*
1,1,0.8000,0.4000,0.4000*
1,1,0.8000,0.4000,-0.4000*
%
%ADD49ROUNDEDRECTD49*%
%ADD50C,1.5240*%
%ADD51C,1.2700*%
%ADD67R,0.6000X1.1500*%
G04:AMPARAMS|DCode=68|XSize=3.2mm|YSize=1.75mm|CornerRadius=0.0525mm|HoleSize=0mm|Usage=FLASHONLY|Rotation=180.000|XOffset=0mm|YOffset=0mm|HoleType=Round|Shape=RoundedRectangle|*
%AMROUNDEDRECTD68*
21,1,3.2000,1.6450,0,0,180.0*
21,1,3.0950,1.7500,0,0,180.0*
1,1,0.1050,-1.5475,0.8225*
1,1,0.1050,1.5475,0.8225*
1,1,0.1050,1.5475,-0.8225*
1,1,0.1050,-1.5475,-0.8225*
%
%ADD68ROUNDEDRECTD68*%
G04:AMPARAMS|DCode=69|XSize=0.9mm|YSize=1.75mm|CornerRadius=0.0495mm|HoleSize=0mm|Usage=FLASHONLY|Rotation=180.000|XOffset=0mm|YOffset=0mm|HoleType=Round|Shape=RoundedRectangle|*
%AMROUNDEDRECTD69*
21,1,0.9000,1.6510,0,0,180.0*
21,1,0.8010,1.7500,0,0,180.0*
1,1,0.0990,-0.4005,0.8255*
1,1,0.0990,0.4005,0.8255*
1,1,0.0990,0.4005,-0.8255*
1,1,0.0990,-0.4005,-0.8255*
%
%ADD69ROUNDEDRECTD69*%
%ADD70R,0.3500X0.6000*%
G04:AMPARAMS|DCode=71|XSize=1.3571mm|YSize=0.5721mm|CornerRadius=0.2861mm|HoleSize=0mm|Usage=FLASHONLY|Rotation=180.000|XOffset=0mm|YOffset=0mm|HoleType=Round|Shape=RoundedRectangle|*
%AMROUNDEDRECTD71*
21,1,1.3571,0.0000,0,0,180.0*
21,1,0.7850,0.5721,0,0,180.0*
1,1,0.5721,-0.3925,0.0000*
1,1,0.5721,0.3925,0.0000*
1,1,0.5721,0.3925,0.0000*
1,1,0.5721,-0.3925,0.0000*
%
%ADD71ROUNDEDRECTD71*%
%ADD72R,1.3571X0.5721*%
%ADD73R,0.3000X1.1500*%
%ADD74R,0.6000X0.7000*%
G36*
X282515Y254271D02*
X282557Y254059D01*
X283119Y253219D01*
X283959Y252657D01*
X284950Y252460D01*
X438950D01*
X439941Y252657D01*
X440781Y253219D01*
X441259Y253934D01*
X633606Y253526D01*
X633625Y213821D01*
X631086Y213050D01*
X630328Y214185D01*
X628205Y216308D01*
X625709Y217976D01*
X622935Y219124D01*
X619991Y219710D01*
X616989D01*
X614045Y219124D01*
X611271Y217976D01*
X608775Y216308D01*
X606652Y214185D01*
X604985Y211689D01*
X603836Y208915D01*
X603250Y205971D01*
Y202969D01*
X603836Y200025D01*
X604985Y197251D01*
X606652Y194755D01*
X608775Y192632D01*
X611271Y190965D01*
X614045Y189816D01*
X616989Y189230D01*
X619991D01*
X622935Y189816D01*
X625709Y190965D01*
X628205Y192632D01*
X630328Y194755D01*
X631094Y195902D01*
X633635Y195132D01*
X633729Y1796D01*
X631934Y0D01*
X482254D01*
X481488Y1157D01*
X481042Y2540D01*
X481994Y4189D01*
X482573Y6350D01*
X464847D01*
X465426Y4189D01*
X466378Y2540D01*
X465932Y1157D01*
X465165Y0D01*
X0D01*
Y36525D01*
X2540Y37296D01*
X3402Y36005D01*
X5525Y33882D01*
X8021Y32215D01*
X10795Y31066D01*
X13739Y30480D01*
X16741D01*
X19685Y31066D01*
X22459Y32215D01*
X24955Y33882D01*
X27078Y36005D01*
X28746Y38501D01*
X29894Y41275D01*
X30480Y44219D01*
Y47221D01*
X29894Y50165D01*
X28746Y52939D01*
X27078Y55435D01*
X24955Y57558D01*
X22459Y59226D01*
X19685Y60374D01*
X16741Y60960D01*
X13739D01*
X10795Y60374D01*
X8021Y59226D01*
X5525Y57558D01*
X3402Y55435D01*
X2540Y54144D01*
X0Y54915D01*
Y253073D01*
X1798Y254867D01*
X282515Y254271D01*
D02*
G37*
%LPC*%
G36*
X476710Y246300D02*
X472440D01*
Y243280D01*
X476710D01*
Y246300D01*
D02*
G37*
G36*
X469900D02*
X465630D01*
Y243280D01*
X469900D01*
Y246300D01*
D02*
G37*
G36*
X616230Y246733D02*
Y239140D01*
X623823D01*
X623244Y241301D01*
X622074Y243329D01*
X620419Y244984D01*
X618391Y246154D01*
X616230Y246733D01*
D02*
G37*
G36*
X613690D02*
X611529Y246154D01*
X609501Y244984D01*
X607846Y243329D01*
X606676Y241301D01*
X606097Y239140D01*
X613690D01*
Y246733D01*
D02*
G37*
G36*
X393481Y246041D02*
X374830D01*
Y237344D01*
X374830Y237338D01*
Y237338D01*
X374830Y236609D01*
X374513Y236341D01*
X372290Y235483D01*
X371177Y236227D01*
X369069Y236646D01*
X361220D01*
X361209Y236644D01*
X353806Y244047D01*
X352546Y244889D01*
X351059Y245185D01*
X270320D01*
X268833Y244889D01*
X267573Y244047D01*
X265456Y241930D01*
X259870D01*
Y241525D01*
X249070D01*
X247584Y241229D01*
X246324Y240387D01*
X239823Y233887D01*
X238981Y232627D01*
X238685Y231140D01*
Y221490D01*
X233170D01*
Y200910D01*
X238325D01*
Y193976D01*
X235785Y193295D01*
X235714Y193419D01*
X234059Y195074D01*
X232031Y196244D01*
X229770Y196850D01*
X227430D01*
X225169Y196244D01*
X223141Y195074D01*
X221486Y193419D01*
X220316Y191391D01*
X219710Y189130D01*
Y186790D01*
X220316Y184529D01*
X221486Y182501D01*
X223141Y180846D01*
X225169Y179676D01*
X227430Y179070D01*
X229770D01*
X232031Y179676D01*
X234059Y180846D01*
X235714Y182501D01*
X235785Y182625D01*
X238325Y181945D01*
Y141990D01*
X233170D01*
Y123278D01*
X231824Y121296D01*
X231156Y120805D01*
X228094Y121029D01*
X226439Y122684D01*
X224411Y123854D01*
X222150Y124460D01*
X219810D01*
X217549Y123854D01*
X215521Y122684D01*
X213866Y121029D01*
X212696Y119001D01*
X212090Y116740D01*
Y114400D01*
X212696Y112139D01*
X213866Y110111D01*
X215521Y108456D01*
X217549Y107286D01*
X219039Y106886D01*
Y101277D01*
X218090Y99130D01*
X217830Y99130D01*
X210820D01*
Y93340D01*
X208280D01*
Y99130D01*
X203485D01*
X201999Y99130D01*
X201933Y100101D01*
D01*
X201830Y101600D01*
X201954Y101633D01*
X204091Y102206D01*
X206119Y103376D01*
X207774Y105031D01*
X208944Y107059D01*
X209523Y109220D01*
X191797D01*
X192376Y107059D01*
X193546Y105031D01*
X195201Y103376D01*
X197229Y102206D01*
X198306Y101917D01*
X198586Y99213D01*
X198464Y99130D01*
X191770D01*
Y93340D01*
X189230D01*
Y99130D01*
X181960D01*
Y96183D01*
X179420Y95131D01*
X170558Y103993D01*
X168878Y105115D01*
X166896Y105510D01*
X38100D01*
X36118Y105115D01*
X34437Y103993D01*
X28152Y97707D01*
X27840Y97790D01*
X25500D01*
X23239Y97184D01*
X21211Y96014D01*
X19556Y94359D01*
X18386Y92331D01*
X17780Y90070D01*
Y87730D01*
X18386Y85469D01*
X19556Y83441D01*
X21211Y81786D01*
X23239Y80616D01*
X25500Y80010D01*
X27840D01*
X30101Y80616D01*
X32129Y81786D01*
X33784Y83441D01*
X34954Y85469D01*
X35560Y87730D01*
Y90070D01*
X35477Y90382D01*
X40245Y95150D01*
X98036D01*
X98724Y94223D01*
X99290Y92611D01*
X98396Y91061D01*
X97790Y88800D01*
Y86460D01*
X98396Y84199D01*
X99566Y82171D01*
X101221Y80516D01*
X103249Y79346D01*
X105510Y78740D01*
X107316D01*
X109803Y76253D01*
X109803Y76253D01*
X111484Y75130D01*
X113466Y74736D01*
X118490D01*
Y68715D01*
X118726Y67531D01*
X119397Y66527D01*
X120401Y65856D01*
X121585Y65620D01*
X129595D01*
X130779Y65856D01*
X131783Y66527D01*
X132454Y67531D01*
X132689Y68715D01*
Y85225D01*
X132454Y86409D01*
X131783Y87413D01*
X130779Y88084D01*
X129595Y88320D01*
X121585D01*
X120401Y88084D01*
X119397Y87413D01*
X118726Y86409D01*
X118062Y86344D01*
X115570Y88535D01*
Y88800D01*
X114964Y91061D01*
X114070Y92611D01*
X114636Y94223D01*
X115324Y95150D01*
X164751D01*
X169235Y90666D01*
X168263Y88320D01*
X167585D01*
X166401Y88084D01*
X165397Y87413D01*
X164726Y86409D01*
X164491Y85225D01*
Y68715D01*
X164726Y67531D01*
X165397Y66527D01*
X166401Y65856D01*
X167585Y65620D01*
X175595D01*
X176779Y65856D01*
X177783Y66527D01*
X178454Y67531D01*
X178689Y68715D01*
Y72955D01*
X181960D01*
Y71050D01*
X192005D01*
X193363Y68510D01*
X193298Y68414D01*
X193003Y66927D01*
Y65356D01*
X192417Y64770D01*
X190600D01*
X188339Y64164D01*
X186311Y62994D01*
X184656Y61339D01*
X183486Y59311D01*
X182880Y57050D01*
Y54710D01*
X183486Y52449D01*
X184656Y50421D01*
X186311Y48766D01*
X188339Y47596D01*
X190600Y46990D01*
X192940D01*
X195201Y47596D01*
X197229Y48766D01*
X198884Y50421D01*
X200054Y52449D01*
X200660Y54710D01*
Y57050D01*
X200054Y59311D01*
X199282Y60648D01*
X199634Y61000D01*
X200476Y62260D01*
X200772Y63747D01*
Y65318D01*
X206504Y71050D01*
X218090D01*
Y76792D01*
X220630Y77844D01*
X222127Y76348D01*
X222127Y76347D01*
X223807Y75225D01*
X225789Y74830D01*
X228995D01*
X236751Y67074D01*
X236751Y67074D01*
X238432Y65951D01*
X240414Y65557D01*
X240414Y65557D01*
X267832D01*
X268884Y63017D01*
X268476Y62609D01*
X267306Y60581D01*
X266700Y58320D01*
Y55980D01*
X267306Y53719D01*
X268476Y51691D01*
X270131Y50036D01*
X272159Y48866D01*
X274420Y48260D01*
X276760D01*
X279021Y48866D01*
X281049Y50036D01*
X282704Y51691D01*
X283874Y53719D01*
X284159Y54780D01*
X286892Y55639D01*
X303013Y39518D01*
X304694Y38395D01*
X305316Y38271D01*
X305951Y37095D01*
X306348Y35543D01*
X305406Y33911D01*
X304827Y31750D01*
X322553D01*
X321974Y33911D01*
X321080Y35461D01*
X321646Y37074D01*
X322334Y38001D01*
X327858D01*
X328720Y35461D01*
X328612Y35378D01*
X327404Y33802D01*
X326644Y31968D01*
X326385Y30000D01*
Y18000D01*
X326644Y16032D01*
X327404Y14197D01*
X328612Y12622D01*
X330187Y11414D01*
X332022Y10654D01*
X333990Y10395D01*
X335280Y10565D01*
X336205Y10453D01*
X338202Y8834D01*
X338426Y7999D01*
X339596Y5971D01*
X341251Y4316D01*
X343279Y3146D01*
X345540Y2540D01*
X347880D01*
X350141Y3146D01*
X352169Y4316D01*
X353824Y5971D01*
X354733Y7545D01*
X359012D01*
X360498Y7841D01*
X361758Y8683D01*
X364712Y11637D01*
X367545Y10878D01*
X367636Y10539D01*
X368806Y8511D01*
X370461Y6856D01*
X372489Y5686D01*
X374650Y5107D01*
Y13970D01*
X375920D01*
Y15240D01*
X384783D01*
X384204Y17401D01*
X383034Y19429D01*
X381379Y21084D01*
X380422Y21636D01*
X379760Y24567D01*
X389081Y33888D01*
X389923Y35148D01*
X390219Y36635D01*
Y54935D01*
X389923Y56421D01*
X389081Y57682D01*
X388575Y58188D01*
Y61460D01*
X397370D01*
Y19415D01*
X395861Y18544D01*
X394206Y16889D01*
X393036Y14861D01*
X392430Y12600D01*
Y10260D01*
X393036Y7999D01*
X394206Y5971D01*
X395861Y4316D01*
X397889Y3146D01*
X400150Y2540D01*
X402490D01*
X404751Y3146D01*
X406779Y4316D01*
X408434Y5971D01*
X409604Y7999D01*
X410210Y10260D01*
Y12600D01*
X409604Y14861D01*
X408434Y16889D01*
X406779Y18544D01*
X405140Y19490D01*
Y61460D01*
X407920D01*
Y69750D01*
Y78040D01*
X406139D01*
X404781Y80580D01*
X404817Y80634D01*
X409020D01*
Y99706D01*
X396924D01*
Y93907D01*
X394753Y93185D01*
X394384Y93168D01*
X392809Y94744D01*
X390781Y95914D01*
X388520Y96520D01*
X386180D01*
X383919Y95914D01*
X381891Y94744D01*
X380236Y93089D01*
X379066Y91061D01*
X378460Y88800D01*
Y86460D01*
X378467Y86435D01*
X378466Y86203D01*
X376973Y83599D01*
X375713Y82757D01*
X372173Y79217D01*
X371387Y78040D01*
X363209D01*
X363049Y78847D01*
X362207Y80107D01*
X356186Y86128D01*
Y99706D01*
X344090D01*
Y80634D01*
X348293D01*
X348329Y80580D01*
X346971Y78040D01*
X346460D01*
Y69750D01*
Y61460D01*
X348010D01*
Y52052D01*
X345819Y51464D01*
X343791Y50294D01*
X342136Y48639D01*
X341975Y48359D01*
X308821D01*
X282782Y74399D01*
X281102Y75521D01*
X279119Y75916D01*
X242559D01*
X237457Y81018D01*
X238429Y83364D01*
X241506D01*
Y101839D01*
X243665Y102183D01*
X243666Y102183D01*
X243913Y102207D01*
X246323Y101988D01*
X246426Y99948D01*
Y83364D01*
X258522D01*
Y90095D01*
X267510D01*
Y87940D01*
X288090D01*
Y94527D01*
X309323Y115759D01*
X310165Y117020D01*
X310460Y118506D01*
Y120140D01*
X324910D01*
Y136618D01*
X325144Y136787D01*
X327450Y137498D01*
X328551Y136396D01*
X330579Y135226D01*
X332840Y134620D01*
X335180D01*
X336936Y135090D01*
X356663Y115363D01*
X357923Y114521D01*
X359410Y114225D01*
X368830D01*
X370317Y114521D01*
X371577Y115363D01*
X405999Y149785D01*
X439017D01*
X439926Y148211D01*
X441581Y146556D01*
X443609Y145386D01*
X445870Y144780D01*
X448210D01*
X450471Y145386D01*
X452499Y146556D01*
X454154Y148211D01*
X455324Y150239D01*
X455758Y151857D01*
X457460Y152936D01*
X458470Y153224D01*
X458849Y153006D01*
X461010Y152427D01*
Y161290D01*
Y170153D01*
X458849Y169574D01*
X456821Y168404D01*
X455166Y166749D01*
X453996Y164721D01*
X453562Y163103D01*
X451860Y162024D01*
X450850Y161736D01*
X450471Y161954D01*
X448210Y162560D01*
X445870D01*
X443609Y161954D01*
X441581Y160784D01*
X439926Y159129D01*
X439017Y157555D01*
X404390D01*
X402904Y157259D01*
X401643Y156417D01*
X367221Y121995D01*
X361019D01*
X342430Y140584D01*
X342900Y142340D01*
Y144680D01*
X342294Y146941D01*
X341124Y148969D01*
X339469Y150624D01*
X337441Y151794D01*
X335180Y152400D01*
X332840D01*
X330579Y151794D01*
X328551Y150624D01*
X326896Y148969D01*
X325726Y146941D01*
X325120Y144680D01*
Y143173D01*
X325044Y142283D01*
X322924Y140720D01*
X319755D01*
Y145555D01*
X321771Y147571D01*
X322613Y148832D01*
X322909Y150318D01*
Y156135D01*
X340440D01*
Y154480D01*
X349960D01*
Y160020D01*
Y165560D01*
X345934D01*
X344885Y166609D01*
Y169260D01*
X346790D01*
Y180690D01*
X349170Y183070D01*
X351710Y182018D01*
Y179070D01*
X357500D01*
X363290D01*
Y186340D01*
X358974D01*
X357860Y188787D01*
X358455Y190017D01*
X358995Y190807D01*
X364100D01*
X365873Y189230D01*
X366292Y187123D01*
X367486Y185336D01*
X369272Y184143D01*
X371380Y183724D01*
X379229D01*
X381337Y184143D01*
X383123Y185336D01*
X384317Y187123D01*
X384736Y189230D01*
X384375Y191044D01*
X385103Y192206D01*
X385196Y192353D01*
X386040Y193329D01*
X386774Y193329D01*
X386774D01*
X386963Y193329D01*
X403214D01*
Y192454D01*
X415038D01*
X416010Y190107D01*
X409517Y183615D01*
X402140D01*
X402134Y183624D01*
X400348Y184817D01*
X398240Y185236D01*
X390391D01*
X388283Y184817D01*
X386497Y183624D01*
X385303Y181837D01*
X384884Y179730D01*
X385303Y177623D01*
X386497Y175836D01*
X388283Y174643D01*
X390391Y174223D01*
X398240D01*
X400348Y174643D01*
X402134Y175836D01*
X402140Y175845D01*
X411126D01*
X412613Y176141D01*
X413873Y176983D01*
X430237Y193347D01*
X436234D01*
Y191184D01*
X455306D01*
Y194707D01*
X456575Y194959D01*
X457835Y195801D01*
X463283Y201250D01*
X465630Y200278D01*
Y199470D01*
X469900D01*
Y203760D01*
X471170D01*
Y205030D01*
X476710D01*
Y206655D01*
X491639D01*
X492657Y204893D01*
X494454Y203097D01*
X496655Y201826D01*
X499109Y201168D01*
X501651D01*
X504105Y201826D01*
X506306Y203097D01*
X508103Y204893D01*
X509374Y207094D01*
X510032Y209549D01*
Y212091D01*
X509374Y214545D01*
X508103Y216747D01*
X506306Y218543D01*
X504105Y219814D01*
X501651Y220472D01*
X499109D01*
X496655Y219814D01*
X494454Y218543D01*
X492657Y216747D01*
X491386Y214545D01*
X491353Y214425D01*
X476710D01*
Y214550D01*
X469340D01*
X468368Y216897D01*
X473917Y222446D01*
X474759Y223706D01*
X475055Y225193D01*
Y231220D01*
X476710D01*
Y231980D01*
X491683D01*
X492657Y230294D01*
X494454Y228496D01*
X496655Y227226D01*
X499109Y226568D01*
X501651D01*
X504105Y227226D01*
X506306Y228496D01*
X508103Y230294D01*
X509374Y232495D01*
X510032Y234949D01*
Y237491D01*
X509374Y239946D01*
X508103Y242146D01*
X506306Y243944D01*
X504105Y245214D01*
X501651Y245872D01*
X499109D01*
X496655Y245214D01*
X494454Y243944D01*
X492657Y242146D01*
X491386Y239946D01*
X491333Y239750D01*
X476710D01*
Y240740D01*
X471170D01*
X465630D01*
Y237720D01*
Y231220D01*
X467285D01*
Y226802D01*
X457653Y217169D01*
X455306Y218141D01*
Y220296D01*
X436234D01*
Y218133D01*
X430084D01*
X404830Y243387D01*
X403570Y244229D01*
X402083Y244525D01*
X393481D01*
Y246041D01*
D02*
G37*
G36*
X203100Y247650D02*
X200760D01*
X198499Y247044D01*
X196471Y245874D01*
X194816Y244219D01*
X193646Y242191D01*
X193040Y239930D01*
Y237590D01*
X193646Y235329D01*
X194816Y233301D01*
X196471Y231646D01*
X198499Y230476D01*
X200760Y229870D01*
X203100D01*
X205361Y230476D01*
X207389Y231646D01*
X209044Y233301D01*
X210214Y235329D01*
X210820Y237590D01*
Y239930D01*
X210214Y242191D01*
X209044Y244219D01*
X207389Y245874D01*
X205361Y247044D01*
X203100Y247650D01*
D02*
G37*
G36*
X623823Y236600D02*
X616230D01*
Y229007D01*
X618391Y229586D01*
X620419Y230756D01*
X622074Y232411D01*
X623244Y234439D01*
X623823Y236600D01*
D02*
G37*
G36*
X613690D02*
X606097D01*
X606676Y234439D01*
X607846Y232411D01*
X609501Y230756D01*
X611529Y229586D01*
X613690Y229007D01*
Y236600D01*
D02*
G37*
G36*
X129591Y234823D02*
X129540D01*
Y226060D01*
X138303D01*
Y226111D01*
X137619Y228663D01*
X136298Y230951D01*
X134430Y232819D01*
X132143Y234139D01*
X129591Y234823D01*
D02*
G37*
G36*
X127000D02*
X126949D01*
X124397Y234139D01*
X122110Y232819D01*
X120242Y230951D01*
X118921Y228663D01*
X118237Y226111D01*
Y226060D01*
X127000D01*
Y234823D01*
D02*
G37*
G36*
X138303Y223520D02*
X129540D01*
Y214757D01*
X129591D01*
X132143Y215441D01*
X134430Y216762D01*
X136298Y218630D01*
X137619Y220917D01*
X138303Y223469D01*
Y223520D01*
D02*
G37*
G36*
X127000D02*
X118237D01*
Y223469D01*
X118921Y220917D01*
X120242Y218630D01*
X122110Y216762D01*
X124397Y215441D01*
X126949Y214757D01*
X127000D01*
Y223520D01*
D02*
G37*
G36*
X195940Y221490D02*
X188170D01*
Y212470D01*
X195940D01*
Y221490D01*
D02*
G37*
G36*
X218440Y215873D02*
Y208280D01*
X226033D01*
X225454Y210441D01*
X224284Y212469D01*
X222629Y214124D01*
X220601Y215294D01*
X218440Y215873D01*
D02*
G37*
G36*
X195940Y209930D02*
X188170D01*
Y200910D01*
X195940D01*
Y209930D01*
D02*
G37*
G36*
X476710Y202490D02*
X472440D01*
Y199470D01*
X476710D01*
Y202490D01*
D02*
G37*
G36*
X226033Y205740D02*
X218440D01*
Y198147D01*
X220601Y198726D01*
X222629Y199896D01*
X224284Y201551D01*
X225454Y203579D01*
X226033Y205740D01*
D02*
G37*
G36*
X206250Y221490D02*
X198480D01*
Y211200D01*
Y200910D01*
X206250D01*
Y203602D01*
X208790Y203936D01*
X208886Y203579D01*
X210056Y201551D01*
X211711Y199896D01*
X213739Y198726D01*
X215900Y198147D01*
Y207010D01*
Y215873D01*
X213739Y215294D01*
X211711Y214124D01*
X210056Y212469D01*
X208886Y210441D01*
X208790Y210084D01*
X206250Y210418D01*
Y221490D01*
D02*
G37*
G36*
X521970Y201903D02*
Y194310D01*
X529563D01*
X528984Y196471D01*
X527814Y198499D01*
X526159Y200154D01*
X524131Y201324D01*
X521970Y201903D01*
D02*
G37*
G36*
X519430D02*
X517269Y201324D01*
X515241Y200154D01*
X513586Y198499D01*
X512416Y196471D01*
X511837Y194310D01*
X519430D01*
Y201903D01*
D02*
G37*
G36*
X129591Y209823D02*
X126949D01*
X124397Y209139D01*
X122110Y207819D01*
X120242Y205951D01*
X118921Y203663D01*
X118237Y201111D01*
Y198469D01*
X118921Y195917D01*
X120242Y193630D01*
X122110Y191762D01*
X124397Y190441D01*
X126949Y189757D01*
X129591D01*
X132143Y190441D01*
X134430Y191762D01*
X136298Y193630D01*
X137619Y195917D01*
X138303Y198469D01*
Y201111D01*
X137619Y203663D01*
X136298Y205951D01*
X134430Y207819D01*
X132143Y209139D01*
X129591Y209823D01*
D02*
G37*
G36*
X59921Y219710D02*
X56919D01*
X53975Y219124D01*
X51201Y217976D01*
X48705Y216308D01*
X46582Y214185D01*
X44914Y211689D01*
X43766Y208915D01*
X43180Y205971D01*
Y202969D01*
X43766Y200025D01*
X44914Y197251D01*
X46582Y194755D01*
X48705Y192632D01*
X51201Y190965D01*
X53975Y189816D01*
X56919Y189230D01*
X59921D01*
X62865Y189816D01*
X65639Y190965D01*
X68135Y192632D01*
X70258Y194755D01*
X71926Y197251D01*
X73074Y200025D01*
X73660Y202969D01*
Y205971D01*
X73074Y208915D01*
X71926Y211689D01*
X70258Y214185D01*
X68135Y216308D01*
X65639Y217976D01*
X62865Y219124D01*
X59921Y219710D01*
D02*
G37*
G36*
X529563Y191770D02*
X521970D01*
Y184177D01*
X524131Y184756D01*
X526159Y185926D01*
X527814Y187581D01*
X528984Y189609D01*
X529563Y191770D01*
D02*
G37*
G36*
X519430D02*
X511837D01*
X512416Y189609D01*
X513586Y187581D01*
X515241Y185926D01*
X517269Y184756D01*
X519430Y184177D01*
Y191770D01*
D02*
G37*
G36*
X363290Y176530D02*
X358770D01*
Y169260D01*
X363290D01*
Y176530D01*
D02*
G37*
G36*
X356230D02*
X351710D01*
Y169260D01*
X356230D01*
Y176530D01*
D02*
G37*
G36*
X129591Y184823D02*
X126949D01*
X124397Y184139D01*
X122110Y182819D01*
X120242Y180951D01*
X118921Y178663D01*
X118237Y176111D01*
Y173469D01*
X118921Y170917D01*
X120242Y168630D01*
X122110Y166762D01*
X124397Y165441D01*
X126949Y164757D01*
X129591D01*
X132143Y165441D01*
X134430Y166762D01*
X136298Y168630D01*
X137619Y170917D01*
X138303Y173469D01*
Y176111D01*
X137619Y178663D01*
X136298Y180951D01*
X134430Y182819D01*
X132143Y184139D01*
X129591Y184823D01*
D02*
G37*
G36*
X463550Y170153D02*
Y162560D01*
X471143D01*
X470564Y164721D01*
X469394Y166749D01*
X467739Y168404D01*
X465711Y169574D01*
X463550Y170153D01*
D02*
G37*
G36*
X355520Y165560D02*
X352500D01*
Y161290D01*
X355520D01*
Y165560D01*
D02*
G37*
G36*
X616230Y167233D02*
Y159640D01*
X623823D01*
X623244Y161801D01*
X622074Y163829D01*
X620419Y165484D01*
X618391Y166654D01*
X616230Y167233D01*
D02*
G37*
G36*
X613690D02*
X611529Y166654D01*
X609501Y165484D01*
X607846Y163829D01*
X606676Y161801D01*
X606097Y159640D01*
X613690D01*
Y167233D01*
D02*
G37*
G36*
X525970Y180776D02*
X517970D01*
X516263Y180552D01*
X514672Y179893D01*
X513306Y178844D01*
X512257Y177478D01*
X511598Y175887D01*
X511374Y174180D01*
Y166180D01*
X511598Y164473D01*
X512257Y162882D01*
X513306Y161516D01*
X514672Y160467D01*
X516263Y159808D01*
X517970Y159584D01*
X525970D01*
X527677Y159808D01*
X529268Y160467D01*
X530634Y161516D01*
X531683Y162882D01*
X532342Y164473D01*
X532566Y166180D01*
Y174180D01*
X532342Y175887D01*
X531683Y177478D01*
X530634Y178844D01*
X529268Y179893D01*
X527677Y180552D01*
X525970Y180776D01*
D02*
G37*
G36*
X355520Y158750D02*
X352500D01*
Y154480D01*
X355520D01*
Y158750D01*
D02*
G37*
G36*
X227330Y161263D02*
Y153670D01*
X234923D01*
X234344Y155831D01*
X233174Y157859D01*
X231519Y159514D01*
X229491Y160684D01*
X227330Y161263D01*
D02*
G37*
G36*
X224790D02*
X222629Y160684D01*
X220601Y159514D01*
X218946Y157859D01*
X217776Y155831D01*
X217197Y153670D01*
X224790D01*
Y161263D01*
D02*
G37*
G36*
X471143Y160020D02*
X463550D01*
Y152427D01*
X465711Y153006D01*
X467739Y154176D01*
X469394Y155831D01*
X470564Y157859D01*
X471143Y160020D01*
D02*
G37*
G36*
X623823Y157100D02*
X616230D01*
Y149507D01*
X618391Y150086D01*
X620419Y151256D01*
X622074Y152911D01*
X623244Y154939D01*
X623823Y157100D01*
D02*
G37*
G36*
X613690D02*
X606097D01*
X606676Y154939D01*
X607846Y152911D01*
X609501Y151256D01*
X611529Y150086D01*
X613690Y149507D01*
Y157100D01*
D02*
G37*
G36*
X234923Y151130D02*
X227330D01*
Y143537D01*
X229491Y144116D01*
X231519Y145286D01*
X233174Y146941D01*
X234344Y148969D01*
X234923Y151130D01*
D02*
G37*
G36*
X224790D02*
X217197D01*
X217776Y148969D01*
X218946Y146941D01*
X220601Y145286D01*
X222629Y144116D01*
X224790Y143537D01*
Y151130D01*
D02*
G37*
G36*
X363220Y147933D02*
Y140340D01*
X370813D01*
X370234Y142501D01*
X369064Y144529D01*
X367409Y146184D01*
X365381Y147354D01*
X363220Y147933D01*
D02*
G37*
G36*
X360680D02*
X358519Y147354D01*
X356491Y146184D01*
X354836Y144529D01*
X353666Y142501D01*
X353087Y140340D01*
X360680D01*
Y147933D01*
D02*
G37*
G36*
X129591Y159823D02*
X126949D01*
X124397Y159139D01*
X122110Y157818D01*
X120242Y155950D01*
X118921Y153663D01*
X118237Y151111D01*
Y148469D01*
X118921Y145918D01*
X120242Y143630D01*
X122110Y141762D01*
X124397Y140441D01*
X126949Y139757D01*
X129591D01*
X132143Y140441D01*
X134430Y141762D01*
X136298Y143630D01*
X137619Y145918D01*
X138303Y148469D01*
Y151111D01*
X137619Y153663D01*
X136298Y155950D01*
X134430Y157818D01*
X132143Y159139D01*
X129591Y159823D01*
D02*
G37*
G36*
X523358Y155320D02*
X520582D01*
X517902Y154602D01*
X515498Y153214D01*
X513536Y151252D01*
X512148Y148848D01*
X511430Y146168D01*
Y143392D01*
X512148Y140712D01*
X513536Y138308D01*
X515498Y136346D01*
X517902Y134958D01*
X520582Y134240D01*
X523358D01*
X526038Y134958D01*
X528442Y136346D01*
X530404Y138308D01*
X531792Y140712D01*
X532510Y143392D01*
Y146168D01*
X531792Y148848D01*
X530404Y151252D01*
X528442Y153214D01*
X526038Y154602D01*
X523358Y155320D01*
D02*
G37*
G36*
X206250Y141990D02*
X198480D01*
Y132970D01*
X206250D01*
Y141990D01*
D02*
G37*
G36*
X195940D02*
X188170D01*
Y132970D01*
X195940D01*
Y141990D01*
D02*
G37*
G36*
X370813Y137800D02*
X363220D01*
Y130207D01*
X365381Y130786D01*
X367409Y131956D01*
X369064Y133611D01*
X370234Y135639D01*
X370813Y137800D01*
D02*
G37*
G36*
X360680D02*
X353087D01*
X353666Y135639D01*
X354836Y133611D01*
X356491Y131956D01*
X358519Y130786D01*
X360680Y130207D01*
Y137800D01*
D02*
G37*
G36*
X541020Y135863D02*
Y128270D01*
X548613D01*
X548034Y130431D01*
X546864Y132459D01*
X545209Y134114D01*
X543181Y135284D01*
X541020Y135863D01*
D02*
G37*
G36*
X538480D02*
X536319Y135284D01*
X534291Y134114D01*
X532636Y132459D01*
X531466Y130431D01*
X531033Y128815D01*
X528984Y127894D01*
X528442Y127814D01*
X526038Y129202D01*
X523358Y129920D01*
X523240D01*
Y119380D01*
Y108840D01*
X523358D01*
X526038Y109558D01*
X528442Y110946D01*
X530404Y112908D01*
X531792Y115312D01*
X532510Y117992D01*
Y118084D01*
X532973Y118553D01*
X535050Y119448D01*
X536319Y118716D01*
X538480Y118137D01*
Y127000D01*
Y135863D01*
D02*
G37*
G36*
X520700Y129920D02*
X520582D01*
X517902Y129202D01*
X515498Y127814D01*
X513536Y125852D01*
X512148Y123448D01*
X511430Y120768D01*
Y120650D01*
X520700D01*
Y129920D01*
D02*
G37*
G36*
X548613Y125730D02*
X541020D01*
Y118137D01*
X543181Y118716D01*
X545209Y119886D01*
X546864Y121541D01*
X548034Y123569D01*
X548613Y125730D01*
D02*
G37*
G36*
X129591Y134823D02*
X126949D01*
X124397Y134139D01*
X122110Y132818D01*
X120242Y130950D01*
X118921Y128663D01*
X118237Y126111D01*
Y123469D01*
X118921Y120918D01*
X120242Y118630D01*
X122110Y116762D01*
X124397Y115441D01*
X126949Y114757D01*
X129591D01*
X132143Y115441D01*
X134430Y116762D01*
X136298Y118630D01*
X137619Y120918D01*
X138303Y123469D01*
Y126111D01*
X137619Y128663D01*
X136298Y130950D01*
X134430Y132818D01*
X132143Y134139D01*
X129591Y134823D01*
D02*
G37*
G36*
X206250Y130430D02*
X197210D01*
X188170D01*
Y121410D01*
X197252D01*
X197586Y118870D01*
X197229Y118774D01*
X195201Y117604D01*
X193546Y115949D01*
X192376Y113921D01*
X191797Y111760D01*
X209523D01*
X208944Y113921D01*
X207774Y115949D01*
X206119Y117604D01*
X204091Y118774D01*
X203734Y118870D01*
X204068Y121410D01*
X206250D01*
Y130430D01*
D02*
G37*
G36*
X520700Y118110D02*
X511430D01*
Y117992D01*
X512148Y115312D01*
X513536Y112908D01*
X515498Y110946D01*
X517902Y109558D01*
X520582Y108840D01*
X520700D01*
Y118110D01*
D02*
G37*
G36*
X585872Y130820D02*
X582528D01*
X579298Y129955D01*
X576402Y128282D01*
X574038Y125918D01*
X572365Y123022D01*
X571500Y119792D01*
Y116448D01*
X572365Y113218D01*
X574038Y110322D01*
X576402Y107957D01*
X579298Y106285D01*
X582528Y105420D01*
X585872D01*
X589102Y106285D01*
X591998Y107957D01*
X594362Y110322D01*
X596035Y113218D01*
X596900Y116448D01*
Y119792D01*
X596035Y123022D01*
X594362Y125918D01*
X591998Y128282D01*
X589102Y129955D01*
X585872Y130820D01*
D02*
G37*
G36*
X438150Y99033D02*
Y91440D01*
X445743D01*
X445164Y93601D01*
X443994Y95629D01*
X442339Y97284D01*
X440311Y98454D01*
X438150Y99033D01*
D02*
G37*
G36*
X339170Y99706D02*
X334392D01*
Y91440D01*
X339170D01*
Y99706D01*
D02*
G37*
G36*
X418718D02*
X413940D01*
Y91440D01*
X418718D01*
Y99706D01*
D02*
G37*
G36*
X331852D02*
X327074D01*
Y91367D01*
X324903Y90645D01*
X324534Y90628D01*
X322959Y92204D01*
X320931Y93374D01*
X318770Y93953D01*
Y85090D01*
Y76227D01*
X320931Y76806D01*
X322959Y77976D01*
X324614Y79631D01*
X324809Y79970D01*
X327074Y80634D01*
X327956Y80634D01*
X331852D01*
Y90170D01*
Y99706D01*
D02*
G37*
G36*
X466550Y92630D02*
X462280D01*
Y89610D01*
X466550D01*
Y92630D01*
D02*
G37*
G36*
X459740D02*
X455470D01*
Y89610D01*
X459740D01*
Y92630D01*
D02*
G37*
G36*
X316230Y93953D02*
X314069Y93374D01*
X312041Y92204D01*
X310386Y90549D01*
X309216Y88521D01*
X308637Y86360D01*
X316230D01*
Y93953D01*
D02*
G37*
G36*
X418718Y88900D02*
X413940D01*
Y80634D01*
X418718D01*
Y88900D01*
D02*
G37*
G36*
X339170D02*
X334392D01*
Y80634D01*
X339170D01*
Y88900D01*
D02*
G37*
G36*
X152595Y88320D02*
X149860D01*
Y78240D01*
X155689D01*
Y85225D01*
X155454Y86409D01*
X154783Y87413D01*
X153779Y88084D01*
X152595Y88320D01*
D02*
G37*
G36*
X147320D02*
X144585D01*
X143401Y88084D01*
X142397Y87413D01*
X141726Y86409D01*
X141490Y85225D01*
Y78240D01*
X147320D01*
Y88320D01*
D02*
G37*
G36*
X316230Y83820D02*
X308637D01*
X309216Y81659D01*
X310386Y79631D01*
X312041Y77976D01*
X314069Y76806D01*
X316230Y76227D01*
Y83820D01*
D02*
G37*
G36*
X343920Y78040D02*
X339650D01*
Y76363D01*
X339010Y75750D01*
X337110Y74869D01*
X335958Y75346D01*
X333990Y75605D01*
X332022Y75346D01*
X330187Y74586D01*
X328612Y73378D01*
X327404Y71803D01*
X326644Y69968D01*
X326385Y68000D01*
Y60000D01*
X326644Y58032D01*
X327404Y56198D01*
X328612Y54622D01*
X330187Y53414D01*
X332022Y52654D01*
X333990Y52395D01*
X335958Y52654D01*
X337793Y53414D01*
X339368Y54622D01*
X340576Y56198D01*
X341336Y58032D01*
X341595Y60000D01*
Y61460D01*
X343920D01*
Y69750D01*
Y78040D01*
D02*
G37*
G36*
X585872Y83820D02*
X585470D01*
Y72390D01*
X596900D01*
Y72792D01*
X596035Y76022D01*
X594362Y78918D01*
X591998Y81283D01*
X589102Y82955D01*
X585872Y83820D01*
D02*
G37*
G36*
X582930D02*
X582528D01*
X579298Y82955D01*
X576402Y81283D01*
X574038Y78918D01*
X572365Y76022D01*
X571500Y72792D01*
Y72390D01*
X582930D01*
Y83820D01*
D02*
G37*
G36*
X466550Y87070D02*
X461010D01*
X455470D01*
Y84050D01*
Y77550D01*
X466550D01*
Y77955D01*
X508413D01*
X509397Y76971D01*
Y74479D01*
X510081Y71927D01*
X511402Y69640D01*
X513270Y67772D01*
X515557Y66451D01*
X518109Y65767D01*
X520751D01*
X523303Y66451D01*
X525590Y67772D01*
X527458Y69640D01*
X528779Y71927D01*
X529463Y74479D01*
Y77121D01*
X528779Y79673D01*
X527458Y81960D01*
X525590Y83828D01*
X523303Y85149D01*
X520751Y85833D01*
X518109D01*
X515557Y85149D01*
X513433Y83923D01*
X512769Y84587D01*
X511509Y85429D01*
X510022Y85725D01*
X466550D01*
Y86130D01*
Y87070D01*
D02*
G37*
G36*
X155689Y75700D02*
X149860D01*
Y65620D01*
X152595D01*
X153779Y65856D01*
X154783Y66527D01*
X155454Y67531D01*
X155689Y68715D01*
Y75700D01*
D02*
G37*
G36*
X147320D02*
X141490D01*
Y68715D01*
X141726Y67531D01*
X142397Y66527D01*
X143401Y65856D01*
X144585Y65620D01*
X147320D01*
Y75700D01*
D02*
G37*
G36*
X596900Y69850D02*
X585470D01*
Y58420D01*
X585872D01*
X589102Y59285D01*
X591998Y60957D01*
X594362Y63322D01*
X596035Y66218D01*
X596900Y69448D01*
Y69850D01*
D02*
G37*
G36*
X582930D02*
X571500D01*
Y69448D01*
X572365Y66218D01*
X574038Y63322D01*
X576402Y60957D01*
X579298Y59285D01*
X582528Y58420D01*
X582930D01*
Y69850D01*
D02*
G37*
G36*
X414730Y78040D02*
X410460D01*
Y69750D01*
Y61460D01*
X412785D01*
Y60000D01*
X413044Y58032D01*
X413804Y56198D01*
X415012Y54622D01*
X416587Y53414D01*
X418422Y52654D01*
X420390Y52395D01*
X422358Y52654D01*
X424193Y53414D01*
X425768Y54622D01*
X426976Y56198D01*
X427736Y58032D01*
X427995Y60000D01*
Y68000D01*
X427736Y69968D01*
X426976Y71803D01*
X425768Y73378D01*
X424193Y74586D01*
X422358Y75346D01*
X420390Y75605D01*
X418422Y75346D01*
X417270Y74869D01*
X415370Y75750D01*
X414730Y76363D01*
Y78040D01*
D02*
G37*
G36*
X466550Y55170D02*
X462280D01*
Y52150D01*
X466550D01*
Y55170D01*
D02*
G37*
G36*
X459740D02*
X455470D01*
Y52150D01*
X459740D01*
Y55170D01*
D02*
G37*
G36*
X417730Y146050D02*
X415390D01*
X413129Y145444D01*
X411101Y144274D01*
X409446Y142619D01*
X408276Y140591D01*
X407670Y138330D01*
Y135990D01*
X408276Y133729D01*
X409446Y131701D01*
X411101Y130046D01*
X413129Y128876D01*
X415390Y128270D01*
X417730D01*
X419486Y128740D01*
X422405Y125821D01*
Y99706D01*
X421258D01*
Y90170D01*
X419988D01*
D01*
X421258D01*
Y80634D01*
X426036D01*
X426036Y80634D01*
Y80634D01*
X427939Y79249D01*
X429928Y77260D01*
X431188Y76418D01*
X432674Y76122D01*
X436954D01*
X443767Y69310D01*
X445027Y68468D01*
X446514Y68172D01*
X449034D01*
X455470Y61736D01*
Y57710D01*
X461010D01*
X466550D01*
Y59055D01*
X481482D01*
X492484Y48053D01*
X493745Y47211D01*
X495231Y46915D01*
X510088D01*
X511402Y44640D01*
X513270Y42772D01*
X515557Y41451D01*
X518109Y40767D01*
X520751D01*
X523303Y41451D01*
X525590Y42772D01*
X527458Y44640D01*
X528779Y46927D01*
X529463Y49479D01*
Y52121D01*
X528779Y54673D01*
X527458Y56960D01*
X525590Y58828D01*
X523303Y60149D01*
X520751Y60833D01*
X518109D01*
X515557Y60149D01*
X513270Y58828D01*
X511402Y56960D01*
X510088Y54685D01*
X496840D01*
X485838Y65687D01*
X484578Y66529D01*
X483091Y66825D01*
X466550D01*
Y67230D01*
X460964D01*
X453390Y74804D01*
X452130Y75646D01*
X450643Y75942D01*
X448123D01*
X443194Y80871D01*
X443469Y84187D01*
X443994Y84711D01*
X445164Y86739D01*
X445743Y88900D01*
X436880D01*
Y90170D01*
X435610D01*
Y99033D01*
X433449Y98454D01*
X432715Y98030D01*
X430175Y99497D01*
Y127430D01*
X429879Y128917D01*
X429037Y130177D01*
X424980Y134234D01*
X425450Y135990D01*
Y138330D01*
X424844Y140591D01*
X423674Y142619D01*
X422019Y144274D01*
X419991Y145444D01*
X417730Y146050D01*
D02*
G37*
G36*
X188814Y44641D02*
Y37048D01*
X196407D01*
X195828Y39209D01*
X194658Y41237D01*
X193002Y42892D01*
X190975Y44062D01*
X188814Y44641D01*
D02*
G37*
G36*
X186274D02*
X184112Y44062D01*
X182085Y42892D01*
X180430Y41237D01*
X179260Y39209D01*
X178681Y37048D01*
X186274D01*
Y44641D01*
D02*
G37*
G36*
X287020Y41783D02*
X286802D01*
X283927Y41013D01*
X281350Y39525D01*
X279245Y37420D01*
X277757Y34843D01*
X276987Y31968D01*
X274593D01*
X273823Y34843D01*
X272335Y37420D01*
X270230Y39525D01*
X267653Y41013D01*
X264778Y41783D01*
X261802D01*
X258927Y41013D01*
X256350Y39525D01*
X254245Y37420D01*
X252757Y34843D01*
X251987Y31968D01*
X249593D01*
X248823Y34843D01*
X247335Y37420D01*
X245230Y39525D01*
X242653Y41013D01*
X239778Y41783D01*
X236802D01*
X233927Y41013D01*
X231350Y39525D01*
X229245Y37420D01*
X227757Y34843D01*
X226987Y31968D01*
X224593D01*
X223823Y34843D01*
X222335Y37420D01*
X220230Y39525D01*
X217653Y41013D01*
X214778Y41783D01*
X211802D01*
X208927Y41013D01*
X206350Y39525D01*
X204245Y37420D01*
X202757Y34843D01*
X201987Y31968D01*
Y28992D01*
X202757Y26117D01*
X204245Y23540D01*
X206350Y21435D01*
X208927Y19947D01*
X211802Y19177D01*
X214778D01*
X217653Y19947D01*
X220230Y21435D01*
X222335Y23540D01*
X223823Y26117D01*
X224593Y28992D01*
X226987D01*
X227757Y26117D01*
X229245Y23540D01*
X231350Y21435D01*
X233927Y19947D01*
X236802Y19177D01*
X239778D01*
X242653Y19947D01*
X245230Y21435D01*
X247335Y23540D01*
X248823Y26117D01*
X249593Y28992D01*
X251987D01*
X252757Y26117D01*
X254245Y23540D01*
X256350Y21435D01*
X258927Y19947D01*
X261802Y19177D01*
X264778D01*
X267653Y19947D01*
X270230Y21435D01*
X272335Y23540D01*
X273823Y26117D01*
X274593Y28992D01*
X276987D01*
X277757Y26117D01*
X279245Y23540D01*
X281350Y21435D01*
X283927Y19947D01*
X286802Y19177D01*
X287020D01*
Y30480D01*
Y41783D01*
D02*
G37*
G36*
X289778D02*
X289560D01*
Y31750D01*
X299593D01*
Y31968D01*
X298823Y34843D01*
X297335Y37420D01*
X295230Y39525D01*
X292653Y41013D01*
X289778Y41783D01*
D02*
G37*
G36*
X196407Y34508D02*
X188814D01*
Y26915D01*
X190975Y27494D01*
X193002Y28664D01*
X194658Y30319D01*
X195828Y32346D01*
X196407Y34508D01*
D02*
G37*
G36*
X186274D02*
X178681D01*
X179260Y32346D01*
X180430Y30319D01*
X182085Y28664D01*
X184112Y27494D01*
X186274Y26915D01*
Y34508D01*
D02*
G37*
G36*
X322553Y29210D02*
X314960D01*
Y21617D01*
X317121Y22196D01*
X319149Y23366D01*
X320804Y25021D01*
X321974Y27049D01*
X322553Y29210D01*
D02*
G37*
G36*
X312420D02*
X304827D01*
X305406Y27049D01*
X306576Y25021D01*
X308231Y23366D01*
X310259Y22196D01*
X312420Y21617D01*
Y29210D01*
D02*
G37*
G36*
X299593D02*
X289560D01*
Y19177D01*
X289778D01*
X292653Y19947D01*
X295230Y21435D01*
X297335Y23540D01*
X298823Y26117D01*
X299593Y28992D01*
Y29210D01*
D02*
G37*
G36*
X164065Y25820D02*
X149860D01*
Y15740D01*
X167190D01*
Y22695D01*
X166952Y23891D01*
X166275Y24905D01*
X165261Y25582D01*
X164065Y25820D01*
D02*
G37*
G36*
X147320D02*
X133115D01*
X131919Y25582D01*
X130905Y24905D01*
X130228Y23891D01*
X129990Y22695D01*
Y15740D01*
X147320D01*
Y25820D01*
D02*
G37*
G36*
X585872Y36820D02*
X582528D01*
X579298Y35954D01*
X576402Y34283D01*
X574038Y31918D01*
X572365Y29022D01*
X571500Y25792D01*
Y22448D01*
X572365Y19218D01*
X574038Y16322D01*
X576402Y13958D01*
X579298Y12285D01*
X582528Y11420D01*
X585872D01*
X589102Y12285D01*
X591998Y13958D01*
X594362Y16322D01*
X596035Y19218D01*
X596900Y22448D01*
Y25792D01*
X596035Y29022D01*
X594362Y31918D01*
X591998Y34283D01*
X589102Y35954D01*
X585872Y36820D01*
D02*
G37*
G36*
X420390Y37605D02*
X418422Y37346D01*
X416587Y36586D01*
X415012Y35378D01*
X413804Y33802D01*
X413044Y31968D01*
X412785Y30000D01*
Y18000D01*
X413044Y16032D01*
X413804Y14197D01*
X415012Y12622D01*
X416587Y11414D01*
X418422Y10654D01*
X420390Y10395D01*
X422358Y10654D01*
X424193Y11414D01*
X425768Y12622D01*
X426976Y14197D01*
X427736Y16032D01*
X427995Y18000D01*
Y30000D01*
X427736Y31968D01*
X426976Y33802D01*
X425768Y35378D01*
X424193Y36586D01*
X422358Y37346D01*
X420390Y37605D01*
D02*
G37*
G36*
X474980Y16483D02*
Y8890D01*
X482573D01*
X481994Y11051D01*
X480824Y13079D01*
X479169Y14734D01*
X477141Y15904D01*
X474980Y16483D01*
D02*
G37*
G36*
X472440D02*
X470279Y15904D01*
X468251Y14734D01*
X466596Y13079D01*
X465426Y11051D01*
X464847Y8890D01*
X472440D01*
Y16483D01*
D02*
G37*
G36*
X384783Y12700D02*
X377190D01*
Y5107D01*
X379351Y5686D01*
X381379Y6856D01*
X383034Y8511D01*
X384204Y10539D01*
X384783Y12700D01*
D02*
G37*
G36*
X167190Y13200D02*
X149860D01*
Y3120D01*
X164065D01*
X165261Y3358D01*
X166275Y4035D01*
X166952Y5049D01*
X167190Y6245D01*
Y13200D01*
D02*
G37*
G36*
X147320D02*
X129990D01*
Y6245D01*
X130228Y5049D01*
X130905Y4035D01*
X131919Y3358D01*
X133115Y3120D01*
X147320D01*
Y13200D01*
D02*
G37*
%LPD*%
G36*
X413317Y223913D02*
X412345Y221566D01*
X408708D01*
X405887Y224387D01*
X404627Y225229D01*
X403140Y225525D01*
X391980D01*
X391974Y225534D01*
X390188Y226727D01*
X388080Y227146D01*
X380231D01*
X378123Y226727D01*
X376337Y225534D01*
X375143Y223747D01*
X374724Y221640D01*
X375143Y219533D01*
X373726Y217082D01*
X373001Y216664D01*
X371346Y215009D01*
X370176Y212981D01*
X369570Y210720D01*
Y208380D01*
X370176Y206119D01*
X371346Y204091D01*
X373001Y202436D01*
X374575Y201528D01*
Y194736D01*
X371380D01*
X371369Y194734D01*
X368664Y197439D01*
X367404Y198281D01*
X365917Y198577D01*
X357516D01*
Y200740D01*
X338444D01*
Y188644D01*
X338444D01*
X337874Y186340D01*
X335210D01*
Y169260D01*
X337115D01*
Y165000D01*
X336217Y163905D01*
X322402D01*
X321771Y164849D01*
X319755Y166865D01*
Y199640D01*
X324910D01*
Y216578D01*
X325040Y219064D01*
X326971Y219064D01*
X336446D01*
X337654Y218274D01*
X338444Y217066D01*
Y205660D01*
X357516D01*
Y217756D01*
X351865D01*
Y224581D01*
X351569Y226067D01*
X351535Y226117D01*
X352454Y227709D01*
X352500Y227878D01*
X355513Y229310D01*
X356132Y229033D01*
X357326Y227246D01*
X359112Y226053D01*
X361220Y225634D01*
X369069D01*
X371177Y226053D01*
X372963Y227246D01*
X374157Y229033D01*
X374576Y231140D01*
X374215Y232954D01*
X375036Y234263D01*
X375881Y235239D01*
X376614Y235239D01*
X376614D01*
X376803Y235239D01*
X393481D01*
Y236756D01*
X400474D01*
X413317Y223913D01*
D02*
G37*
G36*
X308024Y224558D02*
X307888Y224422D01*
X306885Y224222D01*
X305625Y223380D01*
X302053Y219808D01*
X301211Y218548D01*
X300915Y217062D01*
Y198522D01*
X299341Y197614D01*
X297686Y195959D01*
X296516Y193931D01*
X295910Y191670D01*
Y189330D01*
X296516Y187069D01*
X297686Y185041D01*
X299341Y183386D01*
X299878Y183076D01*
Y180144D01*
X299341Y179834D01*
X297686Y178179D01*
X296516Y176151D01*
X295910Y173890D01*
Y171550D01*
X296516Y169289D01*
X297686Y167261D01*
X298929Y166019D01*
X299167Y164465D01*
X298929Y162911D01*
X297686Y161669D01*
X296516Y159641D01*
X295910Y157380D01*
Y155040D01*
X296380Y153284D01*
X282257Y139160D01*
X279910Y140132D01*
Y140720D01*
X272140D01*
Y130430D01*
X270870D01*
Y129160D01*
X261830D01*
Y123466D01*
X260936Y121296D01*
X259769Y121296D01*
X253743D01*
X253580Y121303D01*
X251250Y121610D01*
X251250D01*
Y141990D01*
X246094D01*
Y200910D01*
X251250D01*
Y221490D01*
X246455D01*
Y229531D01*
X250679Y233756D01*
X259870D01*
Y232410D01*
X265410D01*
Y231140D01*
X266680D01*
Y226850D01*
X270950D01*
X270950Y226850D01*
Y226850D01*
X271047Y226611D01*
X271116Y226439D01*
X272286Y224411D01*
X273938Y222760D01*
X273938Y222742D01*
X273254Y220220D01*
X272140D01*
Y211200D01*
X279910D01*
Y218700D01*
X280434Y220508D01*
X281979Y221357D01*
X282831Y221586D01*
X284859Y222756D01*
X286514Y224411D01*
X287684Y226439D01*
X288263Y228600D01*
X279400D01*
Y231140D01*
X288263D01*
X287684Y233301D01*
X286775Y234875D01*
X287312Y236435D01*
X288019Y237415D01*
X308024D01*
Y224558D01*
D02*
G37*
G36*
X403214Y216072D02*
Y209470D01*
X416792D01*
X419172Y207090D01*
X418120Y204550D01*
X403214D01*
Y204131D01*
X388177D01*
X386892Y206671D01*
X387350Y208380D01*
Y210720D01*
X386744Y212981D01*
X386391Y213594D01*
X387857Y216133D01*
X388080D01*
X390188Y216553D01*
X391974Y217746D01*
X391980Y217755D01*
X401531D01*
X403214Y216072D01*
D02*
G37*
G36*
X302926Y145250D02*
X302987Y145104D01*
X302691Y143617D01*
Y120115D01*
X289690Y107114D01*
X287150Y108166D01*
Y119070D01*
X285494D01*
Y131411D01*
X300034Y145950D01*
X302926Y145250D01*
D02*
G37*
G36*
X266570Y106990D02*
X285974D01*
X287026Y104450D01*
X282596Y100020D01*
X267510D01*
Y97865D01*
X258522D01*
Y102224D01*
X260936D01*
Y109145D01*
X266570D01*
Y106990D01*
D02*
G37*
G36*
X367173Y60403D02*
X369495Y58081D01*
Y39927D01*
X360123Y30555D01*
X356003D01*
X355094Y32129D01*
X354316Y32906D01*
X354426Y35631D01*
X354637Y36025D01*
X354709Y36066D01*
X356364Y37721D01*
X357534Y39749D01*
X358140Y42010D01*
Y44350D01*
X357548Y46560D01*
X357975Y47200D01*
X358370Y49182D01*
Y61460D01*
X366467D01*
X367173Y60403D01*
D02*
G37*
%LPC*%
G36*
X264140Y229870D02*
X259870D01*
Y226850D01*
X264140D01*
Y229870D01*
D02*
G37*
G36*
X269600Y220220D02*
X261830D01*
Y211200D01*
X269600D01*
Y220220D01*
D02*
G37*
G36*
X279910Y208660D02*
X272140D01*
Y199640D01*
X279910D01*
Y208660D01*
D02*
G37*
G36*
X269600D02*
X261830D01*
Y199640D01*
X269600D01*
Y208660D01*
D02*
G37*
G36*
X260250Y196850D02*
X257910D01*
X255649Y196244D01*
X253621Y195074D01*
X251966Y193419D01*
X250796Y191391D01*
X250190Y189130D01*
Y186790D01*
X250796Y184529D01*
X251966Y182501D01*
X253621Y180846D01*
X255649Y179676D01*
X257910Y179070D01*
X260250D01*
X262511Y179676D01*
X264539Y180846D01*
X266194Y182501D01*
X267364Y184529D01*
X267970Y186790D01*
Y189130D01*
X267364Y191391D01*
X266194Y193419D01*
X264539Y195074D01*
X262511Y196244D01*
X260250Y196850D01*
D02*
G37*
G36*
X269600Y140720D02*
X261830D01*
Y131700D01*
X269600D01*
Y140720D01*
D02*
G37*
%LPD*%
D14*
X350138Y90170D02*
D03*
X333122D02*
D03*
X314072Y228600D02*
D03*
X331088D02*
D03*
X402972Y90170D02*
D03*
X419988D02*
D03*
X237872Y111760D02*
D03*
X235458Y92900D02*
D03*
X254888Y111760D02*
D03*
X252474Y92900D02*
D03*
D15*
X347980Y211708D02*
D03*
Y194692D02*
D03*
X412750Y215518D02*
D03*
Y198502D02*
D03*
X445770Y214248D02*
D03*
Y197232D02*
D03*
D17*
X270870Y130430D02*
D03*
Y209930D02*
D03*
X197210Y131700D02*
D03*
Y211200D02*
D03*
X315870Y209930D02*
D03*
Y130430D02*
D03*
X242210Y131700D02*
D03*
Y211200D02*
D03*
D21*
X209550Y93340D02*
D03*
X190500D02*
D03*
X209550Y76840D02*
D03*
X190500D02*
D03*
D22*
X357500Y177800D02*
D03*
X341000D02*
D03*
D26*
X265410Y231140D02*
D03*
X461010Y88340D02*
D03*
Y56440D02*
D03*
X471170Y242010D02*
D03*
Y203760D02*
D03*
Y235510D02*
D03*
X265410Y237640D02*
D03*
X461010Y81840D02*
D03*
Y62940D02*
D03*
X471170Y210260D02*
D03*
D37*
X128270Y224790D02*
D03*
Y124790D02*
D03*
X519430Y75800D02*
D03*
X128270Y149790D02*
D03*
Y174790D02*
D03*
Y199790D02*
D03*
X519430Y50800D02*
D03*
D38*
X288290Y30480D02*
D03*
X213290D02*
D03*
X238290D02*
D03*
X263290D02*
D03*
D39*
X584200Y71120D02*
D03*
Y24120D02*
D03*
Y118120D02*
D03*
D40*
X500380Y236220D02*
D03*
Y210820D02*
D03*
D41*
X333990Y64000D02*
D03*
X420390D02*
D03*
D42*
X333990Y24000D02*
D03*
X420390D02*
D03*
D46*
X516062Y75800D02*
X519430D01*
X510022Y81840D02*
X516062Y75800D01*
X461010Y81840D02*
X510022D01*
X459760Y62940D02*
X483091D01*
X495231Y50800D01*
X519430D01*
X436880Y89256D02*
Y131208D01*
X406400Y107246D02*
Y141368D01*
Y107246D02*
X422226Y91420D01*
Y84444D02*
Y91420D01*
X436880Y89256D02*
X437773Y88363D01*
X420768Y147320D02*
X436880Y131208D01*
X406400Y141368D02*
X412352Y147320D01*
X430727Y75943D02*
X436880D01*
X419988Y86682D02*
X422094Y84576D01*
X422226Y84444D02*
X430727Y75943D01*
X455903Y56920D02*
X462740D01*
X412352Y147320D02*
X420768D01*
X419020Y82330D02*
Y86682D01*
X436880Y89256D02*
Y90170D01*
X460530Y88820D02*
X461010Y88340D01*
X438230Y88820D02*
X460530D01*
X426290Y86392D02*
Y127430D01*
X446514Y72057D02*
X450643D01*
X459760Y62940D01*
X416560Y137160D02*
X426290Y127430D01*
X438563Y80007D02*
X446514Y72057D01*
X436880Y75943D02*
X455903Y56920D01*
X432674Y80007D02*
X438563D01*
X426290Y86392D02*
X432674Y80007D01*
X373380Y59690D02*
X375831D01*
X373380D02*
X373380D01*
X314072Y225112D02*
Y228600D01*
X309593Y220633D02*
X314072Y225112D01*
X308372Y220633D02*
X309593D01*
X304800Y217062D02*
X308372Y220633D01*
X304800Y190500D02*
Y217062D01*
X190500Y93340D02*
X193250D01*
X195230Y95320D01*
Y102311D02*
X200660Y107741D01*
X209550Y93340D02*
Y101600D01*
X195230Y95320D02*
Y102311D01*
X200660Y110490D02*
X209550Y101600D01*
X200660Y107741D02*
Y110490D01*
X334090Y83600D02*
Y89202D01*
Y83600D02*
X345190Y72500D01*
X317500Y85090D02*
X331530D01*
X333122Y86682D02*
Y90170D01*
X331530Y85090D02*
X333122Y86682D01*
Y90170D02*
X334090Y89202D01*
X196784Y117115D02*
X200660Y113239D01*
X196784Y117115D02*
Y131274D01*
X200660Y110490D02*
Y113239D01*
X196784Y131274D02*
X197210Y131700D01*
X128270Y224790D02*
X141860Y211200D01*
X197210D01*
X270870Y130430D02*
Y209930D01*
X265410Y231140D02*
X265890Y230660D01*
X270870Y211180D02*
X276100Y216410D01*
Y223821D01*
X278610Y230660D02*
X279400Y229870D01*
X265890Y230660D02*
X278610D01*
X276100Y223821D02*
X279400Y227121D01*
Y229870D01*
X345190Y69750D02*
Y72500D01*
X409190Y69750D02*
Y72500D01*
X419020Y82330D01*
X357500Y146269D02*
X361950Y141819D01*
X357500Y146269D02*
Y152500D01*
X351230Y158770D02*
X357500Y152500D01*
Y177800D01*
X361950Y139070D02*
Y141819D01*
X351230Y158770D02*
Y160020D01*
X471170Y203760D02*
X472420D01*
X483140Y193040D01*
X520700D01*
Y231346D01*
X504904Y247142D02*
X520700Y231346D01*
X471170Y242010D02*
X486336D01*
X491468Y247142D01*
X504904D01*
X453923Y207946D02*
X471170Y225193D01*
X423810Y207946D02*
X453923D01*
X416238Y215518D02*
X423810Y207946D01*
X384156Y221640D02*
X403140D01*
X409262Y215518D01*
X416238D01*
X471170Y225193D02*
Y235510D01*
X500025Y235865D02*
X500380Y236220D01*
X471525Y235865D02*
X500025D01*
X471170Y235510D02*
X471525Y235865D01*
X341000Y165000D02*
Y180550D01*
Y165000D02*
X344730Y161270D01*
Y160020D02*
Y161270D01*
X347980Y187374D02*
Y193649D01*
X343136Y182530D02*
X347980Y187374D01*
X342980Y182530D02*
X343136D01*
X341000Y180550D02*
X342980Y182530D01*
X365917Y194692D02*
X371379Y189230D01*
X347980Y194692D02*
X365917D01*
X378460Y190700D02*
Y209550D01*
X376990Y189230D02*
X378460Y190700D01*
X371379Y189230D02*
X376990D01*
X315870Y165256D02*
X319024Y162102D01*
Y160020D02*
Y162102D01*
Y160020D02*
X344730D01*
X319024Y150318D02*
Y160020D01*
X315870Y130430D02*
Y147164D01*
X319024Y150318D01*
X315870Y165256D02*
Y209930D01*
X242210Y131700D02*
Y211200D01*
X361219Y231140D02*
X365144D01*
X351059Y241300D02*
X361219Y231140D01*
X270320Y241300D02*
X330200D01*
X266660Y237640D02*
X270320Y241300D01*
X249070Y237640D02*
X265410D01*
X242570Y231140D02*
X249070Y237640D01*
X242570Y211560D02*
Y231140D01*
X242210Y211200D02*
X242570Y211560D01*
X330200Y241300D02*
X351059D01*
X330200Y229488D02*
Y241300D01*
Y229488D02*
X331088Y228600D01*
X227139Y92900D02*
X235458D01*
X222924Y97116D02*
Y113626D01*
Y97116D02*
X227139Y92900D01*
X220980Y115570D02*
X222924Y113626D01*
X220980Y115570D02*
X235634D01*
X237872Y113332D01*
Y111760D02*
Y113332D01*
X344170Y228391D02*
X347980Y224581D01*
Y211708D02*
Y224581D01*
X344170Y228391D02*
Y231140D01*
X206800Y76840D02*
X209550D01*
X196887Y66927D02*
X206800Y76840D01*
X171720D02*
X206800D01*
X196887Y63747D02*
Y66927D01*
X191770Y58629D02*
X196887Y63747D01*
X191770Y55880D02*
Y58629D01*
X171590Y76970D02*
X171720Y76840D01*
X347980Y26670D02*
X361732D01*
X373380Y38318D01*
X374704Y25004D02*
X386334Y36635D01*
X359012Y11430D02*
X372586Y25004D01*
X346710Y11430D02*
X359012D01*
X372586Y25004D02*
X374704D01*
X380574Y80010D02*
X382290Y78294D01*
X382347D02*
X384460Y76181D01*
X394584Y78294D02*
X402972Y86682D01*
X382290Y78294D02*
X382347D01*
X392033D02*
X394584D01*
X402972Y86682D02*
Y90170D01*
X378460Y80010D02*
X380574D01*
X389920Y69980D02*
Y76181D01*
X392033Y78294D01*
X334010Y143510D02*
X359410Y118110D01*
X368830D01*
X373380Y38318D02*
Y59690D01*
X384690Y56579D02*
Y69750D01*
Y56579D02*
X386334Y54935D01*
X375831Y59690D02*
X379460Y63318D01*
X386334Y36635D02*
Y54935D01*
X369920Y63150D02*
X373380Y59690D01*
X369920Y63150D02*
Y69520D01*
X369690Y69750D02*
X369920Y69520D01*
X379460Y63318D02*
Y69520D01*
X379690Y69750D01*
X384460Y69980D02*
X384690Y69750D01*
X252474Y92900D02*
X253554Y93980D01*
X273050D01*
X254888Y111760D02*
X256158Y113030D01*
X272110D01*
X282550Y93980D02*
Y94480D01*
X306576Y118506D01*
Y143617D01*
X314960Y152002D01*
Y160418D01*
X304800Y170578D02*
X314960Y160418D01*
X304800Y170578D02*
Y172720D01*
X281610Y133020D02*
X304800Y156210D01*
X281610Y113030D02*
Y133020D01*
X368830Y118110D02*
X404390Y153670D01*
X447040D01*
X455088Y198548D02*
X466320Y209780D01*
X470690D01*
X447086Y198548D02*
X455088D01*
X445770Y197232D02*
X447086Y198548D01*
X428628Y197232D02*
X445770D01*
X500100Y210540D02*
X500380Y210820D01*
X471450Y210540D02*
X500100D01*
X470690Y209780D02*
X471450Y210540D01*
X394316Y179730D02*
X411126D01*
X428628Y197232D01*
X384156Y240640D02*
X402083D01*
X428475Y214248D01*
X445770D01*
X394316Y198730D02*
X394430Y198616D01*
X412636D01*
X412750Y198502D01*
X401190Y69750D02*
X401255Y69685D01*
Y11495D02*
X401320Y11430D01*
X401255Y11495D02*
Y69685D01*
X350138Y86682D02*
Y90170D01*
Y86682D02*
X359460Y77360D01*
Y69980D02*
Y77360D01*
Y69980D02*
X359690Y69750D01*
X389690D02*
X389920Y69980D01*
X384460D02*
Y76181D01*
X374920Y73930D02*
Y76470D01*
X378460Y80010D01*
X374460Y69520D02*
X374690Y69750D01*
X374650Y73660D02*
X374920Y73930D01*
D47*
X148590Y14470D02*
Y74430D01*
Y14470D02*
X171950D01*
X186086Y28606D01*
Y34320D01*
X187544Y35778D01*
X182018Y85249D02*
X220550D01*
X177442Y89784D02*
X177484D01*
X166896Y100330D02*
X177442Y89784D01*
X177484D02*
X182018Y85249D01*
X220550D02*
X225789Y80010D01*
X38100Y100330D02*
X166896D01*
X26670Y88900D02*
X38100Y100330D01*
X225789Y80010D02*
X231140D01*
X240414Y70736D01*
X279119D01*
X123630Y79915D02*
X125590Y77955D01*
X106680Y86701D02*
Y87630D01*
Y86701D02*
X113466Y79915D01*
X123630D01*
X125590Y76970D02*
Y77955D01*
X306676Y43180D02*
X349250D01*
X279119Y70736D02*
X306676Y43180D01*
X349250D02*
Y45242D01*
X353190Y49182D02*
Y69750D01*
X349250Y45242D02*
X353190Y49182D01*
D48*
X521970Y119380D02*
D03*
Y144780D02*
D03*
D49*
Y170180D02*
D03*
D50*
X15240Y45720D02*
D03*
X618490Y204470D02*
D03*
X58420D02*
D03*
D51*
X539750Y127000D02*
D03*
X462280Y161290D02*
D03*
X304800Y190500D02*
D03*
X200660Y110490D02*
D03*
X313690Y30480D02*
D03*
X317500Y85090D02*
D03*
X226060Y152400D02*
D03*
X217170Y207010D02*
D03*
X279400Y229870D02*
D03*
X375920Y13970D02*
D03*
X361950Y139070D02*
D03*
X436880Y90170D02*
D03*
X473710Y7620D02*
D03*
X614960Y158370D02*
D03*
X520700Y193040D02*
D03*
X614960Y237870D02*
D03*
X187544Y35778D02*
D03*
X378460Y209550D02*
D03*
X275590Y57150D02*
D03*
X220980Y115570D02*
D03*
X344170Y231140D02*
D03*
X201930Y238760D02*
D03*
X191770Y55880D02*
D03*
X106680Y87630D02*
D03*
X349250Y43180D02*
D03*
X347980Y26670D02*
D03*
X346710Y11430D02*
D03*
X387350Y87630D02*
D03*
X228600Y187960D02*
D03*
X259080D02*
D03*
X334010Y143510D02*
D03*
X304800Y156210D02*
D03*
Y172720D02*
D03*
X416560Y137160D02*
D03*
X447040Y153670D02*
D03*
X26670Y88900D02*
D03*
X401320Y11430D02*
D03*
D67*
X409190Y69750D02*
D03*
X345190D02*
D03*
X353190D02*
D03*
X401190D02*
D03*
D68*
X148590Y14470D02*
D03*
D69*
Y76970D02*
D03*
X171590D02*
D03*
X125590D02*
D03*
D70*
X351230Y160020D02*
D03*
X344730D02*
D03*
D71*
X384156Y221640D02*
D03*
X375304Y189230D02*
D03*
X365145Y231140D02*
D03*
X394315Y179730D02*
D03*
D72*
Y198730D02*
D03*
X384156Y240640D02*
D03*
D73*
X394690Y69750D02*
D03*
X389690D02*
D03*
X384690D02*
D03*
X379690D02*
D03*
X374690D02*
D03*
X369690D02*
D03*
X364690D02*
D03*
X359690D02*
D03*
D74*
X272110Y113030D02*
D03*
X281610D02*
D03*
X273050Y93980D02*
D03*
X282550D02*
D03*
M02*
