G04*
G04 #@! TF.GenerationSoftware,Altium Limited,Altium Designer,26.3.0 (6)*
G04*
G04 Layer_Physical_Order=1*
G04 Layer_Color=255*
%FSLAX44Y44*%
%MOMM*%
G71*
G04*
G04 #@! TF.SameCoordinates,9F17CBEB-97C6-4A76-B5D1-3E1F46C8A7B1*
G04*
G04*
G04 #@! TF.FilePolarity,Positive*
G04*
G01*
G75*
%ADD14R,0.7016X1.3992*%
%ADD15R,1.3992X0.7016*%
%ADD16R,0.8000X0.4000*%
%ADD17R,1.3000X1.5500*%
%ADD18R,0.8000X0.8000*%
%ADD19R,1.2000X1.2000*%
%ADD20R,0.4000X0.8000*%
%ADD21R,1.2000X0.6500*%
%ADD22R,0.6500X1.2000*%
%ADD23R,0.5588X0.9779*%
%ADD24R,0.9779X0.5588*%
%ADD25R,0.7000X0.6000*%
%ADD26R,0.6000X0.3500*%
%ADD27R,1.2575X0.7025*%
G04:AMPARAMS|DCode=28|XSize=1.2575mm|YSize=0.7025mm|CornerRadius=0.3512mm|HoleSize=0mm|Usage=FLASHONLY|Rotation=180.000|XOffset=0mm|YOffset=0mm|HoleType=Round|Shape=RoundedRectangle|*
%AMROUNDEDRECTD28*
21,1,1.2575,0.0000,0,0,180.0*
21,1,0.5550,0.7025,0,0,180.0*
1,1,0.7025,-0.2775,0.0000*
1,1,0.7025,0.2775,0.0000*
1,1,0.7025,0.2775,0.0000*
1,1,0.7025,-0.2775,0.0000*
%
%ADD28ROUNDEDRECTD28*%
%ADD37C,1.4986*%
%ADD38C,1.7526*%
%ADD39C,2.0320*%
%ADD40C,1.4224*%
G04:AMPARAMS|DCode=41|XSize=1mm|YSize=1.8mm|CornerRadius=0.5mm|HoleSize=0mm|Usage=FLASHONLY|Rotation=180.000|XOffset=0mm|YOffset=0mm|HoleType=Round|Shape=RoundedRectangle|*
%AMROUNDEDRECTD41*
21,1,1.0000,0.8000,0,0,180.0*
21,1,0.0000,1.8000,0,0,180.0*
1,1,1.0000,0.0000,0.4000*
1,1,1.0000,0.0000,0.4000*
1,1,1.0000,0.0000,-0.4000*
1,1,1.0000,0.0000,-0.4000*
%
%ADD41ROUNDEDRECTD41*%
G04:AMPARAMS|DCode=42|XSize=1mm|YSize=2.2mm|CornerRadius=0.5mm|HoleSize=0mm|Usage=FLASHONLY|Rotation=180.000|XOffset=0mm|YOffset=0mm|HoleType=Round|Shape=RoundedRectangle|*
%AMROUNDEDRECTD42*
21,1,1.0000,1.2000,0,0,180.0*
21,1,0.0000,2.2000,0,0,180.0*
1,1,1.0000,0.0000,0.6000*
1,1,1.0000,0.0000,0.6000*
1,1,1.0000,0.0000,-0.6000*
1,1,1.0000,0.0000,-0.6000*
%
%ADD42ROUNDEDRECTD42*%
%ADD45R,0.4000X0.4000*%
%ADD46C,0.2540*%
%ADD47C,0.5080*%
%ADD48C,1.6000*%
G04:AMPARAMS|DCode=49|XSize=1.6mm|YSize=1.6mm|CornerRadius=0.4mm|HoleSize=0mm|Usage=FLASHONLY|Rotation=270.000|XOffset=0mm|YOffset=0mm|HoleType=Round|Shape=RoundedRectangle|*
%AMROUNDEDRECTD49*
21,1,1.6000,0.8000,0,0,270.0*
21,1,0.8000,1.6000,0,0,270.0*
1,1,0.8000,-0.4000,-0.4000*
1,1,0.8000,-0.4000,0.4000*
1,1,0.8000,0.4000,0.4000*
1,1,0.8000,0.4000,-0.4000*
%
%ADD49ROUNDEDRECTD49*%
%ADD50C,1.5240*%
%ADD51C,1.2700*%
G36*
X282515Y254271D02*
X282557Y254059D01*
X283119Y253219D01*
X283959Y252657D01*
X284950Y252460D01*
X285410D01*
Y249070D01*
X291950D01*
Y246530D01*
X285410D01*
Y239598D01*
X282870Y238132D01*
X282831Y238154D01*
X280670Y238733D01*
Y229870D01*
X279400D01*
Y228600D01*
X270537D01*
X271116Y226439D01*
X271479Y225810D01*
X270012Y223270D01*
X266350D01*
Y225490D01*
X249579D01*
X249270Y225490D01*
Y225490D01*
X247300Y224860D01*
X247300Y224860D01*
X230220D01*
Y222955D01*
X223229D01*
X210350Y235834D01*
X210820Y237590D01*
Y239930D01*
X210214Y242191D01*
X209044Y244219D01*
X207389Y245874D01*
X205361Y247044D01*
X203100Y247650D01*
X200760D01*
X198499Y247044D01*
X196471Y245874D01*
X194816Y244219D01*
X193646Y242191D01*
X193040Y239930D01*
Y237590D01*
X193646Y235329D01*
X194816Y233301D01*
X196471Y231646D01*
X198499Y230476D01*
X200760Y229870D01*
X203100D01*
X204856Y230340D01*
X216756Y218440D01*
X216216Y216626D01*
X215767Y215838D01*
X213739Y215294D01*
X211711Y214124D01*
X210056Y212469D01*
X208886Y210441D01*
X208307Y208280D01*
X226033D01*
X225454Y210441D01*
X224284Y212469D01*
X224107Y212645D01*
X225159Y215185D01*
X230220D01*
Y213280D01*
X246991D01*
X247300Y213280D01*
Y213280D01*
X249270Y213910D01*
X249270Y213910D01*
X266350D01*
Y215500D01*
X284553D01*
X285410Y214797D01*
Y207260D01*
Y198760D01*
Y190260D01*
Y181685D01*
X270849D01*
X267500Y185034D01*
X267970Y186790D01*
Y189130D01*
X267364Y191391D01*
X266194Y193419D01*
X264742Y194870D01*
X264844Y195763D01*
X265572Y197410D01*
X266350D01*
Y201930D01*
X257810D01*
Y203200D01*
X256540D01*
Y208990D01*
X249579D01*
X249270Y208990D01*
X246991Y208360D01*
X246730Y208360D01*
X240030D01*
Y202570D01*
Y196780D01*
X246991D01*
X247300Y196780D01*
X249579Y197410D01*
X249840Y197410D01*
X252588D01*
X253316Y195763D01*
X253418Y194870D01*
X251966Y193419D01*
X250796Y191391D01*
X250190Y189130D01*
Y186790D01*
X250796Y184529D01*
X251966Y182501D01*
X253621Y180846D01*
X255649Y179676D01*
X257910Y179070D01*
X260250D01*
X262006Y179540D01*
X265821Y175725D01*
X264872Y173185D01*
X248869D01*
X237020Y185034D01*
X237490Y186790D01*
Y189130D01*
X236884Y191391D01*
X235714Y193419D01*
X234892Y194240D01*
X235944Y196780D01*
X237490D01*
Y201300D01*
X230220D01*
Y199276D01*
X229770Y196850D01*
X227430Y196850D01*
X225169Y196244D01*
X223141Y195074D01*
X221486Y193419D01*
X220316Y191391D01*
X220225Y191052D01*
X217392Y190293D01*
X213018Y194667D01*
X211758Y195509D01*
X210271Y195805D01*
X188420D01*
Y196210D01*
X177340D01*
Y195805D01*
X140219D01*
X138270Y198345D01*
X138303Y198469D01*
Y201111D01*
X137619Y203663D01*
X136298Y205951D01*
X134430Y207819D01*
X132143Y209139D01*
X129591Y209823D01*
X126949D01*
X124397Y209139D01*
X122110Y207819D01*
X120242Y205951D01*
X118921Y203663D01*
X118237Y201111D01*
Y198469D01*
X118921Y195917D01*
X120242Y193630D01*
X122110Y191762D01*
X124397Y190441D01*
X126949Y189757D01*
X129591D01*
X132143Y190441D01*
X132287Y190524D01*
X133638Y189174D01*
X134898Y188331D01*
X136385Y188036D01*
X177340D01*
Y186690D01*
X182880D01*
X188420D01*
Y188036D01*
X208662D01*
X227907Y168791D01*
X226935Y166445D01*
X214122D01*
Y168504D01*
X199263D01*
Y157836D01*
Y154940D01*
X206693D01*
X214122D01*
Y156743D01*
X216012Y158439D01*
X216662Y158369D01*
X217951Y156135D01*
X217776Y155831D01*
X217197Y153670D01*
X226060D01*
Y152400D01*
X227330D01*
Y143537D01*
X229491Y144116D01*
X231519Y145286D01*
X233174Y146941D01*
X234344Y148969D01*
X234435Y149308D01*
X234855Y149651D01*
X237333Y150308D01*
X237672Y150081D01*
X239158Y149785D01*
X244906D01*
Y144134D01*
X257002D01*
Y161352D01*
X261922D01*
Y144134D01*
X270878D01*
X271930Y141594D01*
X266872Y136536D01*
X260270D01*
Y117464D01*
X272366D01*
Y131042D01*
X281239Y139915D01*
X285410D01*
Y130760D01*
Y122260D01*
Y113760D01*
Y109070D01*
X291950D01*
Y106530D01*
X285410D01*
Y104891D01*
X251224D01*
X251158Y104935D01*
X249671Y105231D01*
X232269D01*
X230782Y104935D01*
X229522Y104093D01*
X227885Y102456D01*
X227806Y102338D01*
X226560Y101092D01*
X221386D01*
Y86233D01*
X234950D01*
Y93663D01*
X237490D01*
Y86233D01*
X251054D01*
Y91365D01*
X276502D01*
X278814Y90816D01*
X278814Y88825D01*
Y71744D01*
X280977D01*
Y68031D01*
X278516Y65570D01*
X276760Y66040D01*
X274420D01*
X272159Y65434D01*
X270131Y64264D01*
X268476Y62609D01*
X267306Y60581D01*
X266700Y58320D01*
Y55980D01*
X267306Y53719D01*
X268476Y51691D01*
X270131Y50036D01*
X272159Y48866D01*
X274420Y48260D01*
X276760D01*
X279021Y48866D01*
X281049Y50036D01*
X282704Y51691D01*
X283874Y53719D01*
X284480Y55980D01*
Y58320D01*
X284010Y60076D01*
X287609Y63675D01*
X288451Y64935D01*
X288600Y65685D01*
X291140Y65434D01*
Y57960D01*
Y55270D01*
X297180D01*
X303220D01*
Y57960D01*
Y63546D01*
X304215Y64542D01*
X306694Y64690D01*
X306694Y64690D01*
X325766D01*
X326385Y62406D01*
Y62054D01*
X325814Y59947D01*
X323894Y59770D01*
X317500D01*
Y53722D01*
Y47674D01*
X325766D01*
Y54159D01*
X328306Y55022D01*
X328612Y54622D01*
X330187Y53414D01*
X332022Y52654D01*
X333990Y52395D01*
X335958Y52654D01*
X337793Y53414D01*
X339368Y54622D01*
X340576Y56198D01*
X341336Y58032D01*
X341595Y60000D01*
Y68000D01*
X341336Y69968D01*
X340576Y71803D01*
X339368Y73378D01*
X337793Y74586D01*
X335958Y75346D01*
X333990Y75605D01*
X332022Y75346D01*
X330187Y74586D01*
X329934Y74392D01*
X328772Y74623D01*
X325766D01*
Y76786D01*
X325360D01*
X324308Y79326D01*
X324614Y79631D01*
X325784Y81659D01*
X326363Y83820D01*
X317500D01*
Y86360D01*
X326363D01*
X325784Y88521D01*
X325609Y88825D01*
X327075Y91365D01*
X342900D01*
X344387Y91661D01*
X345647Y92503D01*
X350727Y97583D01*
X350727Y97583D01*
X354404Y101260D01*
X358065D01*
Y62128D01*
X358361Y60641D01*
X359203Y59381D01*
X361086Y57498D01*
Y49131D01*
X358888Y47308D01*
X356962Y47602D01*
X356364Y48639D01*
X354709Y50294D01*
X352681Y51464D01*
X350420Y52070D01*
X348080D01*
X345819Y51464D01*
X343791Y50294D01*
X342136Y48639D01*
X340966Y46611D01*
X340360Y44350D01*
Y42010D01*
X340966Y39749D01*
X342136Y37721D01*
X341132Y35141D01*
X340276Y34580D01*
X339869Y34724D01*
X339368Y35378D01*
X337793Y36586D01*
X335958Y37346D01*
X333990Y37605D01*
X332022Y37346D01*
X330187Y36586D01*
X328612Y35378D01*
X327404Y33802D01*
X326644Y31968D01*
X326385Y30000D01*
Y19423D01*
X325706Y18927D01*
X323166Y19696D01*
Y19696D01*
X317606D01*
X317121Y22196D01*
X319149Y23366D01*
X320804Y25021D01*
X321974Y27049D01*
X322553Y29210D01*
X304827D01*
X305406Y27049D01*
X306576Y25021D01*
X308231Y23366D01*
X310259Y22196D01*
X310692Y22080D01*
X311070Y19696D01*
X311070Y19349D01*
Y624D01*
X308789Y0D01*
X308431D01*
X306150Y624D01*
X306150Y2540D01*
Y8890D01*
X300102D01*
X294054D01*
Y2540D01*
X294054Y624D01*
X291772Y0D01*
X0D01*
Y36525D01*
X2540Y37296D01*
X3402Y36005D01*
X5525Y33882D01*
X8021Y32215D01*
X10795Y31066D01*
X13739Y30480D01*
X16741D01*
X19685Y31066D01*
X22459Y32215D01*
X24955Y33882D01*
X27078Y36005D01*
X28746Y38501D01*
X29894Y41275D01*
X30480Y44219D01*
Y47221D01*
X29894Y50165D01*
X28746Y52939D01*
X27078Y55435D01*
X24955Y57558D01*
X22459Y59226D01*
X19685Y60374D01*
X16741Y60960D01*
X13739D01*
X10795Y60374D01*
X8021Y59226D01*
X5525Y57558D01*
X3402Y55435D01*
X2540Y54144D01*
X0Y54915D01*
Y253073D01*
X1798Y254867D01*
X282515Y254271D01*
D02*
G37*
G36*
X633606Y253526D02*
X633625Y213821D01*
X631086Y213050D01*
X630328Y214185D01*
X628205Y216308D01*
X625709Y217976D01*
X622935Y219124D01*
X619991Y219710D01*
X616989D01*
X614045Y219124D01*
X611271Y217976D01*
X608775Y216308D01*
X606652Y214185D01*
X604985Y211689D01*
X603836Y208915D01*
X603250Y205971D01*
Y202969D01*
X603836Y200025D01*
X604985Y197251D01*
X606652Y194755D01*
X608775Y192632D01*
X611271Y190965D01*
X614045Y189816D01*
X616989Y189230D01*
X619991D01*
X622935Y189816D01*
X625709Y190965D01*
X628205Y192632D01*
X630328Y194755D01*
X631094Y195902D01*
X633635Y195132D01*
X633729Y1796D01*
X631934Y0D01*
X482254D01*
X481488Y1157D01*
X481042Y2540D01*
X481994Y4189D01*
X482573Y6350D01*
X464847D01*
X465426Y4189D01*
X466378Y2540D01*
X465932Y1157D01*
X465165Y0D01*
X325448D01*
X323166Y624D01*
Y6275D01*
X324132D01*
X325618Y6571D01*
X326878Y7413D01*
X330676Y11211D01*
X332022Y10654D01*
X333990Y10395D01*
X335280Y10565D01*
X336205Y10453D01*
X338202Y8834D01*
X338426Y7999D01*
X339596Y5971D01*
X341251Y4316D01*
X343279Y3146D01*
X345540Y2540D01*
X347880D01*
X350141Y3146D01*
X352169Y4316D01*
X353824Y5971D01*
X354994Y7999D01*
X355550Y10073D01*
X356379Y10627D01*
X364832Y19081D01*
X365607Y18967D01*
X365986Y18675D01*
X367301Y16153D01*
X367057Y15240D01*
X384783D01*
X384204Y17401D01*
X383692Y18288D01*
X385065Y20828D01*
X390754D01*
Y25746D01*
X393101Y26718D01*
X397435Y22383D01*
Y19453D01*
X395861Y18544D01*
X394206Y16889D01*
X393036Y14861D01*
X392430Y12600D01*
Y10260D01*
X393036Y7999D01*
X394206Y5971D01*
X395861Y4316D01*
X397889Y3146D01*
X400150Y2540D01*
X402490D01*
X404751Y3146D01*
X406779Y4316D01*
X408434Y5971D01*
X409604Y7999D01*
X410210Y10260D01*
Y12600D01*
X409604Y14861D01*
X408434Y16889D01*
X406779Y18544D01*
X405205Y19453D01*
Y23992D01*
X404909Y25479D01*
X404067Y26739D01*
X398718Y32088D01*
X399199Y32808D01*
X399495Y34295D01*
Y37180D01*
X410290D01*
Y54260D01*
X398710D01*
Y50774D01*
X396156D01*
X395117Y51468D01*
X393630Y51764D01*
X390754D01*
Y62992D01*
X387558D01*
X387485Y63361D01*
X386643Y64621D01*
X375065Y76199D01*
Y101260D01*
X383515D01*
Y95681D01*
X381891Y94744D01*
X380236Y93089D01*
X379066Y91061D01*
X378460Y88800D01*
Y86460D01*
X379066Y84199D01*
X380236Y82171D01*
X381891Y80516D01*
X383919Y79346D01*
X386180Y78740D01*
X388520D01*
X390781Y79346D01*
X392809Y80516D01*
X394464Y82171D01*
X395634Y84199D01*
X396240Y86460D01*
Y88800D01*
X395634Y91061D01*
X394464Y93089D01*
X392809Y94744D01*
X391285Y95624D01*
Y101260D01*
X430680D01*
Y107800D01*
X433220D01*
Y101260D01*
X434106D01*
X434441Y98720D01*
X433449Y98454D01*
X431421Y97284D01*
X429766Y95629D01*
X428596Y93601D01*
X428017Y91440D01*
X436880D01*
Y88900D01*
X428017D01*
X428596Y86739D01*
X429766Y84711D01*
X430072Y84406D01*
X429020Y81866D01*
X427344D01*
Y75340D01*
X424804Y74117D01*
X424193Y74586D01*
X422358Y75346D01*
X420390Y75605D01*
X418422Y75346D01*
X416587Y74586D01*
X415012Y73378D01*
X413804Y71803D01*
X413044Y69968D01*
X412785Y68000D01*
Y60000D01*
X413044Y58032D01*
X413804Y56198D01*
X415210Y54260D01*
Y46990D01*
X421000D01*
X426790D01*
Y50444D01*
X427344Y52754D01*
X428706Y52754D01*
X446416D01*
Y52754D01*
X448105Y53453D01*
X451474Y50084D01*
Y43482D01*
X465052D01*
X468101Y40433D01*
X469361Y39591D01*
X470848Y39295D01*
X490145D01*
Y32940D01*
X488490D01*
Y24360D01*
Y23420D01*
X494030D01*
X499570D01*
Y24765D01*
X531759D01*
X535151Y21373D01*
X536412Y20531D01*
X537898Y20235D01*
X572093D01*
X572365Y19218D01*
X574038Y16322D01*
X576402Y13958D01*
X579298Y12285D01*
X582528Y11420D01*
X585872D01*
X589102Y12285D01*
X591998Y13958D01*
X594362Y16322D01*
X596035Y19218D01*
X596900Y22448D01*
Y25792D01*
X596035Y29022D01*
X594362Y31918D01*
X591998Y34283D01*
X589102Y35954D01*
X585872Y36820D01*
X582528D01*
X579298Y35954D01*
X576402Y34283D01*
X574038Y31918D01*
X572365Y29022D01*
X572093Y28005D01*
X539507D01*
X536115Y31397D01*
X534855Y32239D01*
X533368Y32535D01*
X499570D01*
Y32940D01*
X497915D01*
Y43180D01*
X497619Y44667D01*
X496777Y45927D01*
X495517Y46769D01*
X494030Y47065D01*
X472457D01*
X470546Y48976D01*
Y55578D01*
X456968D01*
X454394Y58151D01*
X455366Y60498D01*
X470546D01*
Y62661D01*
X510176D01*
X511663Y62957D01*
X512923Y63799D01*
X515571Y66447D01*
X518109Y65767D01*
X520751D01*
X523303Y66451D01*
X525590Y67772D01*
X527458Y69640D01*
X528779Y71927D01*
X529463Y74479D01*
Y77121D01*
X528779Y79673D01*
X527458Y81960D01*
X525590Y83828D01*
X523303Y85149D01*
X520751Y85833D01*
X518109D01*
X515557Y85149D01*
X513270Y83828D01*
X511402Y81960D01*
X510081Y79673D01*
X509397Y77121D01*
Y74479D01*
X509955Y72396D01*
X508278Y70431D01*
X470546D01*
Y72594D01*
X464895D01*
Y93394D01*
X470546D01*
Y105490D01*
X451474D01*
X450114Y107467D01*
X449787Y107957D01*
X439797Y117946D01*
X439947Y118697D01*
X442703Y119533D01*
X447457Y114779D01*
X448717Y113937D01*
X450204Y113641D01*
X451474D01*
Y110410D01*
X470546D01*
Y112573D01*
X476747D01*
X478234Y112869D01*
X479201Y113515D01*
X483410D01*
Y113110D01*
X488996D01*
X497283Y104823D01*
X498543Y103981D01*
X500030Y103685D01*
X534434D01*
X535921Y103981D01*
X537181Y104823D01*
X546593Y114235D01*
X572093D01*
X572365Y113218D01*
X574038Y110322D01*
X576402Y107957D01*
X579298Y106285D01*
X582528Y105420D01*
X585872D01*
X589102Y106285D01*
X591998Y107957D01*
X594362Y110322D01*
X596035Y113218D01*
X596900Y116448D01*
Y119792D01*
X596035Y123022D01*
X594362Y125918D01*
X591998Y128282D01*
X589102Y129955D01*
X585872Y130820D01*
X582528D01*
X579298Y129955D01*
X576402Y128282D01*
X574038Y125918D01*
X572365Y123022D01*
X572093Y122005D01*
X549792D01*
X548296Y124545D01*
X548613Y125730D01*
X539750D01*
Y127000D01*
X538480D01*
Y136377D01*
X537989Y136994D01*
X537921Y137120D01*
X537565Y138248D01*
X538270Y139302D01*
X538565Y140789D01*
Y142462D01*
X544184Y148080D01*
X556770D01*
Y168660D01*
X551615D01*
Y227580D01*
X556770D01*
Y248160D01*
X538690D01*
Y227580D01*
X543845D01*
Y168660D01*
X538690D01*
Y153574D01*
X534136Y149020D01*
X531272Y149748D01*
X530404Y151252D01*
X528442Y153214D01*
X526038Y154602D01*
X523358Y155320D01*
X520582D01*
X517902Y154602D01*
X515498Y153214D01*
X513536Y151252D01*
X510837Y151396D01*
X498477Y163755D01*
X499529Y166295D01*
X511374D01*
Y166180D01*
X511598Y164473D01*
X512257Y162882D01*
X513306Y161516D01*
X514672Y160467D01*
X516263Y159808D01*
X517970Y159584D01*
X525970D01*
X527677Y159808D01*
X529268Y160467D01*
X530634Y161516D01*
X531683Y162882D01*
X532342Y164473D01*
X532566Y166180D01*
Y174180D01*
X532342Y175887D01*
X531683Y177478D01*
X530634Y178844D01*
X529268Y179893D01*
X527677Y180552D01*
X525970Y180776D01*
X517970D01*
X516263Y180552D01*
X514672Y179893D01*
X513306Y178844D01*
X512257Y177478D01*
X511598Y175887D01*
X511374Y174180D01*
Y174065D01*
X496889D01*
X491950Y179004D01*
Y183030D01*
X486410D01*
X480870D01*
Y181685D01*
X452559D01*
X438490Y195754D01*
Y207260D01*
Y210530D01*
X425410D01*
Y207260D01*
Y198760D01*
Y190260D01*
Y181760D01*
Y173260D01*
Y164760D01*
Y156260D01*
Y147685D01*
X424140D01*
X422653Y147389D01*
X421393Y146547D01*
X420181Y145335D01*
X419991Y145444D01*
X417730Y146050D01*
X415390D01*
X413129Y145444D01*
X411101Y144274D01*
X409446Y142619D01*
X408276Y140591D01*
X407670Y138330D01*
Y135990D01*
X408276Y133729D01*
X409446Y131701D01*
X411101Y130046D01*
X413129Y128876D01*
X415390Y128270D01*
X417730D01*
X419991Y128876D01*
X422019Y130046D01*
X422870Y130898D01*
X423214Y130879D01*
X425410Y129846D01*
Y122260D01*
Y114340D01*
X334121D01*
X333977Y114524D01*
X333194Y116880D01*
X336757Y120443D01*
X337599Y121703D01*
X337895Y123190D01*
Y135487D01*
X339469Y136396D01*
X341124Y138051D01*
X342294Y140079D01*
X342900Y142340D01*
Y144680D01*
X342294Y146941D01*
X341124Y148969D01*
X339872Y150220D01*
X340246Y151884D01*
X340787Y152760D01*
X344180D01*
Y160030D01*
X336910D01*
Y154566D01*
X335271Y152513D01*
X334519Y152400D01*
X332840D01*
X330579Y151794D01*
X328551Y150624D01*
X326896Y148969D01*
X325726Y146941D01*
X325120Y144680D01*
Y142340D01*
X325726Y140079D01*
X326896Y138051D01*
X328551Y136396D01*
X330125Y135487D01*
Y124799D01*
X328241Y122915D01*
X298490D01*
Y125846D01*
X317707Y145063D01*
X318549Y146323D01*
X318845Y147810D01*
Y162560D01*
X318549Y164047D01*
X317707Y165307D01*
X313220Y169794D01*
X313690Y171550D01*
Y173890D01*
X313084Y176151D01*
X311914Y178179D01*
X310259Y179834D01*
X309722Y180144D01*
Y183076D01*
X310259Y183386D01*
X311914Y185041D01*
X313084Y187069D01*
X313690Y189330D01*
Y191670D01*
X313084Y193931D01*
X311914Y195959D01*
X310259Y197614D01*
X308685Y198522D01*
Y200950D01*
X308389Y202437D01*
X307547Y203697D01*
X298490Y212754D01*
Y224260D01*
Y227530D01*
X291950D01*
Y230070D01*
X298490D01*
Y232760D01*
Y236030D01*
X291950D01*
Y238570D01*
X298490D01*
Y241260D01*
X301180D01*
Y247800D01*
X303720D01*
Y241260D01*
X309680D01*
Y247800D01*
X312220D01*
Y241260D01*
X318180D01*
Y247800D01*
X320720D01*
Y241260D01*
X326680D01*
Y247800D01*
X329220D01*
Y241260D01*
X335180D01*
Y247800D01*
X337720D01*
Y241260D01*
X338838D01*
X339519Y238720D01*
X338711Y238254D01*
X337056Y236599D01*
X335886Y234571D01*
X335280Y232310D01*
Y229970D01*
X335886Y227709D01*
X337056Y225681D01*
X338711Y224026D01*
X340739Y222856D01*
X343000Y222250D01*
X345340D01*
X347601Y222856D01*
X349629Y224026D01*
X351284Y225681D01*
X352454Y227709D01*
X353060Y229970D01*
Y232310D01*
X352454Y234571D01*
X351284Y236599D01*
X349629Y238254D01*
X348821Y238720D01*
X349502Y241260D01*
X352180D01*
Y247800D01*
X354720D01*
Y241260D01*
X360680D01*
Y247800D01*
X363220D01*
Y241260D01*
X369180D01*
Y247800D01*
X371720D01*
Y241260D01*
X377680D01*
Y247800D01*
X380220D01*
Y241260D01*
X386180D01*
Y247800D01*
X388720D01*
Y241260D01*
X394680D01*
Y247800D01*
X397220D01*
Y241260D01*
X402460D01*
X403512Y238720D01*
X382357Y217565D01*
X381891Y217834D01*
X379630Y218440D01*
X377290D01*
X375029Y217834D01*
X373001Y216664D01*
X371346Y215009D01*
X370176Y212981D01*
X369570Y210720D01*
Y208380D01*
X370176Y206119D01*
X370602Y205380D01*
X369136Y202840D01*
X363220D01*
Y194300D01*
X361950D01*
Y193030D01*
X353410D01*
Y186340D01*
X346720D01*
Y177800D01*
X345450D01*
Y176530D01*
X336910D01*
Y169260D01*
Y162570D01*
X345450D01*
Y161300D01*
X346720D01*
Y152760D01*
X360680D01*
Y161300D01*
X363220D01*
Y152760D01*
X377180D01*
Y161300D01*
X378450D01*
Y162570D01*
X386990D01*
Y169260D01*
Y176530D01*
X378450D01*
Y179070D01*
X386990D01*
Y185760D01*
Y193030D01*
X378450D01*
Y195570D01*
X386990D01*
Y202840D01*
X386990D01*
X386318Y205380D01*
X386744Y206119D01*
X387350Y208380D01*
Y210720D01*
X387170Y211391D01*
X409195Y233415D01*
X425410D01*
Y224260D01*
Y221570D01*
X438490D01*
Y224260D01*
Y232760D01*
Y241260D01*
Y246530D01*
X431950D01*
Y249070D01*
X438490D01*
Y252460D01*
X438950D01*
X439941Y252657D01*
X440781Y253219D01*
X441259Y253934D01*
X633606Y253526D01*
D02*
G37*
G36*
X480870Y162756D02*
Y157480D01*
X486410D01*
Y156210D01*
X487680D01*
Y151920D01*
X491950D01*
Y155703D01*
X494490Y156755D01*
X501390Y149855D01*
X500338Y147315D01*
X470546D01*
Y150446D01*
X465972D01*
X465637Y152986D01*
X465711Y153006D01*
X467739Y154176D01*
X469394Y155831D01*
X470564Y157859D01*
X471143Y160020D01*
X462280D01*
Y162560D01*
X471143D01*
X470564Y164721D01*
X469655Y166295D01*
X470192Y167855D01*
X470899Y168835D01*
X474791D01*
X480870Y162756D01*
D02*
G37*
G36*
X509514Y130223D02*
X510774Y129381D01*
X512261Y129085D01*
X513177D01*
X514230Y126545D01*
X513536Y125852D01*
X512148Y123448D01*
X511430Y120768D01*
Y120650D01*
X521970D01*
Y118110D01*
X511430D01*
Y117992D01*
X512148Y115312D01*
X512909Y113995D01*
X511576Y111455D01*
X501639D01*
X494490Y118604D01*
Y122630D01*
X488950D01*
X483410D01*
Y121285D01*
X477689D01*
X476202Y120989D01*
X475235Y120343D01*
X470546D01*
Y133430D01*
X459780D01*
X459251Y135970D01*
X460897Y138350D01*
X470546D01*
Y139545D01*
X482140D01*
Y137720D01*
X487680D01*
X493220D01*
Y139545D01*
X500192D01*
X509514Y130223D01*
D02*
G37*
G36*
X441581Y146556D02*
X443155Y145647D01*
Y143913D01*
X443451Y142426D01*
X444293Y141166D01*
X451399Y134060D01*
Y129620D01*
X451474Y129245D01*
Y125068D01*
X449127Y124096D01*
X443677Y129547D01*
X442417Y130389D01*
X440930Y130684D01*
X438490D01*
Y139260D01*
Y146055D01*
X441030Y147108D01*
X441581Y146556D01*
D02*
G37*
%LPC*%
G36*
X278130Y238733D02*
X275969Y238154D01*
X273941Y236984D01*
X272286Y235329D01*
X271116Y233301D01*
X270537Y231140D01*
X278130D01*
Y238733D01*
D02*
G37*
G36*
X129591Y234823D02*
X129540D01*
Y226060D01*
X138303D01*
Y226111D01*
X137619Y228663D01*
X136298Y230951D01*
X134430Y232819D01*
X132143Y234139D01*
X129591Y234823D01*
D02*
G37*
G36*
X127000D02*
X126949D01*
X124397Y234139D01*
X122110Y232819D01*
X120242Y230951D01*
X118921Y228663D01*
X118237Y226111D01*
Y226060D01*
X127000D01*
Y234823D01*
D02*
G37*
G36*
X138303Y223520D02*
X129540D01*
Y214757D01*
X129591D01*
X132143Y215441D01*
X134430Y216762D01*
X136298Y218630D01*
X137619Y220917D01*
X138303Y223469D01*
Y223520D01*
D02*
G37*
G36*
X127000D02*
X118237D01*
Y223469D01*
X118921Y220917D01*
X120242Y218630D01*
X122110Y216762D01*
X124397Y215441D01*
X126949Y214757D01*
X127000D01*
Y223520D01*
D02*
G37*
G36*
X259080Y208990D02*
Y204470D01*
X266350D01*
Y208990D01*
X259080D01*
D02*
G37*
G36*
X237490Y208360D02*
X230220D01*
Y203840D01*
X237490D01*
Y208360D01*
D02*
G37*
G36*
X226033Y205740D02*
X218440D01*
Y198147D01*
X220601Y198726D01*
X222629Y199896D01*
X224284Y201551D01*
X225454Y203579D01*
X226033Y205740D01*
D02*
G37*
G36*
X215900D02*
X208307D01*
X208886Y203579D01*
X210056Y201551D01*
X211711Y199896D01*
X213739Y198726D01*
X215900Y198147D01*
Y205740D01*
D02*
G37*
G36*
X59921Y219710D02*
X56919D01*
X53975Y219124D01*
X51201Y217976D01*
X48705Y216308D01*
X46582Y214185D01*
X44914Y211689D01*
X43766Y208915D01*
X43180Y205971D01*
Y202969D01*
X43766Y200025D01*
X44914Y197251D01*
X46582Y194755D01*
X48705Y192632D01*
X51201Y190965D01*
X53975Y189816D01*
X56919Y189230D01*
X59921D01*
X62865Y189816D01*
X65639Y190965D01*
X68135Y192632D01*
X70258Y194755D01*
X71926Y197251D01*
X73074Y200025D01*
X73660Y202969D01*
Y205971D01*
X73074Y208915D01*
X71926Y211689D01*
X70258Y214185D01*
X68135Y216308D01*
X65639Y217976D01*
X62865Y219124D01*
X59921Y219710D01*
D02*
G37*
G36*
X188420Y184150D02*
X184150D01*
Y181130D01*
X188420D01*
Y184150D01*
D02*
G37*
G36*
X181610D02*
X177340D01*
Y181130D01*
X181610D01*
Y184150D01*
D02*
G37*
G36*
X129591Y184823D02*
X126949D01*
X124397Y184139D01*
X122110Y182819D01*
X120242Y180951D01*
X118921Y178663D01*
X118237Y176111D01*
Y173469D01*
X118921Y170917D01*
X120242Y168630D01*
X122110Y166762D01*
X124397Y165441D01*
X126949Y164757D01*
X129591D01*
X132129Y165437D01*
X137143Y160423D01*
X138403Y159581D01*
X139890Y159285D01*
X171958D01*
Y148055D01*
X167191D01*
X162708Y152537D01*
X161448Y153379D01*
X159962Y153674D01*
X137612D01*
X136298Y155950D01*
X134430Y157818D01*
X132143Y159139D01*
X129591Y159823D01*
X126949D01*
X124397Y159139D01*
X122110Y157818D01*
X120242Y155950D01*
X118921Y153663D01*
X118237Y151111D01*
Y148469D01*
X118921Y145918D01*
X120242Y143630D01*
X122110Y141762D01*
X124397Y140441D01*
X126949Y139757D01*
X129591D01*
X132143Y140441D01*
X134430Y141762D01*
X136298Y143630D01*
X137612Y145905D01*
X158352D01*
X162835Y141423D01*
X164095Y140581D01*
X165581Y140285D01*
X171958D01*
Y138836D01*
X179134D01*
X180106Y136489D01*
X175766Y132150D01*
X164180D01*
Y129460D01*
X137159D01*
X136298Y130950D01*
X134430Y132818D01*
X132143Y134139D01*
X129591Y134823D01*
X126949D01*
X124397Y134139D01*
X122110Y132818D01*
X120242Y130950D01*
X118921Y128663D01*
X118237Y126111D01*
Y123469D01*
X118921Y120918D01*
X120242Y118630D01*
X122110Y116762D01*
X124397Y115441D01*
X126949Y114757D01*
X129591D01*
X132143Y115441D01*
X134430Y116762D01*
X136298Y118630D01*
X137619Y120918D01*
X137826Y121690D01*
X164180D01*
Y120570D01*
X181260D01*
Y126656D01*
X189818Y135214D01*
X190660Y136474D01*
X190956Y137961D01*
Y148121D01*
X190660Y149608D01*
X189818Y150868D01*
X188181Y152505D01*
X188063Y152584D01*
X186817Y153830D01*
Y157836D01*
Y168504D01*
X171958D01*
Y167055D01*
X141499D01*
X137623Y170931D01*
X138303Y173469D01*
Y176111D01*
X137619Y178663D01*
X136298Y180951D01*
X134430Y182819D01*
X132143Y184139D01*
X129591Y184823D01*
D02*
G37*
G36*
X224790Y151130D02*
X217197D01*
X217776Y148969D01*
X218946Y146941D01*
X220601Y145286D01*
X222629Y144116D01*
X224790Y143537D01*
Y151130D01*
D02*
G37*
G36*
X214122Y152400D02*
X206693D01*
X199263D01*
Y148336D01*
Y138836D01*
X208628D01*
X220464Y127000D01*
X220050Y125393D01*
X219496Y124376D01*
X217549Y123854D01*
X215521Y122684D01*
X213866Y121029D01*
X212696Y119001D01*
X212090Y116740D01*
Y114400D01*
X212696Y112139D01*
X213866Y110111D01*
X215521Y108456D01*
X217549Y107286D01*
X219810Y106680D01*
X222150D01*
X224411Y107286D01*
X226439Y108456D01*
X228094Y110111D01*
X229264Y112139D01*
X229870Y114400D01*
Y116740D01*
X229264Y119001D01*
X228355Y120575D01*
X228892Y122135D01*
X229599Y123115D01*
X243254D01*
Y117464D01*
X255350D01*
Y136536D01*
X243254D01*
Y130885D01*
X227567D01*
X214122Y144330D01*
Y152400D01*
D02*
G37*
G36*
X201930Y119353D02*
Y111760D01*
X209523D01*
X208944Y113921D01*
X207774Y115949D01*
X206119Y117604D01*
X204091Y118774D01*
X201930Y119353D01*
D02*
G37*
G36*
X199390D02*
X197229Y118774D01*
X195201Y117604D01*
X193546Y115949D01*
X192376Y113921D01*
X191797Y111760D01*
X199390D01*
Y119353D01*
D02*
G37*
G36*
X181260Y115650D02*
X173990D01*
Y111130D01*
X181260D01*
Y115650D01*
D02*
G37*
G36*
X171450D02*
X164180D01*
Y111130D01*
X171450D01*
Y115650D01*
D02*
G37*
G36*
X181260Y108590D02*
X173990D01*
Y104070D01*
X181260D01*
Y108590D01*
D02*
G37*
G36*
X171450D02*
X164180D01*
Y104070D01*
X171450D01*
Y108590D01*
D02*
G37*
G36*
X209523Y109220D02*
X201930D01*
Y101627D01*
X204091Y102206D01*
X206119Y103376D01*
X207774Y105031D01*
X208944Y107059D01*
X209523Y109220D01*
D02*
G37*
G36*
X199390D02*
X191797D01*
X192376Y107059D01*
X193546Y105031D01*
X195201Y103376D01*
X197229Y102206D01*
X199390Y101627D01*
Y109220D01*
D02*
G37*
G36*
X92790Y79386D02*
X80694D01*
Y75030D01*
X77401D01*
Y75902D01*
X59746D01*
Y63798D01*
X77401D01*
Y64671D01*
X80694D01*
Y60314D01*
X92790D01*
Y79386D01*
D02*
G37*
G36*
X27840Y97790D02*
X25500D01*
X23239Y97184D01*
X21211Y96014D01*
X19556Y94359D01*
X18386Y92331D01*
X17780Y90070D01*
Y87730D01*
X18386Y85469D01*
X19556Y83441D01*
X21211Y81786D01*
X22633Y80966D01*
Y80446D01*
X23027Y78464D01*
X24150Y76783D01*
X27239Y73694D01*
Y72435D01*
X27090Y72211D01*
X26620Y69850D01*
X27090Y67488D01*
X28428Y65486D01*
X30430Y64149D01*
X32791Y63679D01*
X38341D01*
X40703Y64149D01*
X42705Y65486D01*
X44043Y67488D01*
X44512Y69850D01*
X44043Y72211D01*
X42705Y74214D01*
X40703Y75551D01*
X38341Y76021D01*
X37562D01*
X37204Y77821D01*
X36081Y79502D01*
X32992Y82591D01*
Y82649D01*
X33784Y83441D01*
X34954Y85469D01*
X35560Y87730D01*
Y90070D01*
X34954Y92331D01*
X33784Y94359D01*
X32129Y96014D01*
X30101Y97184D01*
X27840Y97790D01*
D02*
G37*
G36*
X314960Y59770D02*
X306694D01*
Y54992D01*
X314960D01*
Y59770D01*
D02*
G37*
G36*
X261690Y59340D02*
X257170D01*
Y52070D01*
X261690D01*
Y59340D01*
D02*
G37*
G36*
X303220Y52730D02*
X298450D01*
Y48460D01*
X303220D01*
Y52730D01*
D02*
G37*
G36*
X295910D02*
X291140D01*
Y48460D01*
X295910D01*
Y52730D01*
D02*
G37*
G36*
X314960Y52452D02*
X306694D01*
Y47674D01*
X314960D01*
Y52452D01*
D02*
G37*
G36*
X192940Y64770D02*
X190600D01*
X188339Y64164D01*
X186311Y62994D01*
X184656Y61339D01*
X183486Y59311D01*
X182880Y57050D01*
Y54710D01*
X183486Y52449D01*
X184656Y50421D01*
X186311Y48766D01*
X188339Y47596D01*
X190600Y46990D01*
X192940D01*
X195201Y47596D01*
X197229Y48766D01*
X198884Y50421D01*
X200054Y52449D01*
X200660Y54710D01*
Y57050D01*
X200054Y59311D01*
X198884Y61339D01*
X197229Y62994D01*
X195201Y64164D01*
X192940Y64770D01*
D02*
G37*
G36*
X188814Y44641D02*
Y37048D01*
X196407D01*
X195828Y39209D01*
X194658Y41237D01*
X193002Y42892D01*
X190975Y44062D01*
X188814Y44641D01*
D02*
G37*
G36*
X186274D02*
X184112Y44062D01*
X182085Y42892D01*
X180430Y41237D01*
X179260Y39209D01*
X178681Y37048D01*
X186274D01*
Y44641D01*
D02*
G37*
G36*
X136810Y39450D02*
X129540D01*
Y34930D01*
X136810D01*
Y39450D01*
D02*
G37*
G36*
X127000D02*
X119730D01*
Y34930D01*
X127000D01*
Y39450D01*
D02*
G37*
G36*
X289778Y41783D02*
X289560D01*
Y31750D01*
X299593D01*
Y31968D01*
X298823Y34843D01*
X297335Y37420D01*
X295230Y39525D01*
X292653Y41013D01*
X289778Y41783D01*
D02*
G37*
G36*
X314960Y39343D02*
Y31750D01*
X322553D01*
X321974Y33911D01*
X320804Y35939D01*
X319149Y37594D01*
X317121Y38764D01*
X314960Y39343D01*
D02*
G37*
G36*
X312420D02*
X310259Y38764D01*
X308231Y37594D01*
X306576Y35939D01*
X305406Y33911D01*
X304827Y31750D01*
X312420D01*
Y39343D01*
D02*
G37*
G36*
X136810Y32390D02*
X129540D01*
Y27870D01*
X136810D01*
Y32390D01*
D02*
G37*
G36*
X127000D02*
X119730D01*
Y27870D01*
X127000D01*
Y32390D01*
D02*
G37*
G36*
X196407Y34508D02*
X188814D01*
Y26915D01*
X190975Y27494D01*
X193002Y28664D01*
X194658Y30319D01*
X195828Y32346D01*
X196407Y34508D01*
D02*
G37*
G36*
X186274D02*
X178681D01*
X179260Y32346D01*
X180430Y30319D01*
X182085Y28664D01*
X184112Y27494D01*
X186274Y26915D01*
Y34508D01*
D02*
G37*
G36*
X107850Y96520D02*
X105510D01*
X103249Y95914D01*
X101221Y94744D01*
X99566Y93089D01*
X98396Y91061D01*
X97790Y88800D01*
Y86460D01*
X98396Y84199D01*
X98836Y83435D01*
X98705Y82772D01*
Y79386D01*
X97710D01*
Y60314D01*
X98579D01*
Y50800D01*
Y46213D01*
X97556Y45191D01*
X96433Y43510D01*
X96039Y41528D01*
Y40016D01*
X95170D01*
Y21690D01*
X90250D01*
Y40016D01*
X78154D01*
Y37490D01*
X77401Y35262D01*
X59746D01*
Y23158D01*
X57814Y21690D01*
X53187D01*
X44226Y30650D01*
X44043Y31572D01*
X42705Y33574D01*
X40703Y34911D01*
X38341Y35381D01*
X32791D01*
X30430Y34911D01*
X28428Y33574D01*
X27090Y31572D01*
X26620Y29210D01*
X27090Y26848D01*
X28428Y24846D01*
X30430Y23509D01*
X32791Y23039D01*
X37187D01*
X47379Y12847D01*
X49059Y11725D01*
X51041Y11330D01*
X224320D01*
X226302Y11725D01*
X227983Y12847D01*
X234838Y19703D01*
X236802Y19177D01*
X239778D01*
X242653Y19947D01*
X245230Y21435D01*
X247335Y23540D01*
X248823Y26117D01*
X249593Y28992D01*
X251987D01*
X252757Y26117D01*
X254245Y23540D01*
X256350Y21435D01*
X258927Y19947D01*
X261802Y19177D01*
X264778D01*
X267653Y19947D01*
X270230Y21435D01*
X272335Y23540D01*
X273823Y26117D01*
X274593Y28992D01*
X276987D01*
X277757Y26117D01*
X279245Y23540D01*
X281350Y21435D01*
X283927Y19947D01*
X286802Y19177D01*
X287020D01*
Y30480D01*
Y41783D01*
X286802D01*
X283927Y41013D01*
X281350Y39525D01*
X279245Y37420D01*
X277757Y34843D01*
X276987Y31968D01*
X274593D01*
X273823Y34843D01*
X272335Y37420D01*
X270230Y39525D01*
X267653Y41013D01*
X264778Y41783D01*
X264032D01*
X261780Y42242D01*
X261690Y44165D01*
Y49530D01*
X255900D01*
Y50800D01*
X254630D01*
Y59340D01*
X251054D01*
Y73787D01*
X221386D01*
Y58928D01*
X222835D01*
Y45519D01*
X218081Y40765D01*
X217653Y41013D01*
X214778Y41783D01*
X211802D01*
X208927Y41013D01*
X206350Y39525D01*
X204245Y37420D01*
X202757Y34843D01*
X201987Y31968D01*
Y28992D01*
X202757Y26117D01*
X203847Y24230D01*
X202802Y21690D01*
X107266D01*
Y40016D01*
X108512Y42040D01*
X108543Y42086D01*
X108938Y44068D01*
Y44980D01*
X119730D01*
Y44370D01*
X136810D01*
Y55950D01*
X119730D01*
Y55339D01*
X108938D01*
Y60314D01*
X109806D01*
Y79264D01*
X110111Y79346D01*
X112139Y80516D01*
X113794Y82171D01*
X114964Y84199D01*
X115570Y86460D01*
Y88800D01*
X114964Y91061D01*
X113794Y93089D01*
X112139Y94744D01*
X110111Y95914D01*
X107850Y96520D01*
D02*
G37*
G36*
X306150Y19696D02*
X301372D01*
Y11430D01*
X306150D01*
Y19696D01*
D02*
G37*
G36*
X299593Y29210D02*
X289560D01*
Y19177D01*
X289778D01*
X291514Y19642D01*
X293784Y18232D01*
X294054Y17823D01*
Y11430D01*
X298832D01*
Y19696D01*
X297083D01*
X296031Y22236D01*
X297335Y23540D01*
X298823Y26117D01*
X299593Y28992D01*
Y29210D01*
D02*
G37*
G36*
X601770Y248160D02*
X594000D01*
Y239140D01*
X601770D01*
Y248160D01*
D02*
G37*
G36*
X616230Y246733D02*
Y239140D01*
X623823D01*
X623244Y241301D01*
X622074Y243329D01*
X620419Y244984D01*
X618391Y246154D01*
X616230Y246733D01*
D02*
G37*
G36*
X613690D02*
X611529Y246154D01*
X609501Y244984D01*
X607846Y243329D01*
X606676Y241301D01*
X606097Y239140D01*
X613690D01*
Y246733D01*
D02*
G37*
G36*
X591460Y248160D02*
X583690D01*
Y239140D01*
X591460D01*
Y248160D01*
D02*
G37*
G36*
X623823Y236600D02*
X616230D01*
Y229007D01*
X618391Y229586D01*
X620419Y230756D01*
X622074Y232411D01*
X623244Y234439D01*
X623823Y236600D01*
D02*
G37*
G36*
X613690D02*
X606097D01*
X606676Y234439D01*
X607846Y232411D01*
X609501Y230756D01*
X611529Y229586D01*
X613690Y229007D01*
Y236600D01*
D02*
G37*
G36*
X601770D02*
X594000D01*
Y227580D01*
X601770D01*
Y236600D01*
D02*
G37*
G36*
X591460D02*
X583690D01*
Y227580D01*
X591460D01*
Y236600D01*
D02*
G37*
G36*
X501651Y245872D02*
X499109D01*
X496655Y245214D01*
X494454Y243944D01*
X492657Y242146D01*
X491386Y239946D01*
X490728Y237491D01*
Y234949D01*
X491386Y232495D01*
X492657Y230294D01*
X494454Y228496D01*
X496655Y227226D01*
X499109Y226568D01*
X501651D01*
X504105Y227226D01*
X506306Y228496D01*
X508103Y230294D01*
X509374Y232495D01*
X510032Y234949D01*
Y237491D01*
X509374Y239946D01*
X508103Y242146D01*
X506306Y243944D01*
X504105Y245214D01*
X501651Y245872D01*
D02*
G37*
G36*
X438490Y219030D02*
X425410D01*
Y215760D01*
Y213070D01*
X438490D01*
Y215760D01*
Y219030D01*
D02*
G37*
G36*
X501651Y220472D02*
X499109D01*
X496655Y219814D01*
X494454Y218543D01*
X492657Y216747D01*
X491386Y214545D01*
X490728Y212091D01*
Y209549D01*
X491386Y207094D01*
X492657Y204893D01*
X494454Y203097D01*
X496655Y201826D01*
X499109Y201168D01*
X501651D01*
X504105Y201826D01*
X506306Y203097D01*
X508103Y204893D01*
X509374Y207094D01*
X510032Y209549D01*
Y212091D01*
X509374Y214545D01*
X508103Y216747D01*
X506306Y218543D01*
X504105Y219814D01*
X501651Y220472D01*
D02*
G37*
G36*
X343990Y198840D02*
X340910D01*
Y195760D01*
X343990Y198840D01*
D02*
G37*
G36*
X360680Y202840D02*
X353410D01*
Y195570D01*
X360680D01*
Y202840D01*
D02*
G37*
G36*
X521970Y201903D02*
Y194310D01*
X529563D01*
X528984Y196471D01*
X527814Y198499D01*
X526159Y200154D01*
X524131Y201324D01*
X521970Y201903D01*
D02*
G37*
G36*
X519430D02*
X517269Y201324D01*
X515241Y200154D01*
X513586Y198499D01*
X512416Y196471D01*
X511837Y194310D01*
X519430D01*
Y201903D01*
D02*
G37*
G36*
X491950Y188590D02*
X487680D01*
Y185570D01*
X491950D01*
Y188590D01*
D02*
G37*
G36*
X485140D02*
X480870D01*
Y185570D01*
X485140D01*
Y188590D01*
D02*
G37*
G36*
X529563Y191770D02*
X521970D01*
Y184177D01*
X524131Y184756D01*
X526159Y185926D01*
X527814Y187581D01*
X528984Y189609D01*
X529563Y191770D01*
D02*
G37*
G36*
X519430D02*
X511837D01*
X512416Y189609D01*
X513586Y187581D01*
X515241Y185926D01*
X517269Y184756D01*
X519430Y184177D01*
Y191770D01*
D02*
G37*
G36*
X344180Y186340D02*
X336910D01*
Y179070D01*
X344180D01*
Y186340D01*
D02*
G37*
G36*
X616230Y167233D02*
Y159640D01*
X623823D01*
X623244Y161801D01*
X622074Y163829D01*
X620419Y165484D01*
X618391Y166654D01*
X616230Y167233D01*
D02*
G37*
G36*
X613690D02*
X611529Y166654D01*
X609501Y165484D01*
X607846Y163829D01*
X606676Y161801D01*
X606097Y159640D01*
X613690D01*
Y167233D01*
D02*
G37*
G36*
X601770Y168660D02*
X594000D01*
Y159640D01*
X601770D01*
Y168660D01*
D02*
G37*
G36*
X591460D02*
X583690D01*
Y159640D01*
X591460D01*
Y168660D01*
D02*
G37*
G36*
X386990Y160030D02*
X379720D01*
Y152760D01*
X386990D01*
Y160030D01*
D02*
G37*
G36*
X623823Y157100D02*
X616230D01*
Y149507D01*
X618391Y150086D01*
X620419Y151256D01*
X622074Y152911D01*
X623244Y154939D01*
X623823Y157100D01*
D02*
G37*
G36*
X613690D02*
X606097D01*
X606676Y154939D01*
X607846Y152911D01*
X609501Y151256D01*
X611529Y150086D01*
X613690Y149507D01*
Y157100D01*
D02*
G37*
G36*
X601770Y157100D02*
X594000D01*
Y148080D01*
X601770D01*
Y157100D01*
D02*
G37*
G36*
X591460D02*
X583690D01*
Y148080D01*
X591460D01*
Y157100D01*
D02*
G37*
G36*
X363220Y147933D02*
Y140340D01*
X370813D01*
X370234Y142501D01*
X369064Y144529D01*
X367409Y146184D01*
X365381Y147354D01*
X363220Y147933D01*
D02*
G37*
G36*
X360680D02*
X358519Y147354D01*
X356491Y146184D01*
X354836Y144529D01*
X353666Y142501D01*
X353087Y140340D01*
X360680D01*
Y147933D01*
D02*
G37*
G36*
X370813Y137800D02*
X363220D01*
Y130207D01*
X365381Y130786D01*
X367409Y131956D01*
X369064Y133611D01*
X370234Y135639D01*
X370813Y137800D01*
D02*
G37*
G36*
X360680D02*
X353087D01*
X353666Y135639D01*
X354836Y133611D01*
X356491Y131956D01*
X358519Y130786D01*
X360680Y130207D01*
Y137800D01*
D02*
G37*
G36*
X541020Y135863D02*
Y128270D01*
X548613D01*
X548034Y130431D01*
X546864Y132459D01*
X545209Y134114D01*
X543181Y135284D01*
X541020Y135863D01*
D02*
G37*
G36*
X585872Y83820D02*
X585470D01*
Y72390D01*
X596900D01*
Y72792D01*
X596035Y76022D01*
X594362Y78918D01*
X591998Y81283D01*
X589102Y82955D01*
X585872Y83820D01*
D02*
G37*
G36*
X582930D02*
X582528D01*
X579298Y82955D01*
X576402Y81283D01*
X574038Y78918D01*
X572365Y76022D01*
X571500Y72792D01*
Y72390D01*
X582930D01*
Y83820D01*
D02*
G37*
G36*
X596900Y69850D02*
X585470D01*
Y58420D01*
X585872D01*
X589102Y59285D01*
X591998Y60957D01*
X594362Y63322D01*
X596035Y66218D01*
X596900Y69448D01*
Y69850D01*
D02*
G37*
G36*
X582930D02*
X571500D01*
Y69448D01*
X572365Y66218D01*
X574038Y63322D01*
X576402Y60957D01*
X579298Y59285D01*
X582528Y58420D01*
X582930D01*
Y69850D01*
D02*
G37*
G36*
X520751Y60833D02*
X518109D01*
X515557Y60149D01*
X513270Y58828D01*
X511402Y56960D01*
X510081Y54673D01*
X509397Y52121D01*
Y49479D01*
X510081Y46927D01*
X511402Y44640D01*
X513270Y42772D01*
X515557Y41451D01*
X518109Y40767D01*
X520751D01*
X523303Y41451D01*
X525590Y42772D01*
X527458Y44640D01*
X528779Y46927D01*
X529463Y49479D01*
Y52121D01*
X528779Y54673D01*
X527458Y56960D01*
X525590Y58828D01*
X523303Y60149D01*
X520751Y60833D01*
D02*
G37*
G36*
X499570Y20880D02*
X495300D01*
Y17860D01*
X499570D01*
Y20880D01*
D02*
G37*
G36*
X492760D02*
X488490D01*
Y17860D01*
X492760D01*
Y20880D01*
D02*
G37*
G36*
X460326Y23506D02*
X455548D01*
Y15240D01*
X460326D01*
Y23506D01*
D02*
G37*
G36*
X453008D02*
X448230D01*
Y15240D01*
X453008D01*
Y23506D01*
D02*
G37*
G36*
X474980Y16483D02*
Y8890D01*
X482573D01*
X481994Y11051D01*
X480824Y13079D01*
X479169Y14734D01*
X477141Y15904D01*
X474980Y16483D01*
D02*
G37*
G36*
X472440D02*
X470279Y15904D01*
X468251Y14734D01*
X466596Y13079D01*
X465426Y11051D01*
X464847Y8890D01*
X472440D01*
Y16483D01*
D02*
G37*
G36*
X384783Y12700D02*
X377190D01*
Y5107D01*
X379351Y5686D01*
X381379Y6856D01*
X383034Y8511D01*
X384204Y10539D01*
X384783Y12700D01*
D02*
G37*
G36*
X374650D02*
X367057D01*
X367636Y10539D01*
X368806Y8511D01*
X370461Y6856D01*
X372489Y5686D01*
X374650Y5107D01*
Y12700D01*
D02*
G37*
G36*
X460326D02*
X455548D01*
Y4434D01*
X460326D01*
Y12700D01*
D02*
G37*
G36*
X453008D02*
X448230D01*
Y4434D01*
X453008D01*
Y12700D01*
D02*
G37*
G36*
X426790Y44450D02*
X421000D01*
X415210D01*
Y37180D01*
X415210Y37180D01*
X414631Y34880D01*
X413804Y33802D01*
X413044Y31968D01*
X412785Y30000D01*
Y18000D01*
X413044Y16032D01*
X413804Y14197D01*
X415012Y12622D01*
X416587Y11414D01*
X418422Y10654D01*
X420390Y10395D01*
X422358Y10654D01*
X424193Y11414D01*
X425768Y12622D01*
X426744Y13895D01*
X431214D01*
Y4434D01*
X443310D01*
Y23506D01*
X431214D01*
Y21665D01*
X427995D01*
Y30000D01*
X427736Y31968D01*
X426976Y33802D01*
X426334Y34640D01*
X426790Y37180D01*
X426790D01*
Y44450D01*
D02*
G37*
G36*
X485140Y154940D02*
X480870D01*
Y151920D01*
X485140D01*
Y154940D01*
D02*
G37*
G36*
X493220Y135180D02*
X488950D01*
Y132160D01*
X493220D01*
Y135180D01*
D02*
G37*
G36*
X486410D02*
X482140D01*
Y132160D01*
X486410D01*
Y135180D01*
D02*
G37*
G36*
X494490Y128190D02*
X490220D01*
Y125170D01*
X494490D01*
Y128190D01*
D02*
G37*
G36*
X487680D02*
X483410D01*
Y125170D01*
X487680D01*
Y128190D01*
D02*
G37*
%LPD*%
D14*
X250954Y153670D02*
D03*
X267970D02*
D03*
X249302Y127000D02*
D03*
X266318D02*
D03*
X300102Y10160D02*
D03*
X317118D02*
D03*
X454278Y13970D02*
D03*
X437262D02*
D03*
X284862Y81280D02*
D03*
X103758Y69850D02*
D03*
X86742D02*
D03*
X101218Y30480D02*
D03*
X84202D02*
D03*
X301878Y81280D02*
D03*
D15*
X436880Y75818D02*
D03*
Y58802D02*
D03*
X461010Y127382D02*
D03*
Y144398D02*
D03*
Y99442D02*
D03*
Y116458D02*
D03*
X316230Y53722D02*
D03*
Y70738D02*
D03*
X461010Y66546D02*
D03*
Y49530D02*
D03*
D16*
X291950Y203300D02*
D03*
Y211800D02*
D03*
Y228800D02*
D03*
Y237300D02*
D03*
X431950Y211800D02*
D03*
Y220300D02*
D03*
Y237300D02*
D03*
X291950Y220300D02*
D03*
Y194800D02*
D03*
Y186300D02*
D03*
Y177800D02*
D03*
Y169300D02*
D03*
Y160800D02*
D03*
Y152300D02*
D03*
Y143800D02*
D03*
Y135300D02*
D03*
Y126800D02*
D03*
Y118300D02*
D03*
X431950D02*
D03*
Y126800D02*
D03*
Y135300D02*
D03*
Y143800D02*
D03*
Y152300D02*
D03*
Y160800D02*
D03*
Y169300D02*
D03*
Y177800D02*
D03*
Y186300D02*
D03*
Y194800D02*
D03*
Y203300D02*
D03*
Y228800D02*
D03*
D17*
X592730Y158370D02*
D03*
Y237870D02*
D03*
X547730D02*
D03*
Y158370D02*
D03*
D18*
X291950Y107800D02*
D03*
Y247800D02*
D03*
X431950Y107800D02*
D03*
Y247800D02*
D03*
D19*
X345450Y177800D02*
D03*
Y161300D02*
D03*
X361950D02*
D03*
X378450D02*
D03*
X361950Y194300D02*
D03*
Y177800D02*
D03*
X378450D02*
D03*
Y194300D02*
D03*
D20*
X302450Y247800D02*
D03*
X319450D02*
D03*
X310950D02*
D03*
X336450D02*
D03*
X327950D02*
D03*
X353450D02*
D03*
X344950D02*
D03*
X370450D02*
D03*
X361950D02*
D03*
X387450D02*
D03*
X378950D02*
D03*
X404450D02*
D03*
X395950D02*
D03*
X412950D02*
D03*
X421450D02*
D03*
X302450Y107800D02*
D03*
X310950D02*
D03*
X319450D02*
D03*
X327950D02*
D03*
X336450D02*
D03*
X344950D02*
D03*
X353450D02*
D03*
X361950D02*
D03*
X370450D02*
D03*
X378950D02*
D03*
X387450D02*
D03*
X395950D02*
D03*
X404450D02*
D03*
X412950D02*
D03*
X421450D02*
D03*
D21*
X128270Y33660D02*
D03*
X238760Y202570D02*
D03*
X257810Y203200D02*
D03*
X172720Y109860D02*
D03*
X238760Y219070D02*
D03*
X257810Y219700D02*
D03*
X172720Y126360D02*
D03*
X128270Y50160D02*
D03*
D22*
X421000Y45720D02*
D03*
X255900Y50800D02*
D03*
X404500Y45720D02*
D03*
X239400Y50800D02*
D03*
D23*
X375920Y28258D02*
D03*
X236220Y93663D02*
D03*
X366420Y55563D02*
D03*
X375920D02*
D03*
X385420D02*
D03*
Y28258D02*
D03*
X366420D02*
D03*
X245720Y66357D02*
D03*
X236220D02*
D03*
X226720D02*
D03*
Y93663D02*
D03*
X245720D02*
D03*
D24*
X206693Y153670D02*
D03*
X179387D02*
D03*
X206693Y163170D02*
D03*
Y144170D02*
D03*
X179387D02*
D03*
Y163170D02*
D03*
D25*
X297180Y54000D02*
D03*
Y63500D02*
D03*
D26*
X486410Y184300D02*
D03*
Y156210D02*
D03*
X487680Y136450D02*
D03*
X488950Y123900D02*
D03*
X494030Y22150D02*
D03*
X182880Y185420D02*
D03*
X486410Y177800D02*
D03*
Y162710D02*
D03*
X487680Y142950D02*
D03*
X488950Y117400D02*
D03*
X494030Y28650D02*
D03*
X182880Y191920D02*
D03*
D27*
X68574Y69850D02*
D03*
Y29210D02*
D03*
D28*
X35566Y69850D02*
D03*
Y29210D02*
D03*
D37*
X128270Y224790D02*
D03*
Y124790D02*
D03*
X519430Y75800D02*
D03*
X128270Y149790D02*
D03*
Y174790D02*
D03*
Y199790D02*
D03*
X519430Y50800D02*
D03*
D38*
X288290Y30480D02*
D03*
X213290D02*
D03*
X238290D02*
D03*
X263290D02*
D03*
D39*
X584200Y71120D02*
D03*
Y24120D02*
D03*
Y118120D02*
D03*
D40*
X500380Y236220D02*
D03*
Y210820D02*
D03*
D41*
X333990Y64000D02*
D03*
X420390D02*
D03*
D42*
X333990Y24000D02*
D03*
X420390D02*
D03*
D45*
X345450Y194300D02*
D03*
D46*
X239075Y219385D02*
X257810D01*
X284553D01*
X285468Y220300D01*
X592730Y158370D02*
X614960D01*
X592730Y158370D02*
X592730Y158370D01*
X584200Y71120D02*
X614960Y101880D01*
Y158370D01*
X488950Y117400D02*
X490200D01*
X500030Y107570D01*
X534434D01*
X544984Y118120D01*
X584200D01*
X494030Y28650D02*
X533368D01*
X537898Y24120D01*
X584200D01*
X510176Y66546D02*
X519430Y75800D01*
X461010Y66546D02*
X510176D01*
X461010D02*
Y99442D01*
X459942Y117526D02*
X461010Y116458D01*
X447040Y60012D02*
Y105210D01*
X450204Y117526D02*
X459942D01*
X431950Y118300D02*
X433950D01*
X440930Y126800D02*
X450204Y117526D01*
X433950Y118300D02*
X447040Y105210D01*
X431950Y126800D02*
X440930D01*
X470848Y43180D02*
X494030D01*
X447040Y60012D02*
X457522Y49530D01*
X464498D02*
X470848Y43180D01*
X457522Y49530D02*
X464498D01*
X494030Y28650D02*
Y43180D01*
X465029Y161290D02*
X470109Y156210D01*
X462280Y161290D02*
X465029D01*
X470109Y156210D02*
X486410D01*
X433950Y186300D02*
X447530Y172720D01*
X476400D01*
X486410Y162710D01*
X494029D01*
X510160Y146579D01*
X520171D01*
X495280Y170180D02*
X521970D01*
X487660Y177800D02*
X495280Y170180D01*
X450950Y177800D02*
X486410D01*
X431950Y194800D02*
X433950D01*
X486410Y177800D02*
X487660D01*
X455284Y129620D02*
X457522Y127382D01*
X461010Y144398D02*
X461978Y143430D01*
X455284Y129620D02*
Y135669D01*
X461978Y143430D02*
X501801D01*
X447040Y143913D02*
X455284Y135669D01*
X447040Y143913D02*
Y153670D01*
X457522Y127382D02*
X461010D01*
X501801Y143430D02*
X512261Y132970D01*
X526862D01*
X534681Y140789D01*
Y144071D01*
X547730Y157120D01*
Y158370D01*
X547730D02*
Y237870D01*
X488160Y123900D02*
X488950D01*
X487680Y124380D02*
X488160Y123900D01*
X487680Y124380D02*
Y136450D01*
X490200Y123900D02*
X492156Y121944D01*
X519406D01*
X521970Y119380D01*
X520171Y146579D02*
X521970Y144780D01*
X437262Y12770D02*
Y15542D01*
X433950Y194800D02*
X450950Y177800D01*
X291950Y211800D02*
X293950D01*
X304800Y200950D01*
Y190500D02*
Y200950D01*
X234696Y85968D02*
Y92139D01*
X255900Y48050D02*
Y50800D01*
X214840Y66112D02*
X234696Y85968D01*
X172720Y109860D02*
X173035Y110175D01*
X200345D01*
X234696Y92139D02*
X236220Y93663D01*
X200345Y110175D02*
X200660Y110490D01*
X290671Y23079D02*
Y28099D01*
X288290Y30480D02*
X290671Y28099D01*
Y23079D02*
X300102Y13648D01*
X257880Y46070D02*
X272700D01*
X255900Y48050D02*
X257880Y46070D01*
X288290Y30480D02*
X313690D01*
X272700Y46070D02*
X288290Y30480D01*
X300102Y10160D02*
Y13648D01*
X313690Y30480D02*
Y32542D01*
X305048Y41184D02*
X312970Y33262D01*
X305048Y41184D02*
Y46632D01*
X312970Y31200D02*
Y33262D01*
X313690Y32542D02*
X316230Y35082D01*
X297680Y54000D02*
X305048Y46632D01*
X297180Y54000D02*
X297680D01*
X291950Y107800D02*
X299116Y114966D01*
X316230Y35082D02*
Y53722D01*
X182880Y175348D02*
Y185420D01*
Y175348D02*
X200805Y157423D01*
X206947Y153416D02*
X225044D01*
X226060Y152400D01*
X200844Y157423D02*
X204597Y153670D01*
X200805Y157423D02*
X200844D01*
X206693Y153670D02*
X206947Y153416D01*
X204597Y153670D02*
X206693D01*
X219919Y207010D02*
X224359Y202570D01*
X238760D01*
X217170Y207010D02*
X219919D01*
X238760Y202570D02*
X239075Y202885D01*
X257495D01*
X257810Y203200D01*
X299116Y114966D02*
X337846D01*
X361950Y139070D01*
X279935Y229335D02*
X291755D01*
X279400Y229870D02*
X279935Y229335D01*
X291755D02*
X291950Y229530D01*
Y247800D01*
X375920Y13970D02*
Y28258D01*
X436880Y75818D02*
Y90170D01*
X361950Y139070D02*
Y161300D01*
X431950Y97849D02*
X436880Y92919D01*
Y90170D02*
Y92919D01*
X431950Y97849D02*
Y107800D01*
X454278Y13970D02*
X465406D01*
X471756Y7620D02*
X473710D01*
X465406Y13970D02*
X471756Y7620D01*
X473710D02*
X488240Y22150D01*
X494030D01*
X345450Y161300D02*
X361950D01*
X345450Y177800D02*
X361950D01*
X345450D02*
Y194300D01*
X361950Y161300D02*
Y177800D01*
Y161300D02*
X378450D01*
X361950Y177800D02*
X378450D01*
X361950D02*
Y194300D01*
X378450Y177800D02*
Y194300D01*
X431950Y220300D02*
X433950D01*
X431950Y211800D02*
Y220300D01*
X433950D02*
X438744Y225094D01*
X487660Y184300D02*
X496400Y193040D01*
X486410Y184300D02*
X487660D01*
X496400Y193040D02*
X520700D01*
X431950Y247800D02*
X438744Y241006D01*
Y225094D02*
Y241006D01*
X291950Y247800D02*
X431950D01*
X592730Y237870D02*
X614960D01*
X421000Y45160D02*
X422980Y43180D01*
X421000Y45160D02*
Y45720D01*
X448310Y43180D02*
X473710Y17780D01*
Y7620D02*
Y17780D01*
X422980Y43180D02*
X448310D01*
X187544Y35778D02*
X214840Y63074D01*
Y66112D01*
X407586Y237300D02*
X431950D01*
X379836Y209550D02*
X407586Y237300D01*
X378460Y209550D02*
X379836D01*
X187071Y137961D02*
Y148121D01*
X175470Y126360D02*
X187071Y137961D01*
X172720Y126360D02*
X175470D01*
X275590Y57150D02*
X284862Y66422D01*
Y81280D01*
X285468Y220300D02*
X291950D01*
X238760Y219070D02*
X239075Y219385D01*
X221620Y219070D02*
X238760D01*
X201930Y238760D02*
X221620Y219070D01*
X181483Y153670D02*
X185395Y149758D01*
X185434D01*
X187071Y148121D01*
X179387Y153670D02*
X181483D01*
X171935Y125575D02*
X172720Y126360D01*
X129055Y125575D02*
X171935D01*
X128270Y124790D02*
X129055Y125575D01*
X239158Y153670D02*
X250954D01*
X206693Y163170D02*
X207303Y162560D01*
X230268D02*
X239158Y153670D01*
X207303Y162560D02*
X230268D01*
X206693Y144170D02*
X208788D01*
X225958Y127000D01*
X249302D01*
X245720Y93726D02*
X247244Y95250D01*
X342900D01*
X245720Y93663D02*
Y93726D01*
X250011Y101006D02*
X340156D01*
X230632Y99709D02*
X232269Y101346D01*
X249671D01*
X250011Y101006D01*
X340156D02*
X344950Y105800D01*
X342900Y95250D02*
X347980Y100330D01*
X230632Y99670D02*
Y99709D01*
X226720Y95758D02*
X230632Y99670D01*
X403331Y46889D02*
X404500Y45720D01*
X394620Y46889D02*
X403331D01*
X394620D02*
X395610Y45899D01*
X26670Y88900D02*
X26676Y88894D01*
X245720Y47779D02*
Y66357D01*
Y47779D02*
X263019Y30480D01*
X263290D01*
X238845Y50245D02*
X239400Y50800D01*
X238845Y31035D02*
Y50245D01*
X238290Y30480D02*
X238845Y31035D01*
X236220Y56730D02*
Y66357D01*
Y56730D02*
X239400Y53550D01*
Y50800D02*
Y53550D01*
X35566Y29210D02*
X38341D01*
X226720Y43910D02*
Y66357D01*
X213290Y30480D02*
X226720Y43910D01*
Y93663D02*
Y95758D01*
X344950Y105800D02*
Y107800D01*
X353450Y105800D02*
Y107800D01*
X347980Y100330D02*
X353450Y105800D01*
X347980Y100330D02*
X347980D01*
X103758Y50800D02*
X104398Y50160D01*
X382513Y42799D02*
X393314Y31999D01*
X349250Y43180D02*
X349631Y42799D01*
X382513D01*
X347980Y26670D02*
X357251Y35941D01*
X379871D01*
X348654Y13374D02*
X353632D01*
X366420Y26162D01*
Y28258D01*
X346710Y11430D02*
X348654Y13374D01*
X82932Y29210D02*
X84202Y30480D01*
X136385Y191920D02*
X210271D01*
X236956Y165236D01*
X270859D01*
X275296Y160800D01*
X291950D01*
X247260Y169300D02*
X291950D01*
X228600Y187960D02*
X247260Y169300D01*
X383896Y57087D02*
Y61874D01*
X371180Y74590D02*
Y107070D01*
X383896Y57087D02*
X385420Y55563D01*
X371180Y74590D02*
X383896Y61874D01*
X387400Y87680D02*
Y107750D01*
X387450Y107800D01*
X387350Y87630D02*
X387400Y87680D01*
X259080Y187960D02*
X269240Y177800D01*
X291950D01*
X159962Y149790D02*
X165581Y144170D01*
X179387D01*
X128270Y149790D02*
X159962D01*
X128515Y199790D02*
X136385Y191920D01*
X128270Y199790D02*
X128515D01*
X334010Y123190D02*
Y143510D01*
X329850Y119030D02*
X334010Y123190D01*
X292680Y119030D02*
X329850D01*
X291950Y118300D02*
X292680Y119030D01*
X297180Y63500D02*
X297680D01*
X301878Y67698D01*
Y81280D01*
X291950Y126800D02*
X293950D01*
X314960Y147810D01*
Y162560D01*
X304800Y172720D02*
X314960Y162560D01*
X304700Y156110D02*
X304800Y156210D01*
X304700Y146050D02*
Y156110D01*
X293950Y135300D02*
X304700Y146050D01*
X291950Y135300D02*
X293950D01*
X416560Y137160D02*
X417500D01*
X424140Y143800D01*
X431950D01*
X461010Y116458D02*
X476747D01*
X477689Y117400D01*
X488950D01*
X370450Y107800D02*
X371180Y107070D01*
X361950Y62128D02*
X366420Y57658D01*
Y55563D02*
Y57658D01*
X361950Y62128D02*
Y107800D01*
X266318Y127000D02*
Y130488D01*
X279630Y143800D01*
X291950D01*
X267970Y153670D02*
X269340Y152300D01*
X291950D01*
X128270Y174790D02*
X139890Y163170D01*
X179387D01*
X393630Y47879D02*
X394620Y46889D01*
X381469Y47879D02*
X393630D01*
X379673Y49675D02*
X381469Y47879D01*
X379673Y49675D02*
Y49714D01*
X375920Y53467D02*
X379673Y49714D01*
X375920Y53467D02*
Y55563D01*
X393314Y31999D02*
X395610Y34295D01*
Y45899D01*
X393314Y31999D02*
X401320Y23992D01*
Y11430D02*
Y23992D01*
X381667Y34106D02*
Y34145D01*
Y34106D02*
X385420Y30353D01*
X379871Y35941D02*
X381667Y34145D01*
X420390Y64000D02*
X421640Y62750D01*
X429666D01*
X433392Y58802D02*
X436880D01*
X429666Y62750D02*
X431154Y61262D01*
Y61040D02*
X433392Y58802D01*
X431154Y61040D02*
Y61262D01*
X385420Y28258D02*
Y30353D01*
X328772Y70738D02*
X330083Y69427D01*
X330544D01*
X316230Y70738D02*
X328772D01*
X330544Y69427D02*
X333990Y65981D01*
Y64000D02*
Y65981D01*
X423836Y17780D02*
X435024D01*
X420390Y21226D02*
Y24000D01*
Y21226D02*
X423836Y17780D01*
X435024D02*
X437262Y15542D01*
X324132Y10160D02*
X333990Y20019D01*
X317118Y10160D02*
X324132D01*
X333990Y20019D02*
Y24000D01*
D47*
X128270Y33660D02*
X168758D01*
X187386Y35936D02*
X187544Y35778D01*
X168758Y33660D02*
X171034Y35936D01*
X187386D01*
X33317Y69850D02*
X35566D01*
X32419Y70748D02*
X33317Y69850D01*
X32419Y70748D02*
Y75839D01*
X27812Y80446D02*
Y87758D01*
Y80446D02*
X32419Y75839D01*
X26676Y88894D02*
X27812Y87758D01*
X224320Y16510D02*
X238290Y30480D01*
X51041Y16510D02*
X224320D01*
X38341Y29210D02*
X51041Y16510D01*
X103758Y69850D02*
X103884Y69976D01*
X106680Y85568D02*
Y87630D01*
X103884Y82772D02*
X106680Y85568D01*
X103884Y69976D02*
Y82772D01*
X101218Y30480D02*
Y41528D01*
X103758Y44068D01*
Y50800D01*
X104398Y50160D02*
X128270D01*
X103758Y50800D02*
Y69850D01*
X68574D02*
X86742D01*
X68574Y29210D02*
X82932D01*
D48*
X521970Y119380D02*
D03*
Y144780D02*
D03*
D49*
Y170180D02*
D03*
D50*
X15240Y45720D02*
D03*
X618490Y204470D02*
D03*
X58420D02*
D03*
D51*
X539750Y127000D02*
D03*
X462280Y161290D02*
D03*
X304800Y190500D02*
D03*
X200660Y110490D02*
D03*
X313690Y30480D02*
D03*
X317500Y85090D02*
D03*
X226060Y152400D02*
D03*
X217170Y207010D02*
D03*
X279400Y229870D02*
D03*
X375920Y13970D02*
D03*
X361950Y139070D02*
D03*
X436880Y90170D02*
D03*
X473710Y7620D02*
D03*
X614960Y158370D02*
D03*
X520700Y193040D02*
D03*
X614960Y237870D02*
D03*
X187544Y35778D02*
D03*
X378460Y209550D02*
D03*
X275590Y57150D02*
D03*
X220980Y115570D02*
D03*
X344170Y231140D02*
D03*
X201930Y238760D02*
D03*
X191770Y55880D02*
D03*
X106680Y87630D02*
D03*
X349250Y43180D02*
D03*
X347980Y26670D02*
D03*
X346710Y11430D02*
D03*
X387350Y87630D02*
D03*
X228600Y187960D02*
D03*
X259080D02*
D03*
X334010Y143510D02*
D03*
X304800Y156210D02*
D03*
Y172720D02*
D03*
X416560Y137160D02*
D03*
X447040Y153670D02*
D03*
X26670Y88900D02*
D03*
X401320Y11430D02*
D03*
M02*
