G04*
G04 #@! TF.GenerationSoftware,Altium Limited,Altium Designer,26.3.0 (6)*
G04*
G04 Layer_Color=16711935*
%FSLAX25Y25*%
%MOIN*%
G70*
G04*
G04 #@! TF.SameCoordinates,B6D56E79-C978-43EB-9399-F5FF78815BC7*
G04*
G04*
G04 #@! TF.FilePolarity,Negative*
G04*
G01*
G75*
%ADD14R,0.02762X0.05509*%
%ADD15R,0.05509X0.02762*%
%ADD17R,0.05118X0.06102*%
%ADD21R,0.04724X0.02559*%
%ADD22R,0.02559X0.04724*%
%ADD34R,0.02762X0.01778*%
%ADD35C,0.06400*%
%ADD36C,0.06699*%
G04:AMPARAMS|DCode=37|XSize=66.99mil|YSize=66.99mil|CornerRadius=17.75mil|HoleSize=0mil|Usage=FLASHONLY|Rotation=270.000|XOffset=0mil|YOffset=0mil|HoleType=Round|Shape=RoundedRectangle|*
%AMROUNDEDRECTD37*
21,1,0.06699,0.03150,0,0,270.0*
21,1,0.03150,0.06699,0,0,270.0*
1,1,0.03550,-0.01575,-0.01575*
1,1,0.03550,-0.01575,0.01575*
1,1,0.03550,0.01575,0.01575*
1,1,0.03550,0.01575,-0.01575*
%
%ADD37ROUNDEDRECTD37*%
%ADD38C,0.05900*%
%ADD39C,0.06900*%
%ADD40C,0.08000*%
%ADD41C,0.05600*%
G04:AMPARAMS|DCode=42|XSize=39.37mil|YSize=70.87mil|CornerRadius=19.68mil|HoleSize=0mil|Usage=FLASHONLY|Rotation=180.000|XOffset=0mil|YOffset=0mil|HoleType=Round|Shape=RoundedRectangle|*
%AMROUNDEDRECTD42*
21,1,0.03937,0.03150,0,0,180.0*
21,1,0.00000,0.07087,0,0,180.0*
1,1,0.03937,0.00000,0.01575*
1,1,0.03937,0.00000,0.01575*
1,1,0.03937,0.00000,-0.01575*
1,1,0.03937,0.00000,-0.01575*
%
%ADD42ROUNDEDRECTD42*%
G04:AMPARAMS|DCode=43|XSize=39.37mil|YSize=86.61mil|CornerRadius=19.68mil|HoleSize=0mil|Usage=FLASHONLY|Rotation=180.000|XOffset=0mil|YOffset=0mil|HoleType=Round|Shape=RoundedRectangle|*
%AMROUNDEDRECTD43*
21,1,0.03937,0.04724,0,0,180.0*
21,1,0.00000,0.08661,0,0,180.0*
1,1,0.03937,0.00000,0.02362*
1,1,0.03937,0.00000,0.02362*
1,1,0.03937,0.00000,-0.02362*
1,1,0.03937,0.00000,-0.02362*
%
%ADD43ROUNDEDRECTD43*%
%ADD44C,0.05400*%
%ADD67R,0.02362X0.04528*%
G04:AMPARAMS|DCode=71|XSize=53.43mil|YSize=22.53mil|CornerRadius=11.26mil|HoleSize=0mil|Usage=FLASHONLY|Rotation=180.000|XOffset=0mil|YOffset=0mil|HoleType=Round|Shape=RoundedRectangle|*
%AMROUNDEDRECTD71*
21,1,0.05343,0.00000,0,0,180.0*
21,1,0.03091,0.02253,0,0,180.0*
1,1,0.02253,-0.01545,0.00000*
1,1,0.02253,0.01545,0.00000*
1,1,0.02253,0.01545,0.00000*
1,1,0.02253,-0.01545,0.00000*
%
%ADD71ROUNDEDRECTD71*%
%ADD72R,0.05343X0.02253*%
%ADD73R,0.01181X0.04528*%
G04:AMPARAMS|DCode=75|XSize=129.98mil|YSize=72.9mil|CornerRadius=4.07mil|HoleSize=0mil|Usage=FLASHONLY|Rotation=180.000|XOffset=0mil|YOffset=0mil|HoleType=Round|Shape=RoundedRectangle|*
%AMROUNDEDRECTD75*
21,1,0.12998,0.06476,0,0,180.0*
21,1,0.12185,0.07290,0,0,180.0*
1,1,0.00813,-0.06093,0.03238*
1,1,0.00813,0.06093,0.03238*
1,1,0.00813,0.06093,-0.03238*
1,1,0.00813,-0.06093,-0.03238*
%
%ADD75ROUNDEDRECTD75*%
G04:AMPARAMS|DCode=76|XSize=39.43mil|YSize=72.9mil|CornerRadius=3.95mil|HoleSize=0mil|Usage=FLASHONLY|Rotation=180.000|XOffset=0mil|YOffset=0mil|HoleType=Round|Shape=RoundedRectangle|*
%AMROUNDEDRECTD76*
21,1,0.03943,0.06500,0,0,180.0*
21,1,0.03154,0.07290,0,0,180.0*
1,1,0.00790,-0.01577,0.03250*
1,1,0.00790,0.01577,0.03250*
1,1,0.00790,0.01577,-0.03250*
1,1,0.00790,-0.01577,-0.03250*
%
%ADD76ROUNDEDRECTD76*%
%ADD77R,0.01778X0.02762*%
%ADD78R,0.02762X0.03156*%
D14*
X153350Y62500D02*
D03*
X146650D02*
D03*
X137850Y35500D02*
D03*
X131150D02*
D03*
X123650Y90000D02*
D03*
X130350D02*
D03*
X158650Y35500D02*
D03*
X165350D02*
D03*
X93650Y44000D02*
D03*
X92700Y36575D02*
D03*
X100350Y44000D02*
D03*
X99399Y36575D02*
D03*
D15*
X137000Y83350D02*
D03*
Y76650D02*
D03*
X162500Y84850D02*
D03*
Y78150D02*
D03*
X175500Y84350D02*
D03*
Y77650D02*
D03*
D17*
X106642Y51350D02*
D03*
Y82650D02*
D03*
X77642Y51850D02*
D03*
Y83150D02*
D03*
X124358Y82650D02*
D03*
Y51350D02*
D03*
X95358Y51850D02*
D03*
Y83150D02*
D03*
D21*
X82500Y36748D02*
D03*
X75000D02*
D03*
X82500Y30252D02*
D03*
X75000D02*
D03*
D22*
X140748Y70000D02*
D03*
X134252D02*
D03*
D34*
X104492Y91000D02*
D03*
X181500Y34780D02*
D03*
Y22220D02*
D03*
X185500Y95280D02*
D03*
Y80221D02*
D03*
Y92721D02*
D03*
X104492Y93559D02*
D03*
X181500Y32221D02*
D03*
Y24780D02*
D03*
X185500Y82780D02*
D03*
D35*
X241500Y78000D02*
D03*
X20000Y25000D02*
D03*
X23000Y80500D02*
D03*
D36*
X202000Y47500D02*
D03*
Y57500D02*
D03*
D37*
Y67500D02*
D03*
D38*
X50500Y88500D02*
D03*
Y49130D02*
D03*
X204500Y29842D02*
D03*
X50500Y58973D02*
D03*
Y68815D02*
D03*
Y78658D02*
D03*
X204500Y20000D02*
D03*
D39*
X113500Y12000D02*
D03*
X83972D02*
D03*
X93815D02*
D03*
X103657D02*
D03*
D40*
X230000Y28000D02*
D03*
Y9496D02*
D03*
Y46504D02*
D03*
D41*
X197000Y93000D02*
D03*
Y83000D02*
D03*
D42*
X131492Y25197D02*
D03*
X165508D02*
D03*
D43*
X131492Y9449D02*
D03*
X165508D02*
D03*
D44*
X7500Y58500D02*
D03*
X161000Y65000D02*
D03*
X212500Y50000D02*
D03*
X182000Y63500D02*
D03*
X120000Y75000D02*
D03*
X79000Y43500D02*
D03*
X123500Y12000D02*
D03*
X125000Y33500D02*
D03*
X89000Y60000D02*
D03*
X85500Y81500D02*
D03*
X110000Y90500D02*
D03*
X148000Y5500D02*
D03*
X142500Y54752D02*
D03*
X172000Y35500D02*
D03*
X186500Y3000D02*
D03*
X242110Y62350D02*
D03*
X205000Y76000D02*
D03*
X242110Y93650D02*
D03*
X73836Y14086D02*
D03*
X149000Y82500D02*
D03*
X108500Y22500D02*
D03*
X87000Y45500D02*
D03*
X135500Y91000D02*
D03*
X79500Y94000D02*
D03*
X75500Y22000D02*
D03*
X42000Y34500D02*
D03*
X137500Y17000D02*
D03*
X137000Y10500D02*
D03*
X136500Y4500D02*
D03*
X152500Y34500D02*
D03*
X90000Y74000D02*
D03*
X102000D02*
D03*
X131500Y56500D02*
D03*
X120000Y61500D02*
D03*
Y68000D02*
D03*
X164000Y54000D02*
D03*
X176000Y60500D02*
D03*
X158000Y4500D02*
D03*
D67*
X161098Y27461D02*
D03*
X135902D02*
D03*
X139051D02*
D03*
X157949D02*
D03*
D71*
X151242Y87260D02*
D03*
X147758Y74500D02*
D03*
X143758Y91000D02*
D03*
X155242Y70760D02*
D03*
D72*
Y78240D02*
D03*
X151242Y94740D02*
D03*
D73*
X155390Y27461D02*
D03*
X153421D02*
D03*
X151453D02*
D03*
X149484D02*
D03*
X147516D02*
D03*
X145547D02*
D03*
X143579D02*
D03*
X141610D02*
D03*
D75*
X58500Y5697D02*
D03*
D76*
Y30303D02*
D03*
X67555D02*
D03*
X49445D02*
D03*
D77*
X138279Y63000D02*
D03*
X135721D02*
D03*
D78*
X107130Y44500D02*
D03*
X110870D02*
D03*
X107500Y37000D02*
D03*
X111240D02*
D03*
M02*
