G04*
G04 #@! TF.GenerationSoftware,Altium Limited,Altium Designer,26.3.0 (6)*
G04*
G04 Layer_Color=8388736*
%FSLAX25Y25*%
%MOIN*%
G70*
G04*
G04 #@! TF.SameCoordinates,B6D56E79-C978-43EB-9399-F5FF78815BC7*
G04*
G04*
G04 #@! TF.FilePolarity,Negative*
G04*
G01*
G75*
%ADD14R,0.02762X0.05509*%
%ADD15R,0.05509X0.02762*%
%ADD17R,0.05118X0.06102*%
%ADD21R,0.04724X0.02559*%
%ADD22R,0.02559X0.04724*%
%ADD23R,0.02200X0.03850*%
%ADD24R,0.03850X0.02200*%
%ADD27R,0.04951X0.02766*%
G04:AMPARAMS|DCode=28|XSize=49.51mil|YSize=27.66mil|CornerRadius=13.83mil|HoleSize=0mil|Usage=FLASHONLY|Rotation=180.000|XOffset=0mil|YOffset=0mil|HoleType=Round|Shape=RoundedRectangle|*
%AMROUNDEDRECTD28*
21,1,0.04951,0.00000,0,0,180.0*
21,1,0.02185,0.02766,0,0,180.0*
1,1,0.02766,-0.01093,0.00000*
1,1,0.02766,0.01093,0.00000*
1,1,0.02766,0.01093,0.00000*
1,1,0.02766,-0.01093,0.00000*
%
%ADD28ROUNDEDRECTD28*%
%ADD29R,0.03550X0.01975*%
%ADD30R,0.03550X0.03550*%
%ADD31R,0.05124X0.05124*%
%ADD32R,0.01975X0.03550*%
%ADD33R,0.03156X0.02762*%
%ADD34R,0.02762X0.01778*%
%ADD35C,0.06400*%
%ADD36C,0.06699*%
G04:AMPARAMS|DCode=37|XSize=66.99mil|YSize=66.99mil|CornerRadius=17.75mil|HoleSize=0mil|Usage=FLASHONLY|Rotation=270.000|XOffset=0mil|YOffset=0mil|HoleType=Round|Shape=RoundedRectangle|*
%AMROUNDEDRECTD37*
21,1,0.06699,0.03150,0,0,270.0*
21,1,0.03150,0.06699,0,0,270.0*
1,1,0.03550,-0.01575,-0.01575*
1,1,0.03550,-0.01575,0.01575*
1,1,0.03550,0.01575,0.01575*
1,1,0.03550,0.01575,-0.01575*
%
%ADD37ROUNDEDRECTD37*%
%ADD38C,0.05900*%
%ADD39C,0.06900*%
%ADD40C,0.08000*%
%ADD41C,0.05600*%
G04:AMPARAMS|DCode=42|XSize=39.37mil|YSize=70.87mil|CornerRadius=19.68mil|HoleSize=0mil|Usage=FLASHONLY|Rotation=180.000|XOffset=0mil|YOffset=0mil|HoleType=Round|Shape=RoundedRectangle|*
%AMROUNDEDRECTD42*
21,1,0.03937,0.03150,0,0,180.0*
21,1,0.00000,0.07087,0,0,180.0*
1,1,0.03937,0.00000,0.01575*
1,1,0.03937,0.00000,0.01575*
1,1,0.03937,0.00000,-0.01575*
1,1,0.03937,0.00000,-0.01575*
%
%ADD42ROUNDEDRECTD42*%
G04:AMPARAMS|DCode=43|XSize=39.37mil|YSize=86.61mil|CornerRadius=19.68mil|HoleSize=0mil|Usage=FLASHONLY|Rotation=180.000|XOffset=0mil|YOffset=0mil|HoleType=Round|Shape=RoundedRectangle|*
%AMROUNDEDRECTD43*
21,1,0.03937,0.04724,0,0,180.0*
21,1,0.00000,0.08661,0,0,180.0*
1,1,0.03937,0.00000,0.02362*
1,1,0.03937,0.00000,0.02362*
1,1,0.03937,0.00000,-0.02362*
1,1,0.03937,0.00000,-0.02362*
%
%ADD43ROUNDEDRECTD43*%
%ADD44C,0.05400*%
G36*
X138760Y73740D02*
X133248D01*
Y76693D01*
X135807Y79252D01*
X138760D01*
Y73740D01*
D02*
G37*
D14*
X98801Y60500D02*
D03*
X105500D02*
D03*
X98150Y50000D02*
D03*
X104850D02*
D03*
X118150Y4000D02*
D03*
X124850D02*
D03*
X178850Y5500D02*
D03*
X172150D02*
D03*
X112150Y32000D02*
D03*
X40850Y27500D02*
D03*
X34150D02*
D03*
X39850Y12000D02*
D03*
X33150D02*
D03*
X118850Y32000D02*
D03*
D15*
X172000Y29850D02*
D03*
Y23150D02*
D03*
X181500Y50150D02*
D03*
Y56850D02*
D03*
Y39150D02*
D03*
Y45850D02*
D03*
X124500Y21150D02*
D03*
Y27850D02*
D03*
X181500Y26199D02*
D03*
Y19500D02*
D03*
D17*
X229358Y61850D02*
D03*
Y93150D02*
D03*
X211642D02*
D03*
Y61850D02*
D03*
D21*
X50500Y13252D02*
D03*
X94000Y79752D02*
D03*
X101500Y80000D02*
D03*
X68000Y43252D02*
D03*
X94000Y86248D02*
D03*
X101500Y86496D02*
D03*
X68000Y49748D02*
D03*
X50500Y19748D02*
D03*
D22*
X165748Y18000D02*
D03*
X100748Y20000D02*
D03*
X159252Y18000D02*
D03*
X94252Y20000D02*
D03*
D23*
X148000Y11125D02*
D03*
X93000Y36875D02*
D03*
X144260Y21875D02*
D03*
X148000D02*
D03*
X151740D02*
D03*
Y11125D02*
D03*
X144260D02*
D03*
X96740Y26125D02*
D03*
X93000D02*
D03*
X89260D02*
D03*
Y36875D02*
D03*
X96740D02*
D03*
D24*
X81375Y60500D02*
D03*
X70625D02*
D03*
X81375Y64240D02*
D03*
Y56760D02*
D03*
X70625D02*
D03*
Y64240D02*
D03*
D27*
X25997Y41000D02*
D03*
X26998Y11500D02*
D03*
D28*
X13002Y41000D02*
D03*
X14003Y11500D02*
D03*
D29*
X114941Y80039D02*
D03*
Y83386D02*
D03*
Y90079D02*
D03*
Y93425D02*
D03*
X170059Y83386D02*
D03*
Y86732D02*
D03*
Y93425D02*
D03*
X114941Y86732D02*
D03*
Y76693D02*
D03*
Y73347D02*
D03*
Y70000D02*
D03*
Y66654D02*
D03*
Y63307D02*
D03*
Y59961D02*
D03*
Y56614D02*
D03*
Y53268D02*
D03*
Y49921D02*
D03*
Y46575D02*
D03*
X170059D02*
D03*
Y49921D02*
D03*
Y53268D02*
D03*
Y56614D02*
D03*
Y59961D02*
D03*
Y63307D02*
D03*
Y66654D02*
D03*
Y70000D02*
D03*
Y73347D02*
D03*
Y76693D02*
D03*
Y80039D02*
D03*
Y90079D02*
D03*
D30*
X114941Y42441D02*
D03*
Y97559D02*
D03*
X170059Y42441D02*
D03*
Y97559D02*
D03*
D31*
X136004Y70000D02*
D03*
Y63504D02*
D03*
X142500D02*
D03*
X148996D02*
D03*
X142500Y76496D02*
D03*
Y70000D02*
D03*
X148996D02*
D03*
Y76496D02*
D03*
D32*
X119075Y97559D02*
D03*
X125768D02*
D03*
X122421D02*
D03*
X132461D02*
D03*
X129114D02*
D03*
X139154D02*
D03*
X135807D02*
D03*
X145846D02*
D03*
X142500D02*
D03*
X152539D02*
D03*
X149193D02*
D03*
X159232D02*
D03*
X155886D02*
D03*
X162579D02*
D03*
X165925D02*
D03*
X119075Y42441D02*
D03*
X122421D02*
D03*
X125768D02*
D03*
X129114D02*
D03*
X132461D02*
D03*
X135807D02*
D03*
X139154D02*
D03*
X142500D02*
D03*
X145846D02*
D03*
X149193D02*
D03*
X152539D02*
D03*
X155886D02*
D03*
X159232D02*
D03*
X162579D02*
D03*
X165925D02*
D03*
D33*
X117000Y21260D02*
D03*
Y25000D02*
D03*
D34*
X191500Y72559D02*
D03*
Y61500D02*
D03*
X192000Y53720D02*
D03*
X192500Y48779D02*
D03*
X194500Y8721D02*
D03*
X72000Y73000D02*
D03*
X191500Y70000D02*
D03*
Y64059D02*
D03*
X192000Y56279D02*
D03*
X192500Y46220D02*
D03*
X194500Y11280D02*
D03*
X72000Y75559D02*
D03*
D35*
X241500Y78000D02*
D03*
X20000Y25000D02*
D03*
X23000Y80500D02*
D03*
D36*
X202000Y47500D02*
D03*
Y57500D02*
D03*
D37*
Y67500D02*
D03*
D38*
X50500Y88500D02*
D03*
Y49130D02*
D03*
X204500Y29842D02*
D03*
X50500Y58973D02*
D03*
Y68815D02*
D03*
Y78658D02*
D03*
X204500Y20000D02*
D03*
D39*
X113500Y12000D02*
D03*
X83972D02*
D03*
X93815D02*
D03*
X103657D02*
D03*
D40*
X230000Y28000D02*
D03*
Y9496D02*
D03*
Y46504D02*
D03*
D41*
X197000Y93000D02*
D03*
Y83000D02*
D03*
D42*
X131492Y25197D02*
D03*
X165508D02*
D03*
D43*
X131492Y9449D02*
D03*
X165508D02*
D03*
D44*
X7500Y58500D02*
D03*
X161000Y65000D02*
D03*
X212500Y50000D02*
D03*
X182000Y63500D02*
D03*
X120000Y75000D02*
D03*
X79000Y43500D02*
D03*
X123500Y12000D02*
D03*
X125000Y33500D02*
D03*
X89000Y60000D02*
D03*
X85500Y81500D02*
D03*
X110000Y90500D02*
D03*
X148000Y5500D02*
D03*
X142500Y54752D02*
D03*
X172000Y35500D02*
D03*
X186500Y3000D02*
D03*
X242110Y62350D02*
D03*
X205000Y76000D02*
D03*
X242110Y93650D02*
D03*
X73836Y14086D02*
D03*
X149000Y82500D02*
D03*
X108500Y22500D02*
D03*
X87000Y45500D02*
D03*
X135500Y91000D02*
D03*
X79500Y94000D02*
D03*
X75500Y22000D02*
D03*
X42000Y34500D02*
D03*
X137500Y17000D02*
D03*
X137000Y10500D02*
D03*
X136500Y4500D02*
D03*
X152500Y34500D02*
D03*
X90000Y74000D02*
D03*
X102000D02*
D03*
X131500Y56500D02*
D03*
X120000Y61500D02*
D03*
Y68000D02*
D03*
X164000Y54000D02*
D03*
X176000Y60500D02*
D03*
X158000Y4500D02*
D03*
M02*
