G04*
G04 #@! TF.GenerationSoftware,Altium Limited,Altium Designer,26.3.0 (6)*
G04*
G04 Layer_Color=65535*
%FSLAX25Y25*%
%MOIN*%
G70*
G04*
G04 #@! TF.SameCoordinates,B6D56E79-C978-43EB-9399-F5FF78815BC7*
G04*
G04*
G04 #@! TF.FilePolarity,Positive*
G04*
G01*
G75*
%ADD10C,0.00600*%
%ADD11C,0.00787*%
%ADD12C,0.00500*%
%ADD13R,0.05600X0.01456*%
D10*
X101346Y57146D02*
X102954D01*
X101346Y63854D02*
X102954D01*
X100696Y46646D02*
X102304D01*
X100696Y53354D02*
X102304D01*
X120696Y646D02*
X122304D01*
X120696Y7354D02*
X122304D01*
X174696Y8854D02*
X176304D01*
X174696Y2146D02*
X176304D01*
X168646Y25696D02*
Y27304D01*
X175354Y25696D02*
Y27304D01*
X184854Y52696D02*
Y54304D01*
X178146Y52696D02*
Y54304D01*
X184854Y41696D02*
Y43304D01*
X178146Y41696D02*
Y43304D01*
X127854Y23696D02*
Y25304D01*
X121146Y23696D02*
Y25304D01*
X178146Y22046D02*
Y23654D01*
X184854Y22046D02*
Y23654D01*
X36696Y30854D02*
X38304D01*
X36696Y24146D02*
X38304D01*
X35696Y15354D02*
X37304D01*
X35696Y8646D02*
X37304D01*
X114696Y28646D02*
X116304D01*
X114696Y35354D02*
X116304D01*
X47539Y15697D02*
Y17303D01*
X53461Y15697D02*
Y17303D01*
X91039Y82197D02*
Y83803D01*
X96961Y82197D02*
Y83803D01*
X98539Y82445D02*
Y84051D01*
X104461Y82445D02*
Y84051D01*
X161697Y15039D02*
X163303D01*
X161697Y20961D02*
X163303D01*
X96697Y17039D02*
X98303D01*
X96697Y22961D02*
X98303D01*
X65039Y45697D02*
Y47303D01*
X70961Y45697D02*
Y47303D01*
X141500Y12550D02*
Y20450D01*
X154500Y12550D02*
Y20450D01*
X99500Y27550D02*
Y35450D01*
X86500Y27550D02*
Y35450D01*
X72050Y54000D02*
X79950D01*
X72050Y67000D02*
X79950D01*
X216000Y53500D02*
X244000D01*
X216000Y2500D02*
Y53500D01*
Y2500D02*
X244000D01*
Y53500D01*
X114500Y18030D02*
X119500D01*
Y27430D01*
X114500D02*
X119500D01*
X114500Y18030D02*
Y27430D01*
X193800Y68180D02*
Y74379D01*
X189200Y68180D02*
X193800D01*
X189200D02*
Y74379D01*
X193800D01*
X189200Y59680D02*
Y65879D01*
X193800D01*
Y59680D02*
Y65879D01*
X189200Y59680D02*
X193800D01*
X189700Y51900D02*
Y58100D01*
X194300D01*
Y51900D02*
Y58100D01*
X189700Y51900D02*
X194300D01*
X194800Y44400D02*
Y50600D01*
X190200Y44400D02*
X194800D01*
X190200D02*
Y50600D01*
X194800D01*
X192200Y6900D02*
Y13100D01*
X196800D01*
Y6900D02*
Y13100D01*
X192200Y6900D02*
X196800D01*
X69700Y71180D02*
Y77380D01*
X74300D01*
Y71180D02*
Y77380D01*
X69700Y71180D02*
X74300D01*
D11*
X215677Y65689D02*
X225323D01*
X232311Y66378D02*
Y88622D01*
X215677Y89311D02*
X225323D01*
X208689Y66378D02*
Y88622D01*
X14284Y37949D02*
X24716D01*
X14284Y43859D02*
Y44051D01*
Y37949D02*
Y38141D01*
Y44051D02*
X24716D01*
Y43859D02*
Y44051D01*
Y37949D02*
Y38141D01*
X15283Y8449D02*
X25717D01*
X15283Y14359D02*
Y14551D01*
Y8449D02*
Y8641D01*
Y14551D02*
X25717D01*
Y14359D02*
Y14551D01*
Y8449D02*
Y8641D01*
D12*
X112185Y120295D02*
X172815D01*
Y100413D02*
Y120295D01*
X112185Y39587D02*
X172815D01*
X112185Y100413D02*
Y120295D01*
D13*
X117000Y18358D02*
D03*
M02*
