G04*
G04 #@! TF.GenerationSoftware,Altium Limited,Altium Designer,26.3.0 (6)*
G04*
G04 Layer_Physical_Order=3*
G04 Layer_Color=128*
%FSLAX25Y25*%
%MOIN*%
G70*
G04*
G04 #@! TF.SameCoordinates,A5B6A449-B9B4-44BE-A50F-CD135E59EE6A*
G04*
G04*
G04 #@! TF.FilePolarity,Negative*
G04*
G01*
G75*
%ADD52C,0.04000*%
%ADD53C,0.14000*%
%ADD55C,0.08331*%
G04:AMPARAMS|DCode=56|XSize=99mil|YSize=99mil|CornerRadius=0mil|HoleSize=0mil|Usage=FLASHONLY|Rotation=0.000|XOffset=0mil|YOffset=0mil|HoleType=Round|Shape=Relief|Width=10mil|Gap=10mil|Entries=4|*
%AMTHD56*
7,0,0,0.09900,0.07900,0.01000,45*
%
%ADD56THD56*%
%ADD59C,0.07600*%
%ADD60C,0.07900*%
%ADD61O,0.06362X0.09512*%
%ADD62O,0.06362X0.11087*%
%ADD63C,0.08900*%
%ADD64C,0.10000*%
%ADD65C,0.06800*%
G04:AMPARAMS|DCode=66|XSize=88mil|YSize=88mil|CornerRadius=0mil|HoleSize=0mil|Usage=FLASHONLY|Rotation=0.000|XOffset=0mil|YOffset=0mil|HoleType=Round|Shape=Relief|Width=10mil|Gap=10mil|Entries=4|*
%AMTHD66*
7,0,0,0.08800,0.06800,0.01000,45*
%
%ADD66THD66*%
D52*
X249451Y99813D02*
X249500Y0D01*
X0Y100343D02*
X249451Y99813D01*
X0Y0D02*
Y100343D01*
Y0D02*
X249500D01*
D53*
X241500Y78000D02*
D03*
X20000Y25000D02*
D03*
X23000Y80500D02*
D03*
D55*
X202000Y47500D02*
D03*
Y57500D02*
D03*
Y67500D02*
D03*
D56*
X50500Y49130D02*
D03*
X204500Y29842D02*
D03*
D59*
X197000Y93000D02*
D03*
Y83000D02*
D03*
D60*
X50500Y88500D02*
D03*
Y58973D02*
D03*
Y68815D02*
D03*
Y78658D02*
D03*
X204500Y20000D02*
D03*
D61*
X131492Y25197D02*
D03*
X165508D02*
D03*
D62*
X131492Y9449D02*
D03*
X165508D02*
D03*
D63*
X113500Y12000D02*
D03*
X83972D02*
D03*
X93815D02*
D03*
X103657D02*
D03*
D64*
X230000Y28000D02*
D03*
Y9496D02*
D03*
Y46504D02*
D03*
D65*
X7500Y58500D02*
D03*
X182000Y63500D02*
D03*
X120000Y75000D02*
D03*
X79000Y43500D02*
D03*
X123500Y12000D02*
D03*
X125000Y33500D02*
D03*
X89000Y60000D02*
D03*
X85500Y81500D02*
D03*
X110000Y90500D02*
D03*
X148000Y5500D02*
D03*
X142500Y54752D02*
D03*
X172000Y35500D02*
D03*
X186500Y3000D02*
D03*
X242110Y62350D02*
D03*
X205000Y76000D02*
D03*
X242110Y93650D02*
D03*
X73836Y14086D02*
D03*
X149000Y82500D02*
D03*
X42000Y34500D02*
D03*
X137500Y17000D02*
D03*
X137000Y10500D02*
D03*
X136500Y4500D02*
D03*
X152500Y34500D02*
D03*
X90000Y74000D02*
D03*
X102000D02*
D03*
X120000Y61500D02*
D03*
Y68000D02*
D03*
X164000Y54000D02*
D03*
X158000Y4500D02*
D03*
D66*
X161000Y65000D02*
D03*
X108500Y22500D02*
D03*
X87000Y45500D02*
D03*
X135500Y91000D02*
D03*
X79500Y94000D02*
D03*
X75500Y22000D02*
D03*
X131500Y56500D02*
D03*
X176000Y60500D02*
D03*
M02*
