G04*
G04 #@! TF.GenerationSoftware,Altium Limited,Altium Designer,26.3.0 (6)*
G04*
G04 Layer_Color=65535*
%FSLAX25Y25*%
%MOIN*%
G70*
G04*
G04 #@! TF.SameCoordinates,A5B6A449-B9B4-44BE-A50F-CD135E59EE6A*
G04*
G04*
G04 #@! TF.FilePolarity,Positive*
G04*
G01*
G75*
%ADD10C,0.00600*%
%ADD11C,0.00787*%
%ADD12C,0.00500*%
%ADD13R,0.05600X0.01456*%
D10*
X216000Y2500D02*
X244000D01*
Y53500D01*
X114500Y18030D02*
X119500D01*
X72050Y67000D02*
X79950D01*
X216000Y53500D02*
X244000D01*
X216000Y2500D02*
Y53500D01*
X119500Y18030D02*
Y18779D01*
X114500Y18030D02*
Y18779D01*
X96832Y17039D02*
X98168D01*
X65039Y45832D02*
Y47168D01*
X104461Y82579D02*
Y83916D01*
X161831Y15039D02*
X163169D01*
X161831Y20961D02*
X163169D01*
X99500Y27550D02*
Y35450D01*
X86500Y27550D02*
Y35450D01*
X72050Y54000D02*
X79950D01*
X70961Y45832D02*
Y47168D01*
X141500Y12550D02*
Y20450D01*
X154500Y12550D02*
Y20450D01*
X98539Y82579D02*
Y83916D01*
X121146Y23832D02*
Y25168D01*
X178146Y22181D02*
Y23518D01*
X184854Y22181D02*
Y23518D01*
Y41831D02*
Y43169D01*
X178146Y41831D02*
Y43169D01*
X127854Y23832D02*
Y25168D01*
X100831Y53354D02*
X102169D01*
X120832Y646D02*
X122169D01*
X120832Y7354D02*
X122169D01*
X101482Y57146D02*
X102819D01*
X101482Y63854D02*
X102819D01*
X100831Y46646D02*
X102169D01*
X175354Y25831D02*
Y27169D01*
X184854Y52832D02*
Y54168D01*
X178146Y52832D02*
Y54168D01*
X174831Y8854D02*
X176169D01*
X174831Y2146D02*
X176169D01*
X36832Y24146D02*
X38168D01*
X35831Y15354D02*
X37168D01*
X35831Y8646D02*
X37168D01*
X36832Y30854D02*
X38168D01*
X53461Y15832D02*
Y17168D01*
X91039Y82332D02*
Y83669D01*
X96961Y82332D02*
Y83669D01*
X114831Y28646D02*
X116168D01*
X114831Y35354D02*
X116168D01*
X47539Y15832D02*
Y17168D01*
D11*
X208689Y66378D02*
Y88622D01*
X215677Y65689D02*
X225323D01*
X232311Y66378D02*
Y88622D01*
X215677Y89311D02*
X225323D01*
X14284Y44051D02*
X24716D01*
X14284Y37949D02*
X24716D01*
X15283Y14551D02*
X25717D01*
X15283Y8449D02*
X25717D01*
D12*
X112185Y120295D02*
X172815D01*
Y100413D02*
Y120295D01*
X112185Y39587D02*
X172815D01*
X112185Y100413D02*
Y120295D01*
D13*
X117000Y18358D02*
D03*
M02*
