G04*
G04 #@! TF.GenerationSoftware,Altium Limited,Altium Designer,26.3.0 (6)*
G04*
G04 Layer_Physical_Order=4*
G04 Layer_Color=16711680*
%FSLAX25Y25*%
%MOIN*%
G70*
G04*
G04 #@! TF.SameCoordinates,A5B6A449-B9B4-44BE-A50F-CD135E59EE6A*
G04*
G04*
G04 #@! TF.FilePolarity,Positive*
G04*
G01*
G75*
%ADD14R,0.02762X0.05509*%
%ADD15R,0.05509X0.02762*%
%ADD17R,0.05118X0.06102*%
%ADD21R,0.04724X0.02559*%
%ADD22R,0.02559X0.04724*%
%ADD26R,0.02362X0.01378*%
%ADD38C,0.05900*%
%ADD39C,0.06900*%
%ADD40C,0.08000*%
%ADD41C,0.05600*%
G04:AMPARAMS|DCode=42|XSize=39.37mil|YSize=70.87mil|CornerRadius=19.68mil|HoleSize=0mil|Usage=FLASHONLY|Rotation=180.000|XOffset=0mil|YOffset=0mil|HoleType=Round|Shape=RoundedRectangle|*
%AMROUNDEDRECTD42*
21,1,0.03937,0.03150,0,0,180.0*
21,1,0.00000,0.07087,0,0,180.0*
1,1,0.03937,0.00000,0.01575*
1,1,0.03937,0.00000,0.01575*
1,1,0.03937,0.00000,-0.01575*
1,1,0.03937,0.00000,-0.01575*
%
%ADD42ROUNDEDRECTD42*%
G04:AMPARAMS|DCode=43|XSize=39.37mil|YSize=86.61mil|CornerRadius=19.68mil|HoleSize=0mil|Usage=FLASHONLY|Rotation=180.000|XOffset=0mil|YOffset=0mil|HoleType=Round|Shape=RoundedRectangle|*
%AMROUNDEDRECTD43*
21,1,0.03937,0.04724,0,0,180.0*
21,1,0.00000,0.08661,0,0,180.0*
1,1,0.03937,0.00000,0.02362*
1,1,0.03937,0.00000,0.02362*
1,1,0.03937,0.00000,-0.02362*
1,1,0.03937,0.00000,-0.02362*
%
%ADD43ROUNDEDRECTD43*%
%ADD46C,0.01000*%
%ADD47C,0.02000*%
%ADD48C,0.06000*%
%ADD49C,0.06299*%
G04:AMPARAMS|DCode=50|XSize=62.99mil|YSize=62.99mil|CornerRadius=15.75mil|HoleSize=0mil|Usage=FLASHONLY|Rotation=270.000|XOffset=0mil|YOffset=0mil|HoleType=Round|Shape=RoundedRectangle|*
%AMROUNDEDRECTD50*
21,1,0.06299,0.03150,0,0,270.0*
21,1,0.03150,0.06299,0,0,270.0*
1,1,0.03150,-0.01575,-0.01575*
1,1,0.03150,-0.01575,0.01575*
1,1,0.03150,0.01575,0.01575*
1,1,0.03150,0.01575,-0.01575*
%
%ADD50ROUNDEDRECTD50*%
%ADD51C,0.05000*%
%ADD67R,0.02362X0.04528*%
G04:AMPARAMS|DCode=68|XSize=125.98mil|YSize=68.9mil|CornerRadius=2.07mil|HoleSize=0mil|Usage=FLASHONLY|Rotation=180.000|XOffset=0mil|YOffset=0mil|HoleType=Round|Shape=RoundedRectangle|*
%AMROUNDEDRECTD68*
21,1,0.12598,0.06476,0,0,180.0*
21,1,0.12185,0.06890,0,0,180.0*
1,1,0.00413,-0.06093,0.03238*
1,1,0.00413,0.06093,0.03238*
1,1,0.00413,0.06093,-0.03238*
1,1,0.00413,-0.06093,-0.03238*
%
%ADD68ROUNDEDRECTD68*%
G04:AMPARAMS|DCode=69|XSize=35.43mil|YSize=68.9mil|CornerRadius=1.95mil|HoleSize=0mil|Usage=FLASHONLY|Rotation=180.000|XOffset=0mil|YOffset=0mil|HoleType=Round|Shape=RoundedRectangle|*
%AMROUNDEDRECTD69*
21,1,0.03543,0.06500,0,0,180.0*
21,1,0.03154,0.06890,0,0,180.0*
1,1,0.00390,-0.01577,0.03250*
1,1,0.00390,0.01577,0.03250*
1,1,0.00390,0.01577,-0.03250*
1,1,0.00390,-0.01577,-0.03250*
%
%ADD69ROUNDEDRECTD69*%
%ADD70R,0.01378X0.02362*%
G04:AMPARAMS|DCode=71|XSize=53.43mil|YSize=22.53mil|CornerRadius=11.26mil|HoleSize=0mil|Usage=FLASHONLY|Rotation=180.000|XOffset=0mil|YOffset=0mil|HoleType=Round|Shape=RoundedRectangle|*
%AMROUNDEDRECTD71*
21,1,0.05343,0.00000,0,0,180.0*
21,1,0.03091,0.02253,0,0,180.0*
1,1,0.02253,-0.01545,0.00000*
1,1,0.02253,0.01545,0.00000*
1,1,0.02253,0.01545,0.00000*
1,1,0.02253,-0.01545,0.00000*
%
%ADD71ROUNDEDRECTD71*%
%ADD72R,0.05343X0.02253*%
%ADD73R,0.01181X0.04528*%
%ADD74R,0.02362X0.02756*%
G36*
X111226Y100107D02*
X111243Y100023D01*
X111464Y99692D01*
X111795Y99471D01*
X112185Y99394D01*
X172815D01*
X173205Y99471D01*
X173536Y99692D01*
X173724Y99974D01*
X249451Y99813D01*
X249500Y707D01*
X248793Y0D01*
X189864D01*
X189562Y456D01*
X189387Y1000D01*
X189761Y1649D01*
X189989Y2500D01*
X183010D01*
X183238Y1649D01*
X183613Y1000D01*
X183438Y456D01*
X183136Y0D01*
X0D01*
Y99635D01*
X708Y100341D01*
X111226Y100107D01*
D02*
G37*
%LPC*%
G36*
X187681Y96969D02*
X186000D01*
Y95780D01*
X187681D01*
Y96969D01*
D02*
G37*
G36*
X185000D02*
X183319D01*
Y95780D01*
X185000D01*
Y96969D01*
D02*
G37*
G36*
X242610Y97139D02*
Y94150D01*
X245600D01*
X245372Y95000D01*
X244911Y95799D01*
X244259Y96450D01*
X243461Y96911D01*
X242610Y97139D01*
D02*
G37*
G36*
X241610D02*
X240759Y96911D01*
X239961Y96450D01*
X239310Y95799D01*
X238849Y95000D01*
X238621Y94150D01*
X241610D01*
Y97139D01*
D02*
G37*
G36*
X154914Y96866D02*
X147571D01*
Y93443D01*
X147571Y93440D01*
Y93440D01*
X147571Y93153D01*
X147446Y93048D01*
X146571Y92710D01*
X146133Y93003D01*
X145303Y93168D01*
X142212D01*
X142208Y93167D01*
X139294Y96081D01*
X138798Y96413D01*
X138212Y96529D01*
X106425D01*
X105840Y96413D01*
X105344Y96081D01*
X104510Y95248D01*
X102311D01*
Y95089D01*
X98059D01*
X97474Y94972D01*
X96978Y94641D01*
X94419Y92081D01*
X94087Y91585D01*
X93971Y91000D01*
Y87201D01*
X91799D01*
Y79098D01*
X93829D01*
Y76368D01*
X92829Y76100D01*
X92801Y76149D01*
X92149Y76801D01*
X91351Y77262D01*
X90461Y77500D01*
X89539D01*
X88649Y77262D01*
X87851Y76801D01*
X87199Y76149D01*
X86739Y75351D01*
X86500Y74461D01*
Y73539D01*
X86739Y72649D01*
X87199Y71851D01*
X87851Y71199D01*
X88649Y70739D01*
X89539Y70500D01*
X90461D01*
X91351Y70739D01*
X92149Y71199D01*
X92801Y71851D01*
X92829Y71900D01*
X93829Y71632D01*
Y55902D01*
X91799D01*
Y48535D01*
X91269Y47754D01*
X91006Y47561D01*
X89801Y47649D01*
X89149Y48301D01*
X88351Y48761D01*
X87461Y49000D01*
X86539D01*
X85649Y48761D01*
X84851Y48301D01*
X84199Y47649D01*
X83738Y46851D01*
X83500Y45961D01*
Y45039D01*
X83738Y44149D01*
X84199Y43351D01*
X84851Y42699D01*
X85649Y42239D01*
X86236Y42081D01*
Y39873D01*
X85862Y39028D01*
X85760Y39028D01*
X83000D01*
Y36748D01*
X82000D01*
Y39028D01*
X80112D01*
X79527Y39028D01*
X79501Y39410D01*
D01*
X79461Y40000D01*
X79510Y40013D01*
X80351Y40238D01*
X81149Y40699D01*
X81801Y41351D01*
X82262Y42149D01*
X82490Y43000D01*
X75511D01*
X75739Y42149D01*
X76199Y41351D01*
X76851Y40699D01*
X77649Y40238D01*
X78073Y40125D01*
X78183Y39060D01*
X78136Y39028D01*
X75500D01*
Y36748D01*
X74500D01*
Y39028D01*
X71638D01*
Y37867D01*
X70638Y37453D01*
X64149Y43942D01*
X63487Y44384D01*
X62707Y44539D01*
X52356D01*
X52186Y45006D01*
X52181Y45539D01*
X52925Y45969D01*
X53661Y46705D01*
X54181Y47605D01*
X54450Y48610D01*
Y49650D01*
X54181Y50655D01*
X53661Y51555D01*
X52925Y52291D01*
X52025Y52811D01*
X51020Y53080D01*
X49980D01*
X48975Y52811D01*
X48075Y52291D01*
X47339Y51555D01*
X46819Y50655D01*
X46550Y49650D01*
Y48610D01*
X46819Y47605D01*
X47339Y46705D01*
X48075Y45969D01*
X48819Y45539D01*
X48814Y45006D01*
X48644Y44539D01*
X32345D01*
X16942Y59942D01*
X16280Y60384D01*
X15500Y60539D01*
X10364D01*
X10301Y60649D01*
X9649Y61301D01*
X8851Y61761D01*
X7961Y62000D01*
X7039D01*
X6149Y61761D01*
X5351Y61301D01*
X4699Y60649D01*
X4239Y59851D01*
X4000Y58961D01*
Y58039D01*
X4239Y57149D01*
X4699Y56351D01*
X5351Y55699D01*
X6149Y55238D01*
X7039Y55000D01*
X7961D01*
X8851Y55238D01*
X9649Y55699D01*
X10301Y56351D01*
X10364Y56461D01*
X14655D01*
X30058Y41058D01*
X30720Y40616D01*
X31500Y40461D01*
X61862D01*
X66628Y35695D01*
X66245Y34771D01*
X65978D01*
X65512Y34679D01*
X65117Y34415D01*
X64853Y34019D01*
X64760Y33553D01*
Y27053D01*
X64853Y26587D01*
X65117Y26192D01*
X65512Y25928D01*
X65978Y25835D01*
X69132D01*
X69598Y25928D01*
X69993Y26192D01*
X70257Y26587D01*
X70350Y27053D01*
Y28723D01*
X71638D01*
Y27972D01*
X75592D01*
X76127Y26972D01*
X76102Y26935D01*
X75985Y26349D01*
Y25730D01*
X75755Y25500D01*
X75039D01*
X74149Y25262D01*
X73351Y24801D01*
X72699Y24149D01*
X72238Y23351D01*
X72000Y22461D01*
Y21539D01*
X72238Y20649D01*
X72699Y19851D01*
X73351Y19199D01*
X74149Y18738D01*
X75039Y18500D01*
X75961D01*
X76851Y18738D01*
X77649Y19199D01*
X78301Y19851D01*
X78762Y20649D01*
X79000Y21539D01*
Y22461D01*
X78762Y23351D01*
X78458Y23877D01*
X78596Y24016D01*
X78928Y24512D01*
X79044Y25097D01*
Y25716D01*
X81301Y27972D01*
X85862D01*
Y30233D01*
X86862Y30647D01*
X87451Y30058D01*
X87451Y30058D01*
X88113Y29616D01*
X88893Y29461D01*
X90155D01*
X93209Y26407D01*
X93209Y26407D01*
X93871Y25965D01*
X94651Y25810D01*
X94651Y25810D01*
X105446D01*
X105860Y24810D01*
X105699Y24649D01*
X105238Y23851D01*
X105000Y22961D01*
Y22039D01*
X105238Y21149D01*
X105699Y20351D01*
X106351Y19699D01*
X107149Y19239D01*
X108039Y19000D01*
X108961D01*
X109851Y19239D01*
X110649Y19699D01*
X111301Y20351D01*
X111761Y21149D01*
X111873Y21567D01*
X112950Y21905D01*
X119297Y15558D01*
X119958Y15116D01*
X120203Y15067D01*
X120453Y14604D01*
X120609Y13993D01*
X120238Y13351D01*
X120010Y12500D01*
X126989D01*
X126761Y13351D01*
X126409Y13961D01*
X126632Y14596D01*
X126903Y14961D01*
X129078D01*
X129418Y13961D01*
X129375Y13928D01*
X128899Y13308D01*
X128600Y12586D01*
X128498Y11811D01*
Y7087D01*
X128600Y6312D01*
X128899Y5590D01*
X129375Y4969D01*
X129995Y4494D01*
X130717Y4194D01*
X131492Y4092D01*
X132000Y4159D01*
X132364Y4116D01*
X133150Y3478D01*
X133238Y3149D01*
X133699Y2351D01*
X134351Y1699D01*
X135149Y1238D01*
X136039Y1000D01*
X136961D01*
X137851Y1238D01*
X138649Y1699D01*
X139301Y2351D01*
X139658Y2971D01*
X141343D01*
X141928Y3087D01*
X142425Y3419D01*
X143587Y4581D01*
X144703Y4282D01*
X144738Y4149D01*
X145199Y3351D01*
X145851Y2699D01*
X146649Y2238D01*
X147500Y2011D01*
Y5500D01*
X148000D01*
Y6000D01*
X151489D01*
X151261Y6851D01*
X150801Y7649D01*
X150149Y8301D01*
X149772Y8518D01*
X149512Y9672D01*
X153181Y13342D01*
X153513Y13838D01*
X153629Y14423D01*
Y21628D01*
X153513Y22213D01*
X153181Y22709D01*
X152982Y22909D01*
Y24197D01*
X156445D01*
Y7644D01*
X155851Y7301D01*
X155199Y6649D01*
X154738Y5851D01*
X154500Y4961D01*
Y4039D01*
X154738Y3149D01*
X155199Y2351D01*
X155851Y1699D01*
X156649Y1238D01*
X157539Y1000D01*
X158461D01*
X159351Y1238D01*
X160149Y1699D01*
X160801Y2351D01*
X161261Y3149D01*
X161500Y4039D01*
Y4961D01*
X161261Y5851D01*
X160801Y6649D01*
X160149Y7301D01*
X159504Y7673D01*
Y24197D01*
X160599D01*
Y27461D01*
Y30724D01*
X159897D01*
X159363Y31724D01*
X159377Y31746D01*
X161031D01*
Y39254D01*
X156269D01*
Y36971D01*
X155414Y36687D01*
X155269Y36680D01*
X154649Y37301D01*
X153851Y37762D01*
X152961Y38000D01*
X152039D01*
X151149Y37762D01*
X150351Y37301D01*
X149699Y36649D01*
X149239Y35851D01*
X149000Y34961D01*
Y34039D01*
X149003Y34029D01*
X149002Y33938D01*
X148415Y32913D01*
X147919Y32581D01*
X146525Y31188D01*
X146215Y30724D01*
X142996D01*
X142933Y31042D01*
X142601Y31538D01*
X140231Y33909D01*
Y39254D01*
X135468D01*
Y31746D01*
X137123D01*
X137137Y31724D01*
X136603Y30724D01*
X136401D01*
Y27461D01*
Y24197D01*
X137012D01*
Y20493D01*
X136149Y20261D01*
X135351Y19801D01*
X134699Y19149D01*
X134636Y19039D01*
X121583D01*
X111331Y29291D01*
X110670Y29733D01*
X109890Y29888D01*
X95496D01*
X93487Y31897D01*
X93870Y32821D01*
X95081D01*
Y40094D01*
X95931Y40230D01*
X95932Y40230D01*
X96029Y40239D01*
X96978Y40153D01*
X97018Y39350D01*
Y32821D01*
X101780D01*
Y35471D01*
X105319D01*
Y34622D01*
X113421D01*
Y37215D01*
X121781Y45575D01*
X122112Y46071D01*
X122229Y46656D01*
Y47299D01*
X127917D01*
Y53786D01*
X128009Y53853D01*
X128917Y54133D01*
X129351Y53699D01*
X130149Y53238D01*
X131039Y53000D01*
X131961D01*
X132652Y53185D01*
X140419Y45419D01*
X140915Y45087D01*
X141500Y44971D01*
X145209D01*
X145794Y45087D01*
X146290Y45419D01*
X159842Y58971D01*
X172842D01*
X173199Y58351D01*
X173851Y57699D01*
X174649Y57239D01*
X175539Y57000D01*
X176461D01*
X177351Y57239D01*
X178149Y57699D01*
X178801Y58351D01*
X179262Y59149D01*
X179432Y59786D01*
X180102Y60211D01*
X180500Y60325D01*
X180649Y60238D01*
X181500Y60010D01*
Y63500D01*
Y66989D01*
X180649Y66761D01*
X179851Y66301D01*
X179199Y65649D01*
X178738Y64851D01*
X178568Y64214D01*
X177898Y63789D01*
X177500Y63675D01*
X177351Y63762D01*
X176461Y64000D01*
X175539D01*
X174649Y63762D01*
X173851Y63301D01*
X173199Y62649D01*
X172842Y62029D01*
X164393D01*
X164115Y62415D01*
X163904Y63029D01*
X164261Y63649D01*
X164500Y64539D01*
Y65461D01*
X164261Y66351D01*
X163801Y67149D01*
X163149Y67801D01*
X162351Y68261D01*
X162251Y68288D01*
X162284Y69315D01*
X162446Y69347D01*
X162942Y69678D01*
X169385Y76121D01*
X171746D01*
Y75269D01*
X179254D01*
Y76656D01*
X179754Y76756D01*
X180250Y77087D01*
X182395Y79232D01*
X183319Y78850D01*
Y78531D01*
X185000D01*
Y80221D01*
X185500D01*
Y80721D01*
X187681D01*
Y81360D01*
X193559D01*
X193959Y80667D01*
X194667Y79959D01*
X195533Y79459D01*
X196500Y79200D01*
X197500D01*
X198467Y79459D01*
X199333Y79959D01*
X200041Y80667D01*
X200541Y81533D01*
X200800Y82500D01*
Y83500D01*
X200541Y84467D01*
X200041Y85333D01*
X199333Y86041D01*
X198467Y86541D01*
X197500Y86800D01*
X196500D01*
X195533Y86541D01*
X194667Y86041D01*
X193959Y85333D01*
X193459Y84467D01*
X193446Y84419D01*
X187681D01*
Y84469D01*
X184779D01*
X184397Y85392D01*
X186581Y87577D01*
X186913Y88073D01*
X187029Y88658D01*
Y91031D01*
X187681D01*
Y91331D01*
X193576D01*
X193959Y90667D01*
X194667Y89959D01*
X195533Y89459D01*
X196500Y89200D01*
X197500D01*
X198467Y89459D01*
X199333Y89959D01*
X200041Y90667D01*
X200541Y91533D01*
X200800Y92500D01*
Y93500D01*
X200541Y94467D01*
X200041Y95333D01*
X199333Y96041D01*
X198467Y96541D01*
X197500Y96800D01*
X196500D01*
X195533Y96541D01*
X194667Y96041D01*
X193959Y95333D01*
X193459Y94467D01*
X193438Y94390D01*
X187681D01*
Y94779D01*
X185500D01*
X183319D01*
Y93591D01*
Y91031D01*
X183971D01*
Y89292D01*
X180178Y85500D01*
X179254Y85882D01*
Y86731D01*
X171746D01*
Y85879D01*
X169325D01*
X159382Y95822D01*
X158886Y96153D01*
X158300Y96270D01*
X154914D01*
Y96866D01*
D02*
G37*
G36*
X79961Y97500D02*
X79039D01*
X78149Y97262D01*
X77351Y96801D01*
X76699Y96149D01*
X76239Y95351D01*
X76000Y94461D01*
Y93539D01*
X76239Y92649D01*
X76699Y91851D01*
X77351Y91199D01*
X78149Y90738D01*
X79039Y90500D01*
X79961D01*
X80851Y90738D01*
X81649Y91199D01*
X82301Y91851D01*
X82762Y92649D01*
X83000Y93539D01*
Y94461D01*
X82762Y95351D01*
X82301Y96149D01*
X81649Y96801D01*
X80851Y97262D01*
X79961Y97500D01*
D02*
G37*
G36*
X245600Y93150D02*
X242610D01*
Y90160D01*
X243461Y90388D01*
X244259Y90849D01*
X244911Y91501D01*
X245372Y92299D01*
X245600Y93150D01*
D02*
G37*
G36*
X241610D02*
X238621D01*
X238849Y92299D01*
X239310Y91501D01*
X239961Y90849D01*
X240759Y90388D01*
X241610Y90160D01*
Y93150D01*
D02*
G37*
G36*
X51020Y92450D02*
X51000D01*
Y89000D01*
X54450D01*
Y89020D01*
X54181Y90025D01*
X53661Y90925D01*
X52925Y91661D01*
X52025Y92181D01*
X51020Y92450D01*
D02*
G37*
G36*
X50000D02*
X49980D01*
X48975Y92181D01*
X48075Y91661D01*
X47339Y90925D01*
X46819Y90025D01*
X46550Y89020D01*
Y89000D01*
X50000D01*
Y92450D01*
D02*
G37*
G36*
X54450Y88000D02*
X51000D01*
Y84550D01*
X51020D01*
X52025Y84819D01*
X52925Y85339D01*
X53661Y86075D01*
X54181Y86975D01*
X54450Y87980D01*
Y88000D01*
D02*
G37*
G36*
X50000D02*
X46550D01*
Y87980D01*
X46819Y86975D01*
X47339Y86075D01*
X48075Y85339D01*
X48975Y84819D01*
X49980Y84550D01*
X50000D01*
Y88000D01*
D02*
G37*
G36*
X77142Y87201D02*
X74083D01*
Y83650D01*
X77142D01*
Y87201D01*
D02*
G37*
G36*
X86000Y84990D02*
Y82000D01*
X88990D01*
X88762Y82851D01*
X88301Y83649D01*
X87649Y84301D01*
X86851Y84762D01*
X86000Y84990D01*
D02*
G37*
G36*
X77142Y82650D02*
X74083D01*
Y79098D01*
X77142D01*
Y82650D01*
D02*
G37*
G36*
X187681Y79720D02*
X186000D01*
Y78531D01*
X187681D01*
Y79720D01*
D02*
G37*
G36*
X88990Y81000D02*
X86000D01*
Y78010D01*
X86851Y78238D01*
X87649Y78699D01*
X88301Y79351D01*
X88762Y80149D01*
X88990Y81000D01*
D02*
G37*
G36*
X81201Y87201D02*
X78142D01*
Y83150D01*
Y79098D01*
X81201D01*
Y80158D01*
X82201Y80290D01*
X82239Y80149D01*
X82699Y79351D01*
X83351Y78699D01*
X84149Y78238D01*
X85000Y78010D01*
Y81500D01*
Y84990D01*
X84149Y84762D01*
X83351Y84301D01*
X82699Y83649D01*
X82239Y82851D01*
X82201Y82710D01*
X81201Y82842D01*
Y87201D01*
D02*
G37*
G36*
X205500Y79489D02*
Y76500D01*
X208489D01*
X208261Y77351D01*
X207801Y78149D01*
X207149Y78801D01*
X206351Y79261D01*
X205500Y79489D01*
D02*
G37*
G36*
X204500D02*
X203649Y79261D01*
X202851Y78801D01*
X202199Y78149D01*
X201739Y77351D01*
X201511Y76500D01*
X204500D01*
Y79489D01*
D02*
G37*
G36*
X51020Y82608D02*
X49980D01*
X48975Y82338D01*
X48075Y81818D01*
X47339Y81083D01*
X46819Y80182D01*
X46550Y79177D01*
Y78137D01*
X46819Y77133D01*
X47339Y76232D01*
X48075Y75497D01*
X48975Y74977D01*
X49980Y74708D01*
X51020D01*
X52025Y74977D01*
X52925Y75497D01*
X53661Y76232D01*
X54181Y77133D01*
X54450Y78137D01*
Y79177D01*
X54181Y80182D01*
X53661Y81083D01*
X52925Y81818D01*
X52025Y82338D01*
X51020Y82608D01*
D02*
G37*
G36*
X23591Y86500D02*
X22409D01*
X21250Y86269D01*
X20158Y85817D01*
X19175Y85160D01*
X18339Y84325D01*
X17683Y83342D01*
X17231Y82250D01*
X17000Y81091D01*
Y79909D01*
X17231Y78750D01*
X17683Y77658D01*
X18339Y76675D01*
X19175Y75840D01*
X20158Y75183D01*
X21250Y74731D01*
X22409Y74500D01*
X23591D01*
X24750Y74731D01*
X25842Y75183D01*
X26825Y75840D01*
X27661Y76675D01*
X28317Y77658D01*
X28769Y78750D01*
X29000Y79909D01*
Y81091D01*
X28769Y82250D01*
X28317Y83342D01*
X27661Y84325D01*
X26825Y85160D01*
X25842Y85817D01*
X24750Y86269D01*
X23591Y86500D01*
D02*
G37*
G36*
X242091Y84000D02*
X240909D01*
X239750Y83769D01*
X238658Y83317D01*
X237675Y82661D01*
X236840Y81825D01*
X236183Y80842D01*
X235731Y79750D01*
X235500Y78591D01*
Y77409D01*
X235731Y76250D01*
X236183Y75158D01*
X236840Y74175D01*
X237675Y73339D01*
X238658Y72683D01*
X239750Y72231D01*
X240909Y72000D01*
X242091D01*
X243250Y72231D01*
X244342Y72683D01*
X245325Y73339D01*
X246161Y74175D01*
X246817Y75158D01*
X247269Y76250D01*
X247500Y77409D01*
Y78591D01*
X247269Y79750D01*
X246817Y80842D01*
X246161Y81825D01*
X245325Y82661D01*
X244342Y83317D01*
X243250Y83769D01*
X242091Y84000D01*
D02*
G37*
G36*
X208489Y75500D02*
X201511D01*
X201739Y74649D01*
X202199Y73851D01*
X202851Y73199D01*
X203604Y72765D01*
X203616Y72758D01*
X203643Y72648D01*
X203585Y71822D01*
X203465Y71672D01*
X203379Y71672D01*
X200425D01*
X199753Y71583D01*
X199127Y71324D01*
X198589Y70911D01*
X198176Y70373D01*
X197917Y69747D01*
X197828Y69075D01*
Y65925D01*
X197917Y65253D01*
X198176Y64627D01*
X198589Y64089D01*
X199127Y63676D01*
X199753Y63417D01*
X200425Y63328D01*
X203575D01*
X204247Y63417D01*
X204873Y63676D01*
X205411Y64089D01*
X205824Y64627D01*
X206083Y65253D01*
X206172Y65925D01*
Y69075D01*
X206083Y69747D01*
X205824Y70373D01*
X205411Y70911D01*
X204873Y71324D01*
X204405Y71518D01*
X204405Y71518D01*
X204788Y71359D01*
X204378Y71603D01*
X204366Y71643D01*
X204514Y72377D01*
X204607Y72474D01*
X205046Y72500D01*
X204632Y72500D01*
X204632Y72500D01*
X205461Y72500D01*
X206351Y72738D01*
X207149Y73199D01*
X207801Y73851D01*
X208261Y74649D01*
X208489Y75500D01*
D02*
G37*
G36*
X51020Y72765D02*
X49980D01*
X48975Y72496D01*
X48075Y71976D01*
X47339Y71240D01*
X46819Y70340D01*
X46550Y69335D01*
Y68295D01*
X46819Y67290D01*
X47339Y66390D01*
X48075Y65654D01*
X48975Y65134D01*
X49980Y64865D01*
X51020D01*
X52025Y65134D01*
X52925Y65654D01*
X53661Y66390D01*
X54181Y67290D01*
X54450Y68295D01*
Y69335D01*
X54181Y70340D01*
X53661Y71240D01*
X52925Y71976D01*
X52025Y72496D01*
X51020Y72765D01*
D02*
G37*
G36*
X182500Y66989D02*
Y64000D01*
X185489D01*
X185261Y64851D01*
X184801Y65649D01*
X184149Y66301D01*
X183351Y66761D01*
X182500Y66989D01*
D02*
G37*
G36*
X242610Y65840D02*
Y62850D01*
X245600D01*
X245372Y63701D01*
X244911Y64499D01*
X244259Y65151D01*
X243461Y65612D01*
X242610Y65840D01*
D02*
G37*
G36*
X241610D02*
X240759Y65612D01*
X239961Y65151D01*
X239310Y64499D01*
X238849Y63701D01*
X238621Y62850D01*
X241610D01*
Y65840D01*
D02*
G37*
G36*
X89500Y63490D02*
Y60500D01*
X92489D01*
X92261Y61351D01*
X91801Y62149D01*
X91149Y62801D01*
X90351Y63261D01*
X89500Y63490D01*
D02*
G37*
G36*
X88500D02*
X87649Y63261D01*
X86851Y62801D01*
X86199Y62149D01*
X85738Y61351D01*
X85510Y60500D01*
X88500D01*
Y63490D01*
D02*
G37*
G36*
X185489Y63000D02*
X182500D01*
Y60010D01*
X183351Y60238D01*
X184149Y60699D01*
X184801Y61351D01*
X185261Y62149D01*
X185489Y63000D01*
D02*
G37*
G36*
X245600Y61850D02*
X242610D01*
Y58861D01*
X243461Y59089D01*
X244259Y59550D01*
X244911Y60201D01*
X245372Y61000D01*
X245600Y61850D01*
D02*
G37*
G36*
X241610D02*
X238621D01*
X238849Y61000D01*
X239310Y60201D01*
X239961Y59550D01*
X240759Y59089D01*
X241610Y58861D01*
Y61850D01*
D02*
G37*
G36*
X92489Y59500D02*
X89500D01*
Y56511D01*
X90351Y56739D01*
X91149Y57199D01*
X91801Y57851D01*
X92261Y58649D01*
X92489Y59500D01*
D02*
G37*
G36*
X88500D02*
X85510D01*
X85738Y58649D01*
X86199Y57851D01*
X86851Y57199D01*
X87649Y56739D01*
X88500Y56511D01*
Y59500D01*
D02*
G37*
G36*
X51020Y62923D02*
X49980D01*
X48975Y62653D01*
X48075Y62133D01*
X47339Y61398D01*
X46819Y60497D01*
X46550Y59492D01*
Y58452D01*
X46819Y57448D01*
X47339Y56547D01*
X48075Y55812D01*
X48975Y55292D01*
X49980Y55023D01*
X51020D01*
X52025Y55292D01*
X52925Y55812D01*
X53661Y56547D01*
X54181Y57448D01*
X54450Y58452D01*
Y59492D01*
X54181Y60497D01*
X53661Y61398D01*
X52925Y62133D01*
X52025Y62653D01*
X51020Y62923D01*
D02*
G37*
G36*
X202546Y61650D02*
X201454D01*
X200398Y61367D01*
X199452Y60821D01*
X198679Y60048D01*
X198133Y59102D01*
X197850Y58046D01*
Y56954D01*
X198133Y55898D01*
X198679Y54952D01*
X199452Y54180D01*
X200398Y53633D01*
X201454Y53350D01*
X202546D01*
X203602Y53633D01*
X204548Y54180D01*
X205321Y54952D01*
X205867Y55898D01*
X206150Y56954D01*
Y58046D01*
X205867Y59102D01*
X205321Y60048D01*
X204548Y60821D01*
X203602Y61367D01*
X202546Y61650D01*
D02*
G37*
G36*
X81201Y55902D02*
X78142D01*
Y52350D01*
X81201D01*
Y55902D01*
D02*
G37*
G36*
X77142D02*
X74083D01*
Y52350D01*
X77142D01*
Y55902D01*
D02*
G37*
G36*
X213000Y53490D02*
Y50500D01*
X215989D01*
X215761Y51351D01*
X215301Y52149D01*
X214649Y52801D01*
X213851Y53262D01*
X213000Y53490D01*
D02*
G37*
G36*
X212000D02*
X211149Y53262D01*
X210351Y52801D01*
X209699Y52149D01*
X209239Y51351D01*
X209011Y50500D01*
X212000D01*
Y53490D01*
D02*
G37*
G36*
X202546Y51650D02*
X202500D01*
Y48000D01*
X206150D01*
Y48046D01*
X205867Y49102D01*
X205321Y50048D01*
X204548Y50820D01*
X203602Y51367D01*
X202546Y51650D01*
D02*
G37*
G36*
X201500D02*
X201454D01*
X200398Y51367D01*
X199452Y50820D01*
X198679Y50048D01*
X198133Y49102D01*
X197850Y48046D01*
Y48000D01*
X201500D01*
Y51650D01*
D02*
G37*
G36*
X215989Y49500D02*
X213000D01*
Y46510D01*
X213851Y46738D01*
X214649Y47199D01*
X215301Y47851D01*
X215761Y48649D01*
X215989Y49500D01*
D02*
G37*
G36*
X212000D02*
X209011D01*
X209239Y48649D01*
X209699Y47851D01*
X210351Y47199D01*
X211149Y46738D01*
X212000Y46510D01*
Y49500D01*
D02*
G37*
G36*
X81201Y51350D02*
X77642D01*
X74083D01*
Y47799D01*
X77658D01*
X77790Y46799D01*
X77649Y46762D01*
X76851Y46301D01*
X76199Y45649D01*
X75739Y44851D01*
X75511Y44000D01*
X82490D01*
X82262Y44851D01*
X81801Y45649D01*
X81149Y46301D01*
X80351Y46762D01*
X80210Y46799D01*
X80342Y47799D01*
X81201D01*
Y51350D01*
D02*
G37*
G36*
X206150Y47000D02*
X202500D01*
Y43350D01*
X202546D01*
X203602Y43633D01*
X204548Y44179D01*
X205321Y44952D01*
X205867Y45898D01*
X206150Y46954D01*
Y47000D01*
D02*
G37*
G36*
X201500D02*
X197850D01*
Y46954D01*
X198133Y45898D01*
X198679Y44952D01*
X199452Y44179D01*
X200398Y43633D01*
X201454Y43350D01*
X201500D01*
Y47000D01*
D02*
G37*
G36*
X230658Y51504D02*
X229342D01*
X228070Y51163D01*
X226930Y50505D01*
X225999Y49574D01*
X225341Y48434D01*
X225000Y47162D01*
Y45846D01*
X225341Y44574D01*
X225999Y43434D01*
X226930Y42503D01*
X228070Y41845D01*
X229342Y41504D01*
X230658D01*
X231930Y41845D01*
X233070Y42503D01*
X234001Y43434D01*
X234659Y44574D01*
X235000Y45846D01*
Y47162D01*
X234659Y48434D01*
X234001Y49574D01*
X233070Y50505D01*
X231930Y51163D01*
X230658Y51504D01*
D02*
G37*
G36*
X172500Y38989D02*
Y36000D01*
X175489D01*
X175261Y36851D01*
X174801Y37649D01*
X174149Y38301D01*
X173351Y38761D01*
X172500Y38989D01*
D02*
G37*
G36*
X133531Y39254D02*
X131650D01*
Y36000D01*
X133531D01*
Y39254D01*
D02*
G37*
G36*
X164850D02*
X162969D01*
Y36000D01*
X164850D01*
Y39254D01*
D02*
G37*
G36*
X130650D02*
X128769D01*
Y35971D01*
X127915Y35687D01*
X127769Y35680D01*
X127149Y36301D01*
X126351Y36762D01*
X125500Y36990D01*
Y33500D01*
Y30011D01*
X126351Y30239D01*
X127149Y30699D01*
X127801Y31351D01*
X127878Y31484D01*
X128769Y31746D01*
X129116Y31746D01*
X130650D01*
Y35500D01*
Y39254D01*
D02*
G37*
G36*
X183681Y36468D02*
X182000D01*
Y35280D01*
X183681D01*
Y36468D01*
D02*
G37*
G36*
X181000D02*
X179319D01*
Y35280D01*
X181000D01*
Y36468D01*
D02*
G37*
G36*
X124500Y36990D02*
X123649Y36762D01*
X122851Y36301D01*
X122199Y35649D01*
X121739Y34851D01*
X121511Y34000D01*
X124500D01*
Y36990D01*
D02*
G37*
G36*
X164850Y35000D02*
X162969D01*
Y31746D01*
X164850D01*
Y35000D01*
D02*
G37*
G36*
X133531D02*
X131650D01*
Y31746D01*
X133531D01*
Y35000D01*
D02*
G37*
G36*
X60077Y34771D02*
X59000D01*
Y30803D01*
X61295D01*
Y33553D01*
X61202Y34019D01*
X60938Y34415D01*
X60543Y34679D01*
X60077Y34771D01*
D02*
G37*
G36*
X58000D02*
X56923D01*
X56457Y34679D01*
X56062Y34415D01*
X55798Y34019D01*
X55705Y33553D01*
Y30803D01*
X58000D01*
Y34771D01*
D02*
G37*
G36*
X124500Y33000D02*
X121511D01*
X121739Y32149D01*
X122199Y31351D01*
X122851Y30699D01*
X123649Y30239D01*
X124500Y30011D01*
Y33000D01*
D02*
G37*
G36*
X135401Y30724D02*
X133721D01*
Y30064D01*
X133468Y29823D01*
X132720Y29476D01*
X132267Y29664D01*
X131492Y29766D01*
X130717Y29664D01*
X129995Y29365D01*
X129375Y28889D01*
X128899Y28269D01*
X128600Y27547D01*
X128498Y26772D01*
Y23622D01*
X128600Y22847D01*
X128899Y22125D01*
X129375Y21505D01*
X129995Y21029D01*
X130717Y20730D01*
X131492Y20628D01*
X132267Y20730D01*
X132989Y21029D01*
X133609Y21505D01*
X134085Y22125D01*
X134384Y22847D01*
X134486Y23622D01*
Y24197D01*
X135401D01*
Y27461D01*
Y30724D01*
D02*
G37*
G36*
X230658Y33000D02*
X230500D01*
Y28500D01*
X235000D01*
Y28658D01*
X234659Y29930D01*
X234001Y31070D01*
X233070Y32001D01*
X231930Y32659D01*
X230658Y33000D01*
D02*
G37*
G36*
X229500D02*
X229342D01*
X228070Y32659D01*
X226930Y32001D01*
X225999Y31070D01*
X225341Y29930D01*
X225000Y28658D01*
Y28500D01*
X229500D01*
Y33000D01*
D02*
G37*
G36*
X183681Y34280D02*
X181500D01*
X179319D01*
Y33091D01*
Y30531D01*
X183681D01*
Y30691D01*
X200163D01*
X200550Y30304D01*
Y29322D01*
X200819Y28318D01*
X201339Y27417D01*
X202075Y26682D01*
X202975Y26162D01*
X203980Y25892D01*
X205020D01*
X206025Y26162D01*
X206925Y26682D01*
X207661Y27417D01*
X208181Y28318D01*
X208450Y29322D01*
Y30362D01*
X208181Y31367D01*
X207661Y32268D01*
X206925Y33003D01*
X206025Y33523D01*
X205020Y33792D01*
X203980D01*
X202975Y33523D01*
X202139Y33040D01*
X201878Y33302D01*
X201381Y33633D01*
X200796Y33750D01*
X183681D01*
Y34280D01*
D02*
G37*
G36*
X61295Y29803D02*
X59000D01*
Y25835D01*
X60077D01*
X60543Y25928D01*
X60938Y26192D01*
X61202Y26587D01*
X61295Y27053D01*
Y29803D01*
D02*
G37*
G36*
X58000D02*
X55705D01*
Y27053D01*
X55798Y26587D01*
X56062Y26192D01*
X56457Y25928D01*
X56923Y25835D01*
X58000D01*
Y29803D01*
D02*
G37*
G36*
X42461Y38000D02*
X41539D01*
X40649Y37762D01*
X39851Y37301D01*
X39199Y36649D01*
X38739Y35851D01*
X38500Y34961D01*
Y34039D01*
X38739Y33149D01*
X39199Y32351D01*
X39851Y31699D01*
X40649Y31238D01*
X41539Y31000D01*
X42250D01*
X43230Y30021D01*
X43230Y30021D01*
X43891Y29579D01*
X44672Y29423D01*
X46650D01*
Y27053D01*
X46743Y26587D01*
X47007Y26192D01*
X47402Y25928D01*
X47868Y25835D01*
X51022D01*
X51488Y25928D01*
X51883Y26192D01*
X52147Y26587D01*
X52240Y27053D01*
Y33553D01*
X52147Y34019D01*
X51883Y34415D01*
X51488Y34679D01*
X51022Y34771D01*
X47868D01*
X47402Y34679D01*
X47007Y34415D01*
X46743Y34019D01*
X46481Y33994D01*
X45500Y34856D01*
Y34961D01*
X45261Y35851D01*
X44801Y36649D01*
X44149Y37301D01*
X43351Y37762D01*
X42461Y38000D01*
D02*
G37*
G36*
X235000Y27500D02*
X230500D01*
Y23000D01*
X230658D01*
X231930Y23341D01*
X233070Y23999D01*
X234001Y24930D01*
X234659Y26070D01*
X235000Y27342D01*
Y27500D01*
D02*
G37*
G36*
X229500D02*
X225000D01*
Y27342D01*
X225341Y26070D01*
X225999Y24930D01*
X226930Y23999D01*
X228070Y23341D01*
X229342Y23000D01*
X229500D01*
Y27500D01*
D02*
G37*
G36*
X163279Y30724D02*
X161599D01*
Y27461D01*
Y24197D01*
X162514D01*
Y23622D01*
X162616Y22847D01*
X162915Y22125D01*
X163391Y21505D01*
X164011Y21029D01*
X164733Y20730D01*
X165508Y20628D01*
X166283Y20730D01*
X167005Y21029D01*
X167625Y21505D01*
X168101Y22125D01*
X168400Y22847D01*
X168502Y23622D01*
Y26772D01*
X168400Y27547D01*
X168101Y28269D01*
X167625Y28889D01*
X167005Y29365D01*
X166283Y29664D01*
X165508Y29766D01*
X164733Y29664D01*
X164279Y29476D01*
X163531Y29823D01*
X163279Y30064D01*
Y30724D01*
D02*
G37*
G36*
X183681Y21721D02*
X182000D01*
Y20531D01*
X183681D01*
Y21721D01*
D02*
G37*
G36*
X181000D02*
X179319D01*
Y20531D01*
X181000D01*
Y21721D01*
D02*
G37*
G36*
X20591Y31000D02*
X19409D01*
X18250Y30769D01*
X17158Y30317D01*
X16175Y29660D01*
X15339Y28825D01*
X14683Y27842D01*
X14231Y26750D01*
X14000Y25591D01*
Y24409D01*
X14231Y23250D01*
X14683Y22158D01*
X15339Y21175D01*
X16175Y20339D01*
X17158Y19683D01*
X18250Y19231D01*
X19409Y19000D01*
X20591D01*
X21750Y19231D01*
X22842Y19683D01*
X23825Y20339D01*
X24660Y21175D01*
X25317Y22158D01*
X25769Y23250D01*
X26000Y24409D01*
Y25591D01*
X25769Y26750D01*
X25317Y27842D01*
X24660Y28825D01*
X23825Y29660D01*
X22842Y30317D01*
X21750Y30769D01*
X20591Y31000D01*
D02*
G37*
G36*
X164461Y57500D02*
X163539D01*
X162649Y57262D01*
X161851Y56801D01*
X161199Y56149D01*
X160739Y55351D01*
X160500Y54461D01*
Y53539D01*
X160739Y52649D01*
X161199Y51851D01*
X161851Y51199D01*
X162649Y50739D01*
X163539Y50500D01*
X164461D01*
X165152Y50685D01*
X166301Y49536D01*
Y39254D01*
X165850D01*
Y35500D01*
Y31746D01*
X167731D01*
X167731Y31746D01*
Y31746D01*
X168480Y31200D01*
X169263Y30417D01*
X169759Y30086D01*
X170344Y29969D01*
X172029D01*
X174711Y27287D01*
X175207Y26956D01*
X175793Y26839D01*
X176785D01*
X179319Y24306D01*
Y22720D01*
X181500D01*
X183681D01*
Y23250D01*
X189560D01*
X193891Y18919D01*
X194388Y18587D01*
X194973Y18471D01*
X200822D01*
X201339Y17575D01*
X202075Y16839D01*
X202975Y16319D01*
X203980Y16050D01*
X205020D01*
X206025Y16319D01*
X206925Y16839D01*
X207661Y17575D01*
X208181Y18475D01*
X208450Y19480D01*
Y20520D01*
X208181Y21525D01*
X207661Y22425D01*
X206925Y23161D01*
X206025Y23681D01*
X205020Y23950D01*
X203980D01*
X202975Y23681D01*
X202075Y23161D01*
X201339Y22425D01*
X200822Y21529D01*
X195606D01*
X191275Y25861D01*
X190779Y26193D01*
X190193Y26309D01*
X183681D01*
Y26469D01*
X181482D01*
X178500Y29450D01*
X178004Y29782D01*
X177419Y29898D01*
X176426D01*
X174486Y31839D01*
X174594Y33145D01*
X174801Y33351D01*
X175261Y34149D01*
X175489Y35000D01*
X172000D01*
Y35500D01*
X171500D01*
Y38989D01*
X170649Y38761D01*
X170360Y38595D01*
X169360Y39172D01*
Y50169D01*
X169244Y50755D01*
X168912Y51251D01*
X167315Y52848D01*
X167500Y53539D01*
Y54461D01*
X167262Y55351D01*
X166801Y56149D01*
X166149Y56801D01*
X165351Y57262D01*
X164461Y57500D01*
D02*
G37*
G36*
X74336Y17575D02*
Y14586D01*
X77326D01*
X77098Y15437D01*
X76637Y16235D01*
X75985Y16886D01*
X75187Y17347D01*
X74336Y17575D01*
D02*
G37*
G36*
X73336D02*
X72485Y17347D01*
X71687Y16886D01*
X71035Y16235D01*
X70575Y15437D01*
X70347Y14586D01*
X73336D01*
Y17575D01*
D02*
G37*
G36*
X113000Y16450D02*
X112914D01*
X111782Y16147D01*
X110768Y15561D01*
X109939Y14732D01*
X109353Y13718D01*
X109050Y12586D01*
X108107D01*
X107804Y13718D01*
X107218Y14732D01*
X106390Y15561D01*
X105375Y16147D01*
X104243Y16450D01*
X103072D01*
X101940Y16147D01*
X100925Y15561D01*
X100097Y14732D01*
X99511Y13718D01*
X99208Y12586D01*
X98265D01*
X97962Y13718D01*
X97376Y14732D01*
X96547Y15561D01*
X95533Y16147D01*
X94401Y16450D01*
X93229D01*
X92097Y16147D01*
X91083Y15561D01*
X90254Y14732D01*
X89668Y13718D01*
X89365Y12586D01*
X88422D01*
X88119Y13718D01*
X87533Y14732D01*
X86705Y15561D01*
X85690Y16147D01*
X84558Y16450D01*
X83387D01*
X82255Y16147D01*
X81240Y15561D01*
X80411Y14732D01*
X79826Y13718D01*
X79522Y12586D01*
Y11414D01*
X79826Y10282D01*
X80411Y9268D01*
X81240Y8439D01*
X82255Y7853D01*
X83387Y7550D01*
X84558D01*
X85690Y7853D01*
X86705Y8439D01*
X87533Y9268D01*
X88119Y10282D01*
X88422Y11414D01*
X89365D01*
X89668Y10282D01*
X90254Y9268D01*
X91083Y8439D01*
X92097Y7853D01*
X93229Y7550D01*
X94401D01*
X95533Y7853D01*
X96547Y8439D01*
X97376Y9268D01*
X97962Y10282D01*
X98265Y11414D01*
X99208D01*
X99511Y10282D01*
X100097Y9268D01*
X100925Y8439D01*
X101940Y7853D01*
X103072Y7550D01*
X104243D01*
X105375Y7853D01*
X106390Y8439D01*
X107218Y9268D01*
X107804Y10282D01*
X108107Y11414D01*
X109050D01*
X109353Y10282D01*
X109939Y9268D01*
X110768Y8439D01*
X111782Y7853D01*
X112914Y7550D01*
X113000D01*
Y12000D01*
Y16450D01*
D02*
G37*
G36*
X114086D02*
X114000D01*
Y12500D01*
X117950D01*
Y12586D01*
X117647Y13718D01*
X117061Y14732D01*
X116232Y15561D01*
X115218Y16147D01*
X114086Y16450D01*
D02*
G37*
G36*
X77326Y13586D02*
X74336D01*
Y10596D01*
X75187Y10824D01*
X75985Y11285D01*
X76637Y11937D01*
X77098Y12735D01*
X77326Y13586D01*
D02*
G37*
G36*
X73336D02*
X70347D01*
X70575Y12735D01*
X71035Y11937D01*
X71687Y11285D01*
X72485Y10824D01*
X73336Y10596D01*
Y13586D01*
D02*
G37*
G36*
X126989Y11500D02*
X124000D01*
Y8511D01*
X124851Y8738D01*
X125649Y9199D01*
X126301Y9851D01*
X126761Y10649D01*
X126989Y11500D01*
D02*
G37*
G36*
X123000D02*
X120010D01*
X120238Y10649D01*
X120699Y9851D01*
X121351Y9199D01*
X122149Y8738D01*
X123000Y8511D01*
Y11500D01*
D02*
G37*
G36*
X117950D02*
X114000D01*
Y7550D01*
X114086D01*
X115218Y7853D01*
X116232Y8439D01*
X117061Y9268D01*
X117647Y10282D01*
X117950Y11414D01*
Y11500D01*
D02*
G37*
G36*
X64592Y10165D02*
X59000D01*
Y6197D01*
X65823D01*
Y8935D01*
X65729Y9406D01*
X65462Y9805D01*
X65063Y10072D01*
X64592Y10165D01*
D02*
G37*
G36*
X58000D02*
X52407D01*
X51937Y10072D01*
X51538Y9805D01*
X51271Y9406D01*
X51177Y8935D01*
Y6197D01*
X58000D01*
Y10165D01*
D02*
G37*
G36*
X230658Y14496D02*
X229342D01*
X228070Y14155D01*
X226930Y13497D01*
X225999Y12566D01*
X225341Y11426D01*
X225000Y10154D01*
Y8838D01*
X225341Y7566D01*
X225999Y6426D01*
X226930Y5495D01*
X228070Y4837D01*
X229342Y4496D01*
X230658D01*
X231930Y4837D01*
X233070Y5495D01*
X234001Y6426D01*
X234659Y7566D01*
X235000Y8838D01*
Y10154D01*
X234659Y11426D01*
X234001Y12566D01*
X233070Y13497D01*
X231930Y14155D01*
X230658Y14496D01*
D02*
G37*
G36*
X165508Y14805D02*
X164733Y14703D01*
X164011Y14404D01*
X163391Y13928D01*
X162915Y13308D01*
X162616Y12586D01*
X162514Y11811D01*
Y7087D01*
X162616Y6312D01*
X162915Y5590D01*
X163391Y4969D01*
X164011Y4494D01*
X164733Y4194D01*
X165508Y4092D01*
X166283Y4194D01*
X167005Y4494D01*
X167625Y4969D01*
X168101Y5590D01*
X168400Y6312D01*
X168502Y7087D01*
Y11811D01*
X168400Y12586D01*
X168101Y13308D01*
X167625Y13928D01*
X167005Y14404D01*
X166283Y14703D01*
X165508Y14805D01*
D02*
G37*
G36*
X187000Y6489D02*
Y3500D01*
X189989D01*
X189761Y4351D01*
X189301Y5149D01*
X188649Y5801D01*
X187851Y6261D01*
X187000Y6489D01*
D02*
G37*
G36*
X186000D02*
X185149Y6261D01*
X184351Y5801D01*
X183699Y5149D01*
X183238Y4351D01*
X183010Y3500D01*
X186000D01*
Y6489D01*
D02*
G37*
G36*
X151489Y5000D02*
X148500D01*
Y2011D01*
X149351Y2238D01*
X150149Y2699D01*
X150801Y3351D01*
X151261Y4149D01*
X151489Y5000D01*
D02*
G37*
G36*
X65823Y5197D02*
X59000D01*
Y1228D01*
X64592D01*
X65063Y1322D01*
X65462Y1589D01*
X65729Y1988D01*
X65823Y2459D01*
Y5197D01*
D02*
G37*
G36*
X58000D02*
X51177D01*
Y2459D01*
X51271Y1988D01*
X51538Y1589D01*
X51937Y1322D01*
X52407Y1228D01*
X58000D01*
Y5197D01*
D02*
G37*
%LPD*%
G36*
X162723Y88155D02*
X162340Y87231D01*
X160908D01*
X159798Y88341D01*
X159302Y88673D01*
X158717Y88789D01*
X154323D01*
X154321Y88793D01*
X153617Y89263D01*
X152788Y89428D01*
X149697D01*
X148867Y89263D01*
X148164Y88793D01*
X147694Y88090D01*
X147529Y87260D01*
X147694Y86430D01*
X147136Y85465D01*
X146851Y85301D01*
X146287Y84737D01*
X145906Y84784D01*
X145287Y85069D01*
Y88832D01*
X145303D01*
X146133Y88997D01*
X146836Y89467D01*
X147306Y90170D01*
X147471Y91000D01*
X147329Y91714D01*
X147652Y92230D01*
X147985Y92614D01*
X148273Y92614D01*
X148273D01*
X148347Y92614D01*
X154914D01*
Y93211D01*
X157667D01*
X162723Y88155D01*
D02*
G37*
G36*
X121269Y88409D02*
X121216Y88355D01*
X120821Y88276D01*
X120325Y87945D01*
X118919Y86539D01*
X118587Y86042D01*
X118471Y85457D01*
Y78158D01*
X117851Y77801D01*
X117199Y77149D01*
X116738Y76351D01*
X116500Y75461D01*
Y74539D01*
X116738Y73649D01*
X117199Y72851D01*
X117851Y72199D01*
X118062Y72077D01*
Y70923D01*
X117851Y70801D01*
X117199Y70149D01*
X116738Y69351D01*
X116500Y68461D01*
Y67539D01*
X116738Y66649D01*
X117199Y65851D01*
X117689Y65362D01*
X117782Y64750D01*
X117689Y64138D01*
X117199Y63649D01*
X116738Y62851D01*
X116500Y61961D01*
Y61039D01*
X116685Y60348D01*
X111125Y54787D01*
X110201Y55170D01*
Y55402D01*
X107142D01*
Y51350D01*
X106642D01*
Y50850D01*
X103083D01*
Y48608D01*
X102731Y47754D01*
X102271Y47754D01*
X99899D01*
X99835Y47757D01*
X98917Y47878D01*
X98917D01*
Y55902D01*
X96888D01*
Y79098D01*
X98917D01*
Y87201D01*
X97029D01*
Y90367D01*
X98693Y92030D01*
X102311D01*
Y91500D01*
X104492D01*
Y91000D01*
X104992D01*
Y89311D01*
X106673D01*
X106673Y89311D01*
Y89311D01*
X106711Y89217D01*
X106738Y89149D01*
X107199Y88351D01*
X107850Y87701D01*
X107849Y87694D01*
X107580Y86701D01*
X107142D01*
Y83150D01*
X110201D01*
Y86102D01*
X110407Y86814D01*
X111015Y87149D01*
X111351Y87239D01*
X112149Y87699D01*
X112801Y88351D01*
X113261Y89149D01*
X113489Y90000D01*
X110000D01*
Y91000D01*
X113489D01*
X113261Y91851D01*
X112904Y92471D01*
X113115Y93085D01*
X113393Y93471D01*
X121269D01*
Y88409D01*
D02*
G37*
G36*
X140209Y90170D02*
X140680Y89467D01*
X141383Y88997D01*
X142212Y88832D01*
X142228D01*
Y79410D01*
X141284Y78780D01*
X140754Y79031D01*
Y79031D01*
X133246D01*
Y74269D01*
X133246D01*
X133021Y73362D01*
X131973D01*
Y66638D01*
X132723D01*
Y64961D01*
X132369Y64529D01*
X126930D01*
X126681Y64901D01*
X125888Y65695D01*
Y78598D01*
X127917D01*
Y85267D01*
X127969Y86246D01*
X128729Y86246D01*
X132459D01*
X132934Y85934D01*
X133246Y85459D01*
Y80968D01*
X140754D01*
Y85731D01*
X138529D01*
Y88418D01*
X138413Y89003D01*
X138400Y89023D01*
X138761Y89649D01*
X138779Y89716D01*
X139966Y90280D01*
X140209Y90170D01*
D02*
G37*
G36*
X158746Y85068D02*
Y82468D01*
X164091D01*
X165029Y81532D01*
X164614Y80532D01*
X158746D01*
Y80366D01*
X152825D01*
X152320Y81366D01*
X152500Y82039D01*
Y82961D01*
X152261Y83851D01*
X152122Y84092D01*
X152700Y85092D01*
X152788D01*
X153617Y85257D01*
X154321Y85727D01*
X154323Y85730D01*
X158083D01*
X158746Y85068D01*
D02*
G37*
G36*
Y75769D02*
X163401D01*
X163783Y74845D01*
X161227Y72289D01*
X158323D01*
X158320Y72293D01*
X157617Y72763D01*
X156788Y72928D01*
X153697D01*
X152867Y72763D01*
X152164Y72293D01*
X151694Y71589D01*
X151661Y71422D01*
X150661Y71521D01*
Y72850D01*
X150836Y72967D01*
X151306Y73670D01*
X151471Y74500D01*
X151329Y75214D01*
X151652Y75730D01*
X151984Y76114D01*
X158746D01*
Y75769D01*
D02*
G37*
G36*
X151694Y69930D02*
X152164Y69227D01*
X152867Y68757D01*
X153697Y68592D01*
X156788D01*
X157617Y68757D01*
X158320Y69227D01*
X158323Y69230D01*
X159401D01*
X159649Y68261D01*
X158851Y67801D01*
X158199Y67149D01*
X157738Y66351D01*
X157500Y65461D01*
Y64539D01*
X157109Y64029D01*
X155731D01*
Y66254D01*
X150969D01*
X150661Y67127D01*
Y69999D01*
X151661Y70098D01*
X151694Y69930D01*
D02*
G37*
G36*
X142345Y66181D02*
X142676Y65684D01*
X144269Y64091D01*
Y58890D01*
X144238Y58824D01*
X143538Y58097D01*
X143000Y58241D01*
Y54752D01*
X142000D01*
Y58241D01*
X141149Y58013D01*
X140351Y57553D01*
X139699Y56901D01*
X139603Y56734D01*
X138359Y56436D01*
X138336Y56445D01*
X138020Y56688D01*
Y60819D01*
X139969D01*
Y62500D01*
X138279D01*
Y63500D01*
X139969D01*
Y65181D01*
X139969Y65181D01*
X139906Y65638D01*
X140635Y66638D01*
X142254D01*
X142345Y66181D01*
D02*
G37*
G36*
X119262Y57185D02*
X119286Y57127D01*
X119170Y56542D01*
Y47289D01*
X114051Y42171D01*
X113051Y42585D01*
Y46878D01*
X112399D01*
Y51736D01*
X118124Y57461D01*
X119262Y57185D01*
D02*
G37*
G36*
X104949Y42122D02*
X112588D01*
X113002Y41122D01*
X111258Y39378D01*
X105319D01*
Y38529D01*
X101780D01*
Y40246D01*
X102731D01*
Y42971D01*
X104949D01*
Y42122D01*
D02*
G37*
G36*
X144556Y23781D02*
X145471Y22866D01*
Y15719D01*
X141781Y12029D01*
X140158D01*
X139801Y12649D01*
X139494Y12955D01*
X139538Y14028D01*
X139621Y14183D01*
X139649Y14199D01*
X140301Y14851D01*
X140761Y15649D01*
X141000Y16539D01*
Y17461D01*
X140767Y18331D01*
X140935Y18583D01*
X141090Y19363D01*
Y24197D01*
X144278D01*
X144556Y23781D01*
D02*
G37*
%LPC*%
G36*
X103992Y90500D02*
X102311D01*
Y89311D01*
X103992D01*
Y90500D01*
D02*
G37*
G36*
X106142Y86701D02*
X103083D01*
Y83150D01*
X106142D01*
Y86701D01*
D02*
G37*
G36*
X110201Y82150D02*
X107142D01*
Y78598D01*
X110201D01*
Y82150D01*
D02*
G37*
G36*
X106142D02*
X103083D01*
Y78598D01*
X106142D01*
Y82150D01*
D02*
G37*
G36*
X102461Y77500D02*
X101539D01*
X100649Y77262D01*
X99851Y76801D01*
X99199Y76149D01*
X98738Y75351D01*
X98500Y74461D01*
Y73539D01*
X98738Y72649D01*
X99199Y71851D01*
X99851Y71199D01*
X100649Y70739D01*
X101539Y70500D01*
X102461D01*
X103351Y70739D01*
X104149Y71199D01*
X104801Y71851D01*
X105262Y72649D01*
X105500Y73539D01*
Y74461D01*
X105262Y75351D01*
X104801Y76149D01*
X104149Y76801D01*
X103351Y77262D01*
X102461Y77500D01*
D02*
G37*
G36*
X106142Y55402D02*
X103083D01*
Y51850D01*
X106142D01*
Y55402D01*
D02*
G37*
%LPD*%
D14*
X153350Y62500D02*
D03*
X146650D02*
D03*
X137850Y35500D02*
D03*
X131150D02*
D03*
X123650Y90000D02*
D03*
X130350D02*
D03*
X158650Y35500D02*
D03*
X165350D02*
D03*
X93650Y44000D02*
D03*
X92700Y36575D02*
D03*
X100350Y44000D02*
D03*
X99399Y36575D02*
D03*
D15*
X137000Y83350D02*
D03*
Y76650D02*
D03*
X162500Y84850D02*
D03*
Y78150D02*
D03*
X175500Y84350D02*
D03*
Y77650D02*
D03*
D17*
X106642Y51350D02*
D03*
Y82650D02*
D03*
X77642Y51850D02*
D03*
Y83150D02*
D03*
X124358Y82650D02*
D03*
Y51350D02*
D03*
X95358Y51850D02*
D03*
Y83150D02*
D03*
D21*
X82500Y36748D02*
D03*
X75000D02*
D03*
X82500Y30252D02*
D03*
X75000D02*
D03*
D22*
X140748Y70000D02*
D03*
X134252D02*
D03*
D26*
X104492Y91000D02*
D03*
X181500Y34780D02*
D03*
Y22220D02*
D03*
X185500Y95280D02*
D03*
Y80221D02*
D03*
Y92721D02*
D03*
X104492Y93559D02*
D03*
X181500Y32221D02*
D03*
Y24780D02*
D03*
X185500Y82780D02*
D03*
D38*
X50500Y88500D02*
D03*
Y49130D02*
D03*
X204500Y29842D02*
D03*
X50500Y58973D02*
D03*
Y68815D02*
D03*
Y78658D02*
D03*
X204500Y20000D02*
D03*
D39*
X113500Y12000D02*
D03*
X83972D02*
D03*
X93815D02*
D03*
X103657D02*
D03*
D40*
X230000Y28000D02*
D03*
Y9496D02*
D03*
Y46504D02*
D03*
D41*
X197000Y93000D02*
D03*
Y83000D02*
D03*
D42*
X131492Y25197D02*
D03*
X165508D02*
D03*
D43*
X131492Y9449D02*
D03*
X165508D02*
D03*
D46*
X140748Y64280D02*
Y70000D01*
X138469Y63401D02*
X139870D01*
X140748Y64280D01*
X138279Y63212D02*
X138469Y63401D01*
X138279Y63000D02*
Y63212D01*
X136491Y55105D02*
Y64637D01*
X138368Y66515D02*
Y72818D01*
X136491Y64637D02*
X138368Y66515D01*
X158500Y62500D02*
X161000Y65000D01*
X153350Y62500D02*
X158500D01*
X146650D02*
Y63873D01*
X143758Y66766D02*
X146650Y63873D01*
X143758Y66766D02*
Y91000D01*
X144157Y50752D02*
X149132Y55727D01*
X138368Y72818D02*
X139578Y74027D01*
X141254Y76650D02*
X141840Y76065D01*
X148421Y74500D02*
X148553D01*
X149132Y73921D01*
X140843Y50752D02*
X144157D01*
X137000Y76650D02*
X141254D01*
X139578Y74027D02*
X140631D01*
X149132Y55727D02*
Y73921D01*
X140631Y74027D02*
X141840Y75236D01*
Y76065D01*
X136491Y55105D02*
X140843Y50752D01*
X203174Y29842D02*
X204500D01*
X200796Y32221D02*
X203174Y29842D01*
X181500Y32221D02*
X200796D01*
X181008Y24780D02*
X190193D01*
X194973Y20000D01*
X204500D01*
X167831Y34012D02*
Y50169D01*
X175793Y28369D02*
X177419D01*
X181008Y24780D01*
X164000Y54000D02*
X167831Y50169D01*
X172663Y31499D02*
X175793Y28369D01*
X170344Y31499D02*
X172663D01*
X167831Y34012D02*
X170344Y31499D01*
X147000Y23500D02*
X147965D01*
X147000D02*
X147000D01*
X123650Y88627D02*
Y90000D01*
X121887Y86863D02*
X123650Y88627D01*
X121406Y86863D02*
X121887D01*
X120000Y85457D02*
X121406Y86863D01*
X120000Y75000D02*
Y85457D01*
X178710Y81868D02*
X185500Y88658D01*
X166854Y81868D02*
X178710D01*
X163873Y84850D02*
X166854Y81868D01*
X151242Y87260D02*
X158717D01*
X161127Y84850D01*
X163873D01*
X185500Y88658D02*
Y92721D01*
X196860Y92860D02*
X197000Y93000D01*
X185640Y92860D02*
X196860D01*
X185500Y92721D02*
X185640Y92860D01*
X134252Y64961D02*
Y71083D01*
Y64961D02*
X135721Y63492D01*
Y63000D02*
Y63492D01*
X137000Y73769D02*
Y76240D01*
X135093Y71862D02*
X137000Y73769D01*
X135031Y71862D02*
X135093D01*
X134252Y71083D02*
X135031Y71862D01*
X149000Y75079D02*
Y82500D01*
X148421Y74500D02*
X149000Y75079D01*
X124358Y65061D02*
X125600Y63820D01*
Y63000D02*
Y63820D01*
Y63000D02*
X135721D01*
X125600Y59180D02*
Y63000D01*
X124358Y51350D02*
Y57939D01*
X125600Y59180D01*
X124358Y65061D02*
Y82650D01*
X95358Y51850D02*
Y83150D01*
X142212Y91000D02*
X143758D01*
X138212Y95000D02*
X142212Y91000D01*
X106425Y95000D02*
X130000D01*
X104984Y93559D02*
X106425Y95000D01*
X98059Y93559D02*
X104492D01*
X95500Y91000D02*
X98059Y93559D01*
X95500Y83291D02*
Y91000D01*
X95358Y83150D02*
X95500Y83291D01*
X130000Y95000D02*
X138212D01*
X130000Y90350D02*
Y95000D01*
Y90350D02*
X130350Y90000D01*
X89425Y36575D02*
X92700D01*
X87765Y38235D02*
Y44735D01*
Y38235D02*
X89425Y36575D01*
X87000Y45500D02*
X87765Y44735D01*
X87000Y45500D02*
X92769D01*
X93650Y44619D01*
Y44000D02*
Y44619D01*
X135500Y89918D02*
X137000Y88418D01*
Y83350D02*
Y88418D01*
X135500Y89918D02*
Y91000D01*
X81417Y30252D02*
X82500D01*
X77515Y26349D02*
X81417Y30252D01*
X67606D02*
X81417D01*
X77515Y25097D02*
Y26349D01*
X75500Y23082D02*
X77515Y25097D01*
X75500Y22000D02*
Y23082D01*
X67555Y30303D02*
X67606Y30252D01*
X137000Y10500D02*
X142414D01*
X147000Y15086D01*
X147521Y9844D02*
X152100Y14423D01*
X141343Y4500D02*
X146687Y9844D01*
X136500Y4500D02*
X141343D01*
X146687Y9844D02*
X147521D01*
X149832Y31500D02*
X150508Y30824D01*
X150530D02*
X151362Y29992D01*
X155348Y30824D02*
X158650Y34127D01*
X150508Y30824D02*
X150530D01*
X154344D02*
X155348D01*
X158650Y34127D02*
Y35500D01*
X149000Y31500D02*
X149832D01*
X153512Y27551D02*
Y29992D01*
X154344Y30824D01*
X131500Y56500D02*
X141500Y46500D01*
X145209D01*
X147000Y15086D02*
Y23500D01*
X151453Y22275D02*
Y27461D01*
Y22275D02*
X152100Y21628D01*
X147965Y23500D02*
X149394Y24928D01*
X152100Y14423D02*
Y21628D01*
X145638Y24862D02*
X147000Y23500D01*
X145638Y24862D02*
Y27370D01*
X145547Y27461D02*
X145638Y27370D01*
X149394Y24928D02*
Y27370D01*
X149484Y27461D01*
X151362Y27551D02*
X151453Y27461D01*
X99399Y36575D02*
X99824Y37000D01*
X107500D01*
X100350Y44000D02*
X100850Y44500D01*
X107130D01*
X111240Y37000D02*
Y37197D01*
X120699Y46656D01*
Y56542D01*
X124000Y59843D01*
Y63157D01*
X120000Y67157D02*
X124000Y63157D01*
X120000Y67157D02*
Y68000D01*
X110870Y52370D02*
X120000Y61500D01*
X110870Y44500D02*
Y52370D01*
X145209Y46500D02*
X159209Y60500D01*
X176000D01*
X179168Y78168D02*
X183591Y82591D01*
X185311D01*
X176018Y78168D02*
X179168D01*
X175500Y77650D02*
X176018Y78168D01*
X168751Y77650D02*
X175500D01*
X196890Y82890D02*
X197000Y83000D01*
X185610Y82890D02*
X196890D01*
X185311Y82591D02*
X185610Y82890D01*
X155242Y70760D02*
X161861D01*
X168751Y77650D01*
X151242Y94740D02*
X158300D01*
X168691Y84350D01*
X175500D01*
X155242Y78240D02*
X155287Y78195D01*
X162455D01*
X162500Y78150D01*
X157949Y27461D02*
X157974Y27435D01*
Y4526D02*
X158000Y4500D01*
X157974Y4526D02*
Y27435D01*
X137850Y34127D02*
Y35500D01*
Y34127D02*
X141520Y30457D01*
Y27551D02*
Y30457D01*
Y27551D02*
X141610Y27461D01*
X153421D02*
X153512Y27551D01*
X151362D02*
Y29992D01*
X147606Y29106D02*
Y30106D01*
X149000Y31500D01*
X147425Y27370D02*
X147516Y27461D01*
X147500Y29000D02*
X147606Y29106D01*
D47*
X31500Y42500D02*
X62707D01*
X7500Y58500D02*
X15500D01*
X31500Y42500D01*
X62707D02*
X69859Y35348D01*
X71661Y33563D02*
X86831D01*
X69859Y35348D02*
X69875D01*
X71661Y33563D01*
X86831D02*
X88893Y31500D01*
X91000D01*
X94651Y27849D01*
X109890D01*
X48673Y31463D02*
X49445Y30691D01*
X42000Y34134D02*
Y34500D01*
Y34134D02*
X44672Y31463D01*
X48673D01*
X49445Y30303D02*
Y30691D01*
X120738Y17000D02*
X137500D01*
X109890Y27849D02*
X120738Y17000D01*
X137500D02*
Y17812D01*
X139051Y19363D02*
Y27461D01*
X137500Y17812D02*
X139051Y19363D01*
D48*
X241500Y78000D02*
D03*
X20000Y25000D02*
D03*
X23000Y80500D02*
D03*
D49*
X202000Y47500D02*
D03*
Y57500D02*
D03*
D50*
Y67500D02*
D03*
D51*
X7500Y58500D02*
D03*
X161000Y65000D02*
D03*
X182000Y63500D02*
D03*
X120000Y75000D02*
D03*
X79000Y43500D02*
D03*
X123500Y12000D02*
D03*
X125000Y33500D02*
D03*
X89000Y60000D02*
D03*
X85500Y81500D02*
D03*
X110000Y90500D02*
D03*
X148000Y5500D02*
D03*
X142500Y54752D02*
D03*
X172000Y35500D02*
D03*
X186500Y3000D02*
D03*
X242110Y62350D02*
D03*
X205000Y76000D02*
D03*
X242110Y93650D02*
D03*
X73836Y14086D02*
D03*
X149000Y82500D02*
D03*
X108500Y22500D02*
D03*
X87000Y45500D02*
D03*
X135500Y91000D02*
D03*
X79500Y94000D02*
D03*
X75500Y22000D02*
D03*
X42000Y34500D02*
D03*
X137500Y17000D02*
D03*
X137000Y10500D02*
D03*
X136500Y4500D02*
D03*
X152500Y34500D02*
D03*
X90000Y74000D02*
D03*
X102000D02*
D03*
X131500Y56500D02*
D03*
X120000Y61500D02*
D03*
Y68000D02*
D03*
X164000Y54000D02*
D03*
X176000Y60500D02*
D03*
X158000Y4500D02*
D03*
D67*
X161098Y27461D02*
D03*
X135902D02*
D03*
X139051D02*
D03*
X157949D02*
D03*
D68*
X58500Y5697D02*
D03*
D69*
Y30303D02*
D03*
X67555D02*
D03*
X49445D02*
D03*
D70*
X138279Y63000D02*
D03*
X135721D02*
D03*
D71*
X151242Y87260D02*
D03*
X147758Y74500D02*
D03*
X143758Y91000D02*
D03*
X155242Y70760D02*
D03*
D72*
Y78240D02*
D03*
X151242Y94740D02*
D03*
D73*
X155390Y27461D02*
D03*
X153421D02*
D03*
X151453D02*
D03*
X149484D02*
D03*
X147516D02*
D03*
X145547D02*
D03*
X143579D02*
D03*
X141610D02*
D03*
D74*
X107130Y44500D02*
D03*
X110870D02*
D03*
X107500Y37000D02*
D03*
X111240D02*
D03*
M02*
