G04*
G04 #@! TF.GenerationSoftware,Altium Limited,Altium Designer,26.3.0 (6)*
G04*
G04 Layer_Color=32896*
%FSLAX25Y25*%
%MOIN*%
G70*
G04*
G04 #@! TF.SameCoordinates,A5B6A449-B9B4-44BE-A50F-CD135E59EE6A*
G04*
G04*
G04 #@! TF.FilePolarity,Positive*
G04*
G01*
G75*
%ADD10C,0.00600*%
%ADD11C,0.00787*%
%ADD79R,0.01456X0.05600*%
D10*
X149331Y59146D02*
X150669D01*
X149331Y65854D02*
X150669D01*
X113351Y47000D02*
X114100D01*
X113721Y34500D02*
X114470D01*
Y39500D01*
X113351Y42000D02*
X114100D01*
Y47000D01*
X113721Y39500D02*
X114470D01*
X165854Y80831D02*
Y82169D01*
X178854Y80331D02*
Y81669D01*
X172146Y80331D02*
Y81669D01*
X95381Y39929D02*
X96718D01*
X95381Y33221D02*
X96718D01*
X159146Y80831D02*
Y82169D01*
X77961Y32831D02*
Y34168D01*
X136831Y72961D02*
X138169D01*
X136831Y67039D02*
X138169D01*
X79539Y32831D02*
Y34168D01*
X85461Y32831D02*
Y34168D01*
X72039Y32831D02*
Y34168D01*
X96332Y40646D02*
X97668D01*
X191300Y76500D02*
X202042D01*
X191300D02*
Y99500D01*
X202700D01*
Y77926D02*
Y99500D01*
X133832Y38854D02*
X135169D01*
X126331Y93354D02*
X127668D01*
X133832Y32146D02*
X135169D01*
X133646Y79331D02*
Y80668D01*
X161331Y38854D02*
X162669D01*
X161331Y32146D02*
X162669D01*
X140354Y79331D02*
Y80668D01*
X73836Y2286D02*
X123636D01*
X73836Y24496D02*
Y25886D01*
Y17086D02*
Y19504D01*
Y2286D02*
Y11086D01*
Y25886D02*
X123636D01*
X64386Y38965D02*
Y98665D01*
X40786D02*
X64386D01*
X40786Y38965D02*
Y98665D01*
X190614Y9854D02*
Y39988D01*
X214214D01*
X96332Y47354D02*
X97668D01*
X123636Y14997D02*
Y25886D01*
Y2286D02*
Y9003D01*
X214214Y9854D02*
Y39988D01*
X190614Y9854D02*
X214214D01*
X40786Y38965D02*
X64386D01*
D11*
X207295Y41909D02*
Y73090D01*
X206052D02*
X207295D01*
X196705D02*
X203948D01*
X71689Y16313D02*
Y25677D01*
Y10323D02*
Y11858D01*
X69926Y25677D02*
X71689D01*
X60871D02*
X65184D01*
X51816D02*
X56129D01*
X45311D02*
X47074D01*
X65390Y10323D02*
X71689D01*
X45311D02*
X51610D01*
X45311D02*
Y25677D01*
X74689Y56378D02*
Y78622D01*
X87686Y79311D02*
X91323D01*
X81677D02*
X83314D01*
X98311Y56378D02*
Y78622D01*
X110677Y78811D02*
X120323D01*
X127311Y55878D02*
Y78122D01*
X81677Y55689D02*
X91323D01*
X148941Y77354D02*
Y79407D01*
X196705Y41909D02*
Y73090D01*
Y41909D02*
X207295D01*
X110677Y55189D02*
X120323D01*
X103689Y76592D02*
Y78122D01*
Y55878D02*
Y71408D01*
X144941Y96709D02*
X147177D01*
X144941Y85291D02*
Y88146D01*
Y85291D02*
X147500D01*
X148941Y68791D02*
Y71646D01*
Y68791D02*
X151500D01*
X144941Y93854D02*
Y96709D01*
X130508Y15256D02*
Y20177D01*
Y787D02*
Y3642D01*
X166492Y15256D02*
Y20177D01*
Y787D02*
Y3642D01*
X130508Y787D02*
X166492D01*
D79*
X113772Y44500D02*
D03*
X114142Y37000D02*
D03*
M02*
