G04*
G04 #@! TF.GenerationSoftware,Altium Limited,Altium Designer,26.3.0 (6)*
G04*
G04 Layer_Color=8421504*
%FSLAX25Y25*%
%MOIN*%
G70*
G04*
G04 #@! TF.SameCoordinates,A5B6A449-B9B4-44BE-A50F-CD135E59EE6A*
G04*
G04*
G04 #@! TF.FilePolarity,Positive*
G04*
G01*
G75*
%ADD14R,0.02762X0.05509*%
%ADD15R,0.05509X0.02762*%
%ADD16R,0.03150X0.01575*%
%ADD17R,0.05118X0.06102*%
%ADD18R,0.03150X0.03150*%
%ADD19R,0.04724X0.04724*%
%ADD20R,0.01575X0.03150*%
%ADD21R,0.04724X0.02559*%
%ADD22R,0.02559X0.04724*%
%ADD23R,0.02200X0.03850*%
%ADD24R,0.03850X0.02200*%
%ADD25R,0.02756X0.02362*%
%ADD26R,0.02362X0.01378*%
%ADD27R,0.04951X0.02766*%
G04:AMPARAMS|DCode=28|XSize=49.51mil|YSize=27.66mil|CornerRadius=13.83mil|HoleSize=0mil|Usage=FLASHONLY|Rotation=180.000|XOffset=0mil|YOffset=0mil|HoleType=Round|Shape=RoundedRectangle|*
%AMROUNDEDRECTD28*
21,1,0.04951,0.00000,0,0,180.0*
21,1,0.02185,0.02766,0,0,180.0*
1,1,0.02766,-0.01093,0.00000*
1,1,0.02766,0.01093,0.00000*
1,1,0.02766,0.01093,0.00000*
1,1,0.02766,-0.01093,0.00000*
%
%ADD28ROUNDEDRECTD28*%
G36*
X138366Y74134D02*
X133642D01*
Y76496D01*
X136004Y78858D01*
X138366D01*
Y74134D01*
D02*
G37*
D14*
X98801Y60500D02*
D03*
X105500D02*
D03*
X98150Y50000D02*
D03*
X104850D02*
D03*
X118150Y4000D02*
D03*
X124850D02*
D03*
X178850Y5500D02*
D03*
X172150D02*
D03*
X112150Y32000D02*
D03*
X40850Y27500D02*
D03*
X34150D02*
D03*
X39850Y12000D02*
D03*
X33150D02*
D03*
X118850Y32000D02*
D03*
D15*
X172000Y29850D02*
D03*
Y23150D02*
D03*
X181500Y50150D02*
D03*
Y56850D02*
D03*
Y39150D02*
D03*
Y45850D02*
D03*
X124500Y21150D02*
D03*
Y27850D02*
D03*
X181500Y26199D02*
D03*
Y19500D02*
D03*
D16*
X114941Y80039D02*
D03*
Y83386D02*
D03*
Y90079D02*
D03*
Y93425D02*
D03*
X170059Y83386D02*
D03*
Y86732D02*
D03*
Y93425D02*
D03*
X114941Y86732D02*
D03*
Y76693D02*
D03*
Y73347D02*
D03*
Y70000D02*
D03*
Y66654D02*
D03*
Y63307D02*
D03*
Y59961D02*
D03*
Y56614D02*
D03*
Y53268D02*
D03*
Y49921D02*
D03*
Y46575D02*
D03*
X170059D02*
D03*
Y49921D02*
D03*
Y53268D02*
D03*
Y56614D02*
D03*
Y59961D02*
D03*
Y63307D02*
D03*
Y66654D02*
D03*
Y70000D02*
D03*
Y73347D02*
D03*
Y76693D02*
D03*
Y80039D02*
D03*
Y90079D02*
D03*
D17*
X229358Y61850D02*
D03*
Y93150D02*
D03*
X211642D02*
D03*
Y61850D02*
D03*
D18*
X114941Y42441D02*
D03*
Y97559D02*
D03*
X170059Y42441D02*
D03*
Y97559D02*
D03*
D19*
X136004Y70000D02*
D03*
Y63504D02*
D03*
X142500D02*
D03*
X148996D02*
D03*
X142500Y76496D02*
D03*
Y70000D02*
D03*
X148996D02*
D03*
Y76496D02*
D03*
D20*
X119075Y97559D02*
D03*
X125768D02*
D03*
X122421D02*
D03*
X132461D02*
D03*
X129114D02*
D03*
X139154D02*
D03*
X135807D02*
D03*
X145846D02*
D03*
X142500D02*
D03*
X152539D02*
D03*
X149193D02*
D03*
X159232D02*
D03*
X155886D02*
D03*
X162579D02*
D03*
X165925D02*
D03*
X119075Y42441D02*
D03*
X122421D02*
D03*
X125768D02*
D03*
X129114D02*
D03*
X132461D02*
D03*
X135807D02*
D03*
X139154D02*
D03*
X142500D02*
D03*
X145846D02*
D03*
X149193D02*
D03*
X152539D02*
D03*
X155886D02*
D03*
X159232D02*
D03*
X162579D02*
D03*
X165925D02*
D03*
D21*
X50500Y13252D02*
D03*
X94000Y79752D02*
D03*
X101500Y80000D02*
D03*
X68000Y43252D02*
D03*
X94000Y86248D02*
D03*
X101500Y86496D02*
D03*
X68000Y49748D02*
D03*
X50500Y19748D02*
D03*
D22*
X165748Y18000D02*
D03*
X100748Y20000D02*
D03*
X159252Y18000D02*
D03*
X94252Y20000D02*
D03*
D23*
X148000Y11125D02*
D03*
X93000Y36875D02*
D03*
X144260Y21875D02*
D03*
X148000D02*
D03*
X151740D02*
D03*
Y11125D02*
D03*
X144260D02*
D03*
X96740Y26125D02*
D03*
X93000D02*
D03*
X89260D02*
D03*
Y36875D02*
D03*
X96740D02*
D03*
D24*
X81375Y60500D02*
D03*
X70625D02*
D03*
X81375Y64240D02*
D03*
Y56760D02*
D03*
X70625D02*
D03*
Y64240D02*
D03*
D25*
X117000Y21260D02*
D03*
Y25000D02*
D03*
D26*
X191500Y72559D02*
D03*
Y61500D02*
D03*
X192000Y53720D02*
D03*
X192500Y48779D02*
D03*
X194500Y8721D02*
D03*
X72000Y73000D02*
D03*
X191500Y70000D02*
D03*
Y64059D02*
D03*
X192000Y56279D02*
D03*
X192500Y46220D02*
D03*
X194500Y11280D02*
D03*
X72000Y75559D02*
D03*
D27*
X25997Y41000D02*
D03*
X26998Y11500D02*
D03*
D28*
X13002Y41000D02*
D03*
X14003Y11500D02*
D03*
M02*
