G04*
G04 #@! TF.GenerationSoftware,Altium Limited,Altium Designer,26.3.0 (6)*
G04*
G04 Layer_Physical_Order=1*
G04 Layer_Color=255*
%FSLAX25Y25*%
%MOIN*%
G70*
G04*
G04 #@! TF.SameCoordinates,A5B6A449-B9B4-44BE-A50F-CD135E59EE6A*
G04*
G04*
G04 #@! TF.FilePolarity,Positive*
G04*
G01*
G75*
%ADD14R,0.02762X0.05509*%
%ADD15R,0.05509X0.02762*%
%ADD16R,0.03150X0.01575*%
%ADD17R,0.05118X0.06102*%
%ADD18R,0.03150X0.03150*%
%ADD19R,0.04724X0.04724*%
%ADD20R,0.01575X0.03150*%
%ADD21R,0.04724X0.02559*%
%ADD22R,0.02559X0.04724*%
%ADD23R,0.02200X0.03850*%
%ADD24R,0.03850X0.02200*%
%ADD25R,0.02756X0.02362*%
%ADD26R,0.02362X0.01378*%
%ADD27R,0.04951X0.02766*%
G04:AMPARAMS|DCode=28|XSize=49.51mil|YSize=27.66mil|CornerRadius=13.83mil|HoleSize=0mil|Usage=FLASHONLY|Rotation=180.000|XOffset=0mil|YOffset=0mil|HoleType=Round|Shape=RoundedRectangle|*
%AMROUNDEDRECTD28*
21,1,0.04951,0.00000,0,0,180.0*
21,1,0.02185,0.02766,0,0,180.0*
1,1,0.02766,-0.01093,0.00000*
1,1,0.02766,0.01093,0.00000*
1,1,0.02766,0.01093,0.00000*
1,1,0.02766,-0.01093,0.00000*
%
%ADD28ROUNDEDRECTD28*%
%ADD38C,0.05900*%
%ADD39C,0.06900*%
%ADD40C,0.08000*%
%ADD41C,0.05600*%
G04:AMPARAMS|DCode=42|XSize=39.37mil|YSize=70.87mil|CornerRadius=19.68mil|HoleSize=0mil|Usage=FLASHONLY|Rotation=180.000|XOffset=0mil|YOffset=0mil|HoleType=Round|Shape=RoundedRectangle|*
%AMROUNDEDRECTD42*
21,1,0.03937,0.03150,0,0,180.0*
21,1,0.00000,0.07087,0,0,180.0*
1,1,0.03937,0.00000,0.01575*
1,1,0.03937,0.00000,0.01575*
1,1,0.03937,0.00000,-0.01575*
1,1,0.03937,0.00000,-0.01575*
%
%ADD42ROUNDEDRECTD42*%
G04:AMPARAMS|DCode=43|XSize=39.37mil|YSize=86.61mil|CornerRadius=19.68mil|HoleSize=0mil|Usage=FLASHONLY|Rotation=180.000|XOffset=0mil|YOffset=0mil|HoleType=Round|Shape=RoundedRectangle|*
%AMROUNDEDRECTD43*
21,1,0.03937,0.04724,0,0,180.0*
21,1,0.00000,0.08661,0,0,180.0*
1,1,0.03937,0.00000,0.02362*
1,1,0.03937,0.00000,0.02362*
1,1,0.03937,0.00000,-0.02362*
1,1,0.03937,0.00000,-0.02362*
%
%ADD43ROUNDEDRECTD43*%
%ADD45R,0.01575X0.01575*%
%ADD46C,0.01000*%
%ADD47C,0.02000*%
%ADD48C,0.06000*%
%ADD49C,0.06299*%
G04:AMPARAMS|DCode=50|XSize=62.99mil|YSize=62.99mil|CornerRadius=15.75mil|HoleSize=0mil|Usage=FLASHONLY|Rotation=270.000|XOffset=0mil|YOffset=0mil|HoleType=Round|Shape=RoundedRectangle|*
%AMROUNDEDRECTD50*
21,1,0.06299,0.03150,0,0,270.0*
21,1,0.03150,0.06299,0,0,270.0*
1,1,0.03150,-0.01575,-0.01575*
1,1,0.03150,-0.01575,0.01575*
1,1,0.03150,0.01575,0.01575*
1,1,0.03150,0.01575,-0.01575*
%
%ADD50ROUNDEDRECTD50*%
%ADD51C,0.05000*%
G36*
X111226Y100107D02*
X111243Y100023D01*
X111464Y99692D01*
X111795Y99471D01*
X112185Y99394D01*
X112366D01*
Y98059D01*
X114941D01*
Y97059D01*
X112366D01*
Y94330D01*
X111366Y93753D01*
X111351Y93761D01*
X110500Y93989D01*
Y90500D01*
X110000D01*
Y90000D01*
X106510D01*
X106738Y89149D01*
X106881Y88901D01*
X106304Y87901D01*
X104862D01*
Y88776D01*
X98260D01*
X98138Y88776D01*
Y88776D01*
X97362Y88528D01*
X97362Y88528D01*
X90638D01*
Y87777D01*
X87885D01*
X82815Y92848D01*
X83000Y93539D01*
Y94461D01*
X82762Y95351D01*
X82301Y96149D01*
X81649Y96801D01*
X80851Y97262D01*
X79961Y97500D01*
X79039D01*
X78149Y97262D01*
X77351Y96801D01*
X76699Y96149D01*
X76239Y95351D01*
X76000Y94461D01*
Y93539D01*
X76239Y92649D01*
X76699Y91851D01*
X77351Y91199D01*
X78149Y90738D01*
X79039Y90500D01*
X79961D01*
X80652Y90685D01*
X85337Y86000D01*
X85124Y85286D01*
X84948Y84975D01*
X84149Y84762D01*
X83351Y84301D01*
X82699Y83649D01*
X82239Y82851D01*
X82011Y82000D01*
X88990D01*
X88762Y82851D01*
X88301Y83649D01*
X88231Y83719D01*
X88645Y84719D01*
X90638D01*
Y83969D01*
X97241D01*
X97362Y83969D01*
Y83969D01*
X98138Y84216D01*
X98138Y84216D01*
X104862D01*
Y84843D01*
X112029D01*
X112366Y84566D01*
Y81598D01*
Y78252D01*
Y74906D01*
Y71529D01*
X106633D01*
X105315Y72848D01*
X105500Y73539D01*
Y74461D01*
X105262Y75351D01*
X104801Y76149D01*
X104229Y76720D01*
X104269Y77072D01*
X104556Y77720D01*
X104862D01*
Y79500D01*
X101500D01*
Y80000D01*
X101000D01*
Y82279D01*
X98260D01*
X98138Y82279D01*
X97241Y82032D01*
X97138Y82032D01*
X94500D01*
Y79752D01*
Y77473D01*
X97241D01*
X97362Y77472D01*
X98260Y77720D01*
X98362Y77720D01*
X99444D01*
X99731Y77072D01*
X99771Y76720D01*
X99199Y76149D01*
X98738Y75351D01*
X98500Y74461D01*
Y73539D01*
X98738Y72649D01*
X99199Y71851D01*
X99851Y71199D01*
X100649Y70739D01*
X101539Y70500D01*
X102461D01*
X103152Y70685D01*
X104654Y69183D01*
X104280Y68183D01*
X97980D01*
X93315Y72848D01*
X93500Y73539D01*
Y74461D01*
X93261Y75351D01*
X92801Y76149D01*
X92477Y76473D01*
X92892Y77473D01*
X93500D01*
Y79252D01*
X90638D01*
Y78455D01*
X90461Y77500D01*
X89539Y77500D01*
X88649Y77262D01*
X87851Y76801D01*
X87199Y76149D01*
X86739Y75351D01*
X86703Y75217D01*
X85587Y74919D01*
X83865Y76641D01*
X83369Y76972D01*
X82784Y77089D01*
X74181D01*
Y77248D01*
X69819D01*
Y77089D01*
X55204D01*
X54437Y78089D01*
X54450Y78137D01*
Y79177D01*
X54181Y80182D01*
X53661Y81083D01*
X52925Y81818D01*
X52025Y82338D01*
X51020Y82608D01*
X49980D01*
X48975Y82338D01*
X48075Y81818D01*
X47339Y81083D01*
X46819Y80182D01*
X46550Y79177D01*
Y78137D01*
X46819Y77133D01*
X47339Y76232D01*
X48075Y75497D01*
X48975Y74977D01*
X49980Y74708D01*
X51020D01*
X52025Y74977D01*
X52082Y75010D01*
X52613Y74478D01*
X53110Y74146D01*
X53695Y74030D01*
X69819D01*
Y73500D01*
X72000D01*
X74181D01*
Y74030D01*
X82151D01*
X89727Y66453D01*
X89344Y65529D01*
X84300D01*
Y66340D01*
X78450D01*
Y62140D01*
Y61000D01*
X81375D01*
X84300D01*
Y61710D01*
X85044Y62378D01*
X85300Y62350D01*
X85808Y61471D01*
X85738Y61351D01*
X85510Y60500D01*
X89000D01*
Y60000D01*
X89500D01*
Y56511D01*
X90351Y56739D01*
X91149Y57199D01*
X91801Y57851D01*
X92261Y58649D01*
X92297Y58783D01*
X92463Y58918D01*
X93438Y59176D01*
X93572Y59087D01*
X94157Y58971D01*
X96420D01*
Y56746D01*
X101182D01*
Y63524D01*
X103119D01*
Y56746D01*
X106645D01*
X107059Y55746D01*
X105068Y53754D01*
X102469D01*
Y46246D01*
X107231D01*
Y51591D01*
X110724Y55085D01*
X112366D01*
Y51480D01*
Y48134D01*
Y44787D01*
Y42941D01*
X114941D01*
Y41941D01*
X112366D01*
Y41296D01*
X98907D01*
X98881Y41313D01*
X98296Y41429D01*
X91444D01*
X90859Y41313D01*
X90363Y40981D01*
X89719Y40337D01*
X89688Y40291D01*
X89197Y39800D01*
X87160D01*
Y33950D01*
X92500D01*
Y36875D01*
X93500D01*
Y33950D01*
X98840D01*
Y35971D01*
X108859D01*
X109769Y35754D01*
X109769Y34971D01*
Y28246D01*
X110621D01*
Y26784D01*
X109652Y25815D01*
X108961Y26000D01*
X108039D01*
X107149Y25762D01*
X106351Y25301D01*
X105699Y24649D01*
X105238Y23851D01*
X105000Y22961D01*
Y22039D01*
X105238Y21149D01*
X105699Y20351D01*
X106351Y19699D01*
X107149Y19239D01*
X108039Y19000D01*
X108961D01*
X109851Y19239D01*
X110649Y19699D01*
X111301Y20351D01*
X111761Y21149D01*
X112000Y22039D01*
Y22961D01*
X111815Y23652D01*
X113232Y25069D01*
X113563Y25565D01*
X113622Y25860D01*
X114622Y25762D01*
Y22819D01*
Y21760D01*
X117000D01*
X119378D01*
Y22819D01*
Y25018D01*
X119770Y25410D01*
X120746Y25469D01*
X120746Y25469D01*
X128254D01*
X128498Y24569D01*
Y24431D01*
X128273Y23601D01*
X127517Y23531D01*
X125000D01*
Y21150D01*
Y18769D01*
X128254D01*
Y21323D01*
X129254Y21662D01*
X129375Y21505D01*
X129995Y21029D01*
X130717Y20730D01*
X131492Y20628D01*
X132267Y20730D01*
X132989Y21029D01*
X133609Y21505D01*
X134085Y22125D01*
X134384Y22847D01*
X134486Y23622D01*
Y26772D01*
X134384Y27547D01*
X134085Y28269D01*
X133609Y28889D01*
X132989Y29365D01*
X132267Y29664D01*
X131492Y29766D01*
X130717Y29664D01*
X129995Y29365D01*
X129895Y29288D01*
X129438Y29379D01*
X128254D01*
Y30231D01*
X128095D01*
X127681Y31231D01*
X127801Y31351D01*
X128261Y32149D01*
X128489Y33000D01*
X125000D01*
Y34000D01*
X128489D01*
X128261Y34851D01*
X128192Y34971D01*
X128770Y35971D01*
X135000D01*
X135585Y36087D01*
X136081Y36419D01*
X138081Y38418D01*
X138081Y38419D01*
X139529Y39866D01*
X140971D01*
Y24460D01*
X141087Y23875D01*
X141419Y23378D01*
X142160Y22637D01*
Y19343D01*
X141295Y18625D01*
X140536Y18741D01*
X140301Y19149D01*
X139649Y19801D01*
X138851Y20261D01*
X137961Y20500D01*
X137039D01*
X136149Y20261D01*
X135351Y19801D01*
X134699Y19149D01*
X134239Y18351D01*
X134000Y17461D01*
Y16539D01*
X134239Y15649D01*
X134699Y14851D01*
X134304Y13835D01*
X133967Y13614D01*
X133807Y13671D01*
X133609Y13928D01*
X132989Y14404D01*
X132267Y14703D01*
X131492Y14805D01*
X130717Y14703D01*
X129995Y14404D01*
X129375Y13928D01*
X128899Y13308D01*
X128600Y12586D01*
X128498Y11811D01*
Y7647D01*
X128231Y7452D01*
X127231Y7754D01*
Y7754D01*
X125042D01*
X124851Y8738D01*
X125649Y9199D01*
X126301Y9851D01*
X126761Y10649D01*
X126989Y11500D01*
X120010D01*
X120238Y10649D01*
X120699Y9851D01*
X121351Y9199D01*
X122149Y8738D01*
X122320Y8693D01*
X122468Y7754D01*
X122468Y7618D01*
Y246D01*
X121570Y0D01*
X121430D01*
X120531Y246D01*
X120531Y1000D01*
Y3500D01*
X118150D01*
X115769D01*
Y1000D01*
X115769Y246D01*
X114871Y0D01*
X0D01*
Y99635D01*
X708Y100341D01*
X111226Y100107D01*
D02*
G37*
G36*
X249451Y99813D02*
X249500Y707D01*
X248793Y0D01*
X189864D01*
X189562Y456D01*
X189387Y1000D01*
X189761Y1649D01*
X189989Y2500D01*
X183010D01*
X183238Y1649D01*
X183613Y1000D01*
X183438Y456D01*
X183136Y0D01*
X128129D01*
X127231Y246D01*
Y2471D01*
X127611D01*
X128196Y2587D01*
X128692Y2919D01*
X130188Y4414D01*
X130717Y4194D01*
X131492Y4092D01*
X132000Y4159D01*
X132364Y4116D01*
X133150Y3478D01*
X133238Y3149D01*
X133699Y2351D01*
X134351Y1699D01*
X135149Y1238D01*
X136039Y1000D01*
X136961D01*
X137851Y1238D01*
X138649Y1699D01*
X139301Y2351D01*
X139761Y3149D01*
X139980Y3966D01*
X140307Y4184D01*
X143635Y7512D01*
X143940Y7468D01*
X144089Y7352D01*
X144607Y6359D01*
X144510Y6000D01*
X151489D01*
X151261Y6851D01*
X151060Y7200D01*
X151600Y8200D01*
X153840D01*
Y10136D01*
X154764Y10519D01*
X156471Y8812D01*
Y7659D01*
X155851Y7301D01*
X155199Y6649D01*
X154738Y5851D01*
X154500Y4961D01*
Y4039D01*
X154738Y3149D01*
X155199Y2351D01*
X155851Y1699D01*
X156649Y1238D01*
X157539Y1000D01*
X158461D01*
X159351Y1238D01*
X160149Y1699D01*
X160801Y2351D01*
X161261Y3149D01*
X161500Y4039D01*
Y4961D01*
X161261Y5851D01*
X160801Y6649D01*
X160149Y7301D01*
X159529Y7659D01*
Y9446D01*
X159413Y10031D01*
X159081Y10527D01*
X156975Y12633D01*
X157165Y12917D01*
X157281Y13502D01*
Y14638D01*
X161531D01*
Y21362D01*
X156973D01*
Y19990D01*
X155967D01*
X155558Y20263D01*
X154973Y20379D01*
X153840D01*
Y24800D01*
X152582D01*
X152553Y24945D01*
X152222Y25441D01*
X147663Y30000D01*
Y39866D01*
X150990D01*
Y37670D01*
X150351Y37301D01*
X149699Y36649D01*
X149239Y35851D01*
X149000Y34961D01*
Y34039D01*
X149239Y33149D01*
X149699Y32351D01*
X150351Y31699D01*
X151149Y31238D01*
X152039Y31000D01*
X152961D01*
X153851Y31238D01*
X154649Y31699D01*
X155301Y32351D01*
X155762Y33149D01*
X156000Y34039D01*
Y34961D01*
X155762Y35851D01*
X155301Y36649D01*
X154649Y37301D01*
X154049Y37647D01*
Y39866D01*
X169559D01*
Y42441D01*
X170559D01*
Y39866D01*
X170908D01*
X171040Y38866D01*
X170649Y38761D01*
X169851Y38301D01*
X169199Y37649D01*
X168738Y36851D01*
X168510Y36000D01*
X172000D01*
Y35000D01*
X168510D01*
X168738Y34149D01*
X169199Y33351D01*
X169319Y33231D01*
X168905Y32231D01*
X168246D01*
Y29662D01*
X167246Y29180D01*
X167005Y29365D01*
X166283Y29664D01*
X165508Y29766D01*
X164733Y29664D01*
X164011Y29365D01*
X163391Y28889D01*
X162915Y28269D01*
X162616Y27547D01*
X162514Y26772D01*
Y23622D01*
X162616Y22847D01*
X162915Y22125D01*
X163469Y21362D01*
Y18500D01*
X165748D01*
X168027D01*
Y19860D01*
X168246Y20769D01*
X168782Y20769D01*
X175754D01*
Y20769D01*
X176419Y21045D01*
X177746Y19718D01*
Y17119D01*
X183091D01*
X184292Y15919D01*
X184788Y15587D01*
X185373Y15471D01*
X190808D01*
X192313Y13966D01*
X192319Y12968D01*
X192319D01*
Y9591D01*
Y9221D01*
X194500D01*
X196681D01*
Y9750D01*
X209354D01*
X210690Y8415D01*
X211186Y8083D01*
X211771Y7967D01*
X225233D01*
X225341Y7566D01*
X225999Y6426D01*
X226930Y5495D01*
X228070Y4837D01*
X229342Y4496D01*
X230658D01*
X231930Y4837D01*
X233070Y5495D01*
X234001Y6426D01*
X234659Y7566D01*
X235000Y8838D01*
Y10154D01*
X234659Y11426D01*
X234001Y12566D01*
X233070Y13497D01*
X231930Y14155D01*
X230658Y14496D01*
X229342D01*
X228070Y14155D01*
X226930Y13497D01*
X225999Y12566D01*
X225341Y11426D01*
X225233Y11025D01*
X212404D01*
X211069Y12361D01*
X210573Y12693D01*
X209987Y12809D01*
X196681D01*
Y12968D01*
X196029D01*
Y13941D01*
X195913Y14526D01*
X195581Y15023D01*
X192523Y18081D01*
X192026Y18413D01*
X191441Y18529D01*
X186007D01*
X185254Y19282D01*
Y21881D01*
X179909D01*
X178895Y22894D01*
X179278Y23818D01*
X185254D01*
Y24670D01*
X200857D01*
X201442Y24786D01*
X201938Y25118D01*
X202981Y26160D01*
X203980Y25892D01*
X205020D01*
X206025Y26162D01*
X206925Y26682D01*
X207661Y27417D01*
X208181Y28318D01*
X208450Y29322D01*
Y30362D01*
X208181Y31367D01*
X207661Y32268D01*
X206925Y33003D01*
X206025Y33523D01*
X205020Y33792D01*
X203980D01*
X202975Y33523D01*
X202075Y33003D01*
X201339Y32268D01*
X200819Y31367D01*
X200550Y30362D01*
Y29322D01*
X200770Y28502D01*
X200110Y27729D01*
X185254D01*
Y28580D01*
X183029D01*
Y36769D01*
X185254D01*
Y41532D01*
X177746D01*
X177210Y42310D01*
X177081Y42503D01*
X173149Y46435D01*
X173207Y46731D01*
X174292Y47060D01*
X176164Y45189D01*
X176660Y44857D01*
X177246Y44741D01*
X177746D01*
Y43468D01*
X185254D01*
Y44320D01*
X187696D01*
X188281Y44437D01*
X188662Y44691D01*
X190319D01*
Y44532D01*
X192518D01*
X195781Y41269D01*
X196277Y40937D01*
X196862Y40821D01*
X210407D01*
X210993Y40937D01*
X211489Y41269D01*
X215194Y44974D01*
X225233D01*
X225341Y44574D01*
X225999Y43434D01*
X226930Y42503D01*
X228070Y41845D01*
X229342Y41504D01*
X230658D01*
X231930Y41845D01*
X233070Y42503D01*
X234001Y43434D01*
X234659Y44574D01*
X235000Y45846D01*
Y47162D01*
X234659Y48434D01*
X234001Y49574D01*
X233070Y50505D01*
X231930Y51163D01*
X230658Y51504D01*
X229342D01*
X228070Y51163D01*
X226930Y50505D01*
X225999Y49574D01*
X225341Y48434D01*
X225233Y48033D01*
X216454D01*
X215864Y49033D01*
X215989Y49500D01*
X209011D01*
X209239Y48649D01*
X209699Y47851D01*
X210351Y47199D01*
X211149Y46738D01*
X211204Y46724D01*
X211503Y45608D01*
X209774Y43880D01*
X205662D01*
X205248Y44880D01*
X205321Y44952D01*
X205867Y45898D01*
X206150Y46954D01*
Y47000D01*
X202000D01*
X197850D01*
Y46954D01*
X198133Y45898D01*
X198677Y44957D01*
X198520Y44559D01*
X198317Y44060D01*
X197414Y43962D01*
X194681Y46694D01*
Y48280D01*
X192500D01*
X190319D01*
Y47750D01*
X188066D01*
X187481Y47633D01*
X187101Y47379D01*
X185254D01*
Y52531D01*
X181016D01*
X180807Y53531D01*
X181456Y54469D01*
X185254D01*
Y54939D01*
X189819D01*
Y54220D01*
X192000D01*
X194181D01*
Y54256D01*
X195012Y54645D01*
X195181Y54656D01*
X198568Y51269D01*
X198700Y50068D01*
X198679Y50048D01*
X198133Y49102D01*
X197850Y48046D01*
Y48000D01*
X202000D01*
X206150D01*
Y48046D01*
X205867Y49102D01*
X205451Y49821D01*
X205720Y50530D01*
X205962Y50821D01*
X207426D01*
X208011Y50937D01*
X208110Y51003D01*
X208822Y50569D01*
X208893Y50500D01*
X212000D01*
Y53692D01*
X211807Y53934D01*
X211780Y53984D01*
X211640Y54428D01*
X211917Y54843D01*
X212034Y55429D01*
Y57799D01*
X215201D01*
Y65902D01*
X213171D01*
Y89098D01*
X215201D01*
Y97201D01*
X208083D01*
Y89098D01*
X210112D01*
Y65902D01*
X208083D01*
Y57799D01*
X208975D01*
Y56062D01*
X206792Y53880D01*
X205662D01*
X205248Y54880D01*
X205321Y54952D01*
X205867Y55898D01*
X206150Y56954D01*
Y58046D01*
X205867Y59102D01*
X205321Y60048D01*
X204548Y60821D01*
X203602Y61367D01*
X202546Y61650D01*
X201454D01*
X200886Y61497D01*
X200007Y62189D01*
X199981Y62244D01*
X200006Y62969D01*
X200425Y63328D01*
X203575D01*
X204247Y63417D01*
X204873Y63676D01*
X205411Y64089D01*
X205824Y64627D01*
X206083Y65253D01*
X206172Y65925D01*
Y69075D01*
X206083Y69747D01*
X205824Y70373D01*
X205411Y70911D01*
X204873Y71324D01*
X204405Y71518D01*
X204405Y71518D01*
X204788Y71359D01*
X204378Y71603D01*
X204366Y71643D01*
X204514Y72377D01*
X204607Y72474D01*
X205046Y72500D01*
X204632Y72500D01*
X204632Y72500D01*
X205461Y72500D01*
X206351Y72738D01*
X207149Y73199D01*
X207801Y73851D01*
X208261Y74649D01*
X208489Y75500D01*
X201511D01*
X201739Y74649D01*
X202199Y73851D01*
X202851Y73199D01*
X203604Y72765D01*
X203616Y72758D01*
X203643Y72648D01*
X203585Y71822D01*
X203465Y71672D01*
X203379Y71672D01*
X200425D01*
X199753Y71583D01*
X199127Y71324D01*
X198589Y70911D01*
X198176Y70373D01*
X197917Y69747D01*
X197828Y69075D01*
Y68529D01*
X195625D01*
X193681Y70474D01*
Y72059D01*
X191500D01*
X189319D01*
Y71529D01*
X178173D01*
X172634Y77068D01*
Y81598D01*
Y82886D01*
X167484D01*
Y81598D01*
Y78252D01*
Y74906D01*
Y71559D01*
Y68213D01*
Y64866D01*
Y61520D01*
Y58144D01*
X166984D01*
X166399Y58027D01*
X165903Y57696D01*
X165426Y57218D01*
X165351Y57262D01*
X164461Y57500D01*
X163539D01*
X162649Y57262D01*
X161851Y56801D01*
X161199Y56149D01*
X160739Y55351D01*
X160500Y54461D01*
Y53539D01*
X160739Y52649D01*
X161199Y51851D01*
X161851Y51199D01*
X162649Y50739D01*
X163539Y50500D01*
X164461D01*
X165351Y50739D01*
X166149Y51199D01*
X166484Y51534D01*
X166620Y51527D01*
X167484Y51120D01*
Y48134D01*
Y45016D01*
X131544D01*
X131487Y45088D01*
X131179Y46016D01*
X132581Y47419D01*
X132913Y47915D01*
X133029Y48500D01*
Y53342D01*
X133649Y53699D01*
X134301Y54351D01*
X134762Y55149D01*
X135000Y56039D01*
Y56961D01*
X134762Y57851D01*
X134301Y58649D01*
X133808Y59142D01*
X133955Y59797D01*
X134168Y60142D01*
X135504D01*
Y63004D01*
X132642D01*
Y60853D01*
X131996Y60045D01*
X131701Y60000D01*
X131039D01*
X130149Y59762D01*
X129351Y59301D01*
X128699Y58649D01*
X128238Y57851D01*
X128000Y56961D01*
Y56039D01*
X128238Y55149D01*
X128699Y54351D01*
X129351Y53699D01*
X129971Y53342D01*
Y49134D01*
X129229Y48392D01*
X117516D01*
Y49546D01*
X125081Y57111D01*
X125413Y57608D01*
X125529Y58193D01*
Y64000D01*
X125413Y64585D01*
X125081Y65081D01*
X123315Y66848D01*
X123500Y67539D01*
Y68461D01*
X123261Y69351D01*
X122801Y70149D01*
X122149Y70801D01*
X121938Y70923D01*
Y72077D01*
X122149Y72199D01*
X122801Y72851D01*
X123261Y73649D01*
X123500Y74539D01*
Y75461D01*
X123261Y76351D01*
X122801Y77149D01*
X122149Y77801D01*
X121529Y78158D01*
Y79114D01*
X121413Y79699D01*
X121081Y80196D01*
X117516Y83761D01*
Y88291D01*
Y89579D01*
X114941D01*
Y90579D01*
X117516D01*
Y91638D01*
Y92925D01*
X114941D01*
Y93925D01*
X117516D01*
Y94984D01*
X118575D01*
Y97559D01*
X119575D01*
Y94984D01*
X121921D01*
Y97559D01*
X122921D01*
Y94984D01*
X125268D01*
Y97559D01*
X126268D01*
Y94984D01*
X128614D01*
Y97559D01*
X129614D01*
Y94984D01*
X131961D01*
Y97559D01*
X132961D01*
Y94984D01*
X133401D01*
X133669Y93984D01*
X133351Y93801D01*
X132699Y93149D01*
X132238Y92351D01*
X132000Y91461D01*
Y90539D01*
X132238Y89649D01*
X132699Y88851D01*
X133351Y88199D01*
X134149Y87739D01*
X135039Y87500D01*
X135961D01*
X136851Y87739D01*
X137649Y88199D01*
X138301Y88851D01*
X138761Y89649D01*
X139000Y90539D01*
Y91461D01*
X138761Y92351D01*
X138301Y93149D01*
X137649Y93801D01*
X137331Y93984D01*
X137599Y94984D01*
X138654D01*
Y97559D01*
X139654D01*
Y94984D01*
X142000D01*
Y97559D01*
X143000D01*
Y94984D01*
X145346D01*
Y97559D01*
X146346D01*
Y94984D01*
X148693D01*
Y97559D01*
X149693D01*
Y94984D01*
X152039D01*
Y97559D01*
X153039D01*
Y94984D01*
X155386D01*
Y97559D01*
X156386D01*
Y94984D01*
X158449D01*
X158863Y93984D01*
X150534Y85655D01*
X150351Y85761D01*
X149461Y86000D01*
X148539D01*
X147649Y85761D01*
X146851Y85301D01*
X146199Y84649D01*
X145738Y83851D01*
X145500Y82961D01*
Y82039D01*
X145738Y81149D01*
X145906Y80858D01*
X145329Y79858D01*
X143000D01*
Y76496D01*
X142500D01*
Y75996D01*
X139138D01*
Y73362D01*
X136504D01*
Y70000D01*
X136004D01*
Y69500D01*
X132642D01*
Y66638D01*
Y64004D01*
X136004D01*
Y63504D01*
X136504D01*
Y60142D01*
X142000D01*
Y63504D01*
X143000D01*
Y60142D01*
X148496D01*
Y63504D01*
X148996D01*
Y64004D01*
X152358D01*
Y66638D01*
Y69500D01*
X148996D01*
Y70500D01*
X152358D01*
Y73134D01*
Y75996D01*
X148996D01*
Y76996D01*
X152358D01*
Y79858D01*
X152358D01*
X152094Y80858D01*
X152261Y81149D01*
X152500Y82039D01*
Y82961D01*
X152429Y83225D01*
X161100Y91896D01*
X167484D01*
Y88291D01*
Y87232D01*
X172634D01*
Y88291D01*
Y91638D01*
Y94984D01*
Y97059D01*
X170059D01*
Y98059D01*
X172634D01*
Y99394D01*
X172815D01*
X173205Y99471D01*
X173536Y99692D01*
X173724Y99974D01*
X249451Y99813D01*
D02*
G37*
G36*
X189319Y64077D02*
Y62000D01*
X191500D01*
X193681D01*
Y62530D01*
X196414D01*
Y61557D01*
X196530Y60972D01*
X196862Y60476D01*
X198171Y59167D01*
X198133Y59102D01*
X197850Y58046D01*
Y57727D01*
X196850Y57313D01*
X196613Y57550D01*
X196117Y57882D01*
X195531Y57998D01*
X185254D01*
Y59231D01*
X183454D01*
X183322Y60231D01*
X183351Y60238D01*
X184149Y60699D01*
X184801Y61351D01*
X185261Y62149D01*
X185489Y63000D01*
X182000D01*
Y64000D01*
X185489D01*
X185261Y64851D01*
X184904Y65471D01*
X185115Y66085D01*
X185393Y66471D01*
X186925D01*
X189319Y64077D01*
D02*
G37*
G36*
X173851Y57699D02*
X174471Y57341D01*
Y56659D01*
X174587Y56073D01*
X174919Y55577D01*
X177716Y52779D01*
Y51032D01*
X177746Y50884D01*
Y49240D01*
X176822Y48857D01*
X174676Y51003D01*
X174180Y51334D01*
X173594Y51451D01*
X172634D01*
Y54827D01*
Y57502D01*
X173634Y57916D01*
X173851Y57699D01*
D02*
G37*
%LPC*%
G36*
X109500Y93989D02*
X108649Y93761D01*
X107851Y93301D01*
X107199Y92649D01*
X106738Y91851D01*
X106510Y91000D01*
X109500D01*
Y93989D01*
D02*
G37*
G36*
X51020Y92450D02*
X51000D01*
Y89000D01*
X54450D01*
Y89020D01*
X54181Y90025D01*
X53661Y90925D01*
X52925Y91661D01*
X52025Y92181D01*
X51020Y92450D01*
D02*
G37*
G36*
X50000D02*
X49980D01*
X48975Y92181D01*
X48075Y91661D01*
X47339Y90925D01*
X46819Y90025D01*
X46550Y89020D01*
Y89000D01*
X50000D01*
Y92450D01*
D02*
G37*
G36*
X54450Y88000D02*
X51000D01*
Y84550D01*
X51020D01*
X52025Y84819D01*
X52925Y85339D01*
X53661Y86075D01*
X54181Y86975D01*
X54450Y87980D01*
Y88000D01*
D02*
G37*
G36*
X50000D02*
X46550D01*
Y87980D01*
X46819Y86975D01*
X47339Y86075D01*
X48075Y85339D01*
X48975Y84819D01*
X49980Y84550D01*
X50000D01*
Y88000D01*
D02*
G37*
G36*
X102000Y82279D02*
Y80500D01*
X104862D01*
Y82279D01*
X102000D01*
D02*
G37*
G36*
X93500Y82032D02*
X90638D01*
Y80252D01*
X93500D01*
Y82032D01*
D02*
G37*
G36*
X88990Y81000D02*
X86000D01*
Y78010D01*
X86851Y78238D01*
X87649Y78699D01*
X88301Y79351D01*
X88762Y80149D01*
X88990Y81000D01*
D02*
G37*
G36*
X85000D02*
X82011D01*
X82239Y80149D01*
X82699Y79351D01*
X83351Y78699D01*
X84149Y78238D01*
X85000Y78010D01*
Y81000D01*
D02*
G37*
G36*
X23591Y86500D02*
X22409D01*
X21250Y86269D01*
X20158Y85817D01*
X19175Y85160D01*
X18339Y84325D01*
X17683Y83342D01*
X17231Y82250D01*
X17000Y81091D01*
Y79909D01*
X17231Y78750D01*
X17683Y77658D01*
X18339Y76675D01*
X19175Y75840D01*
X20158Y75183D01*
X21250Y74731D01*
X22409Y74500D01*
X23591D01*
X24750Y74731D01*
X25842Y75183D01*
X26825Y75840D01*
X27661Y76675D01*
X28317Y77658D01*
X28769Y78750D01*
X29000Y79909D01*
Y81091D01*
X28769Y82250D01*
X28317Y83342D01*
X27661Y84325D01*
X26825Y85160D01*
X25842Y85817D01*
X24750Y86269D01*
X23591Y86500D01*
D02*
G37*
G36*
X74181Y72500D02*
X72500D01*
Y71311D01*
X74181D01*
Y72500D01*
D02*
G37*
G36*
X71500D02*
X69819D01*
Y71311D01*
X71500D01*
Y72500D01*
D02*
G37*
G36*
X51020Y72765D02*
X49980D01*
X48975Y72496D01*
X48075Y71976D01*
X47339Y71240D01*
X46819Y70340D01*
X46550Y69335D01*
Y68295D01*
X46819Y67290D01*
X47339Y66390D01*
X48075Y65654D01*
X48975Y65134D01*
X49980Y64865D01*
X51020D01*
X52019Y65133D01*
X53993Y63159D01*
X54489Y62827D01*
X55075Y62711D01*
X67700D01*
Y58289D01*
X65823D01*
X64058Y60054D01*
X63562Y60385D01*
X62977Y60502D01*
X54178D01*
X53661Y61398D01*
X52925Y62133D01*
X52025Y62653D01*
X51020Y62923D01*
X49980D01*
X48975Y62653D01*
X48075Y62133D01*
X47339Y61398D01*
X46819Y60497D01*
X46550Y59492D01*
Y58452D01*
X46819Y57448D01*
X47339Y56547D01*
X48075Y55812D01*
X48975Y55292D01*
X49980Y55023D01*
X51020D01*
X52025Y55292D01*
X52925Y55812D01*
X53661Y56547D01*
X54178Y57443D01*
X62344D01*
X64108Y55678D01*
X64604Y55347D01*
X65190Y55230D01*
X67700D01*
Y54660D01*
X70525D01*
X70908Y53736D01*
X69199Y52027D01*
X64638D01*
Y50968D01*
X54000D01*
X53661Y51555D01*
X52925Y52291D01*
X52025Y52811D01*
X51020Y53080D01*
X49980D01*
X48975Y52811D01*
X48075Y52291D01*
X47339Y51555D01*
X46819Y50655D01*
X46550Y49650D01*
Y48610D01*
X46819Y47605D01*
X47339Y46705D01*
X48075Y45969D01*
X48975Y45449D01*
X49980Y45180D01*
X51020D01*
X52025Y45449D01*
X52925Y45969D01*
X53661Y46705D01*
X54181Y47605D01*
X54262Y47910D01*
X64638D01*
Y47469D01*
X71362D01*
Y49865D01*
X74731Y53234D01*
X75063Y53730D01*
X75179Y54315D01*
Y58315D01*
X75063Y58901D01*
X74731Y59397D01*
X74087Y60041D01*
X74041Y60072D01*
X73550Y60563D01*
Y62140D01*
Y66340D01*
X67700D01*
Y65770D01*
X55708D01*
X54182Y67296D01*
X54450Y68295D01*
Y69335D01*
X54181Y70340D01*
X53661Y71240D01*
X52925Y71976D01*
X52025Y72496D01*
X51020Y72765D01*
D02*
G37*
G36*
X88500Y59500D02*
X85510D01*
X85738Y58649D01*
X86199Y57851D01*
X86851Y57199D01*
X87649Y56739D01*
X88500Y56511D01*
Y59500D01*
D02*
G37*
G36*
X84300Y60000D02*
X81375D01*
X78450D01*
Y58400D01*
Y54660D01*
X82137D01*
X86797Y50000D01*
X86634Y49367D01*
X86416Y48967D01*
X85649Y48761D01*
X84851Y48301D01*
X84199Y47649D01*
X83738Y46851D01*
X83500Y45961D01*
Y45039D01*
X83738Y44149D01*
X84199Y43351D01*
X84851Y42699D01*
X85649Y42239D01*
X86539Y42000D01*
X87461D01*
X88351Y42239D01*
X89149Y42699D01*
X89801Y43351D01*
X90262Y44149D01*
X90500Y45039D01*
Y45961D01*
X90262Y46851D01*
X89904Y47471D01*
X90115Y48085D01*
X90393Y48471D01*
X95769D01*
Y46246D01*
X100531D01*
Y53754D01*
X95769D01*
Y51529D01*
X89593D01*
X84300Y56823D01*
Y60000D01*
D02*
G37*
G36*
X79500Y46990D02*
Y44000D01*
X82490D01*
X82262Y44851D01*
X81801Y45649D01*
X81149Y46301D01*
X80351Y46762D01*
X79500Y46990D01*
D02*
G37*
G36*
X78500D02*
X77649Y46762D01*
X76851Y46301D01*
X76199Y45649D01*
X75739Y44851D01*
X75511Y44000D01*
X78500D01*
Y46990D01*
D02*
G37*
G36*
X71362Y45531D02*
X68500D01*
Y43752D01*
X71362D01*
Y45531D01*
D02*
G37*
G36*
X67500D02*
X64638D01*
Y43752D01*
X67500D01*
Y45531D01*
D02*
G37*
G36*
X71362Y42752D02*
X68500D01*
Y40972D01*
X71362D01*
Y42752D01*
D02*
G37*
G36*
X67500D02*
X64638D01*
Y40972D01*
X67500D01*
Y42752D01*
D02*
G37*
G36*
X82490Y43000D02*
X79500D01*
Y40010D01*
X80351Y40238D01*
X81149Y40699D01*
X81801Y41351D01*
X82262Y42149D01*
X82490Y43000D01*
D02*
G37*
G36*
X78500D02*
X75511D01*
X75739Y42149D01*
X76199Y41351D01*
X76851Y40699D01*
X77649Y40238D01*
X78500Y40010D01*
Y43000D01*
D02*
G37*
G36*
X7961Y62000D02*
X7039D01*
X6149Y61761D01*
X5351Y61301D01*
X4699Y60649D01*
X4239Y59851D01*
X4000Y58961D01*
Y58039D01*
X4239Y57149D01*
X4699Y56351D01*
X5351Y55699D01*
X6149Y55238D01*
X7039Y55000D01*
X7961D01*
X8083Y55033D01*
X10963Y52153D01*
Y43233D01*
X10192Y42718D01*
X9665Y41930D01*
X9481Y41000D01*
X9665Y40070D01*
X10192Y39282D01*
X10980Y38755D01*
X11910Y38570D01*
X14095D01*
X15025Y38755D01*
X15813Y39282D01*
X16340Y40070D01*
X16524Y41000D01*
X16340Y41930D01*
X15813Y42718D01*
X15042Y43233D01*
Y52997D01*
X14886Y53778D01*
X14444Y54439D01*
X10967Y57917D01*
X11000Y58039D01*
Y58961D01*
X10762Y59851D01*
X10301Y60649D01*
X9649Y61301D01*
X8851Y61761D01*
X7961Y62000D01*
D02*
G37*
G36*
X29473Y43383D02*
X22522D01*
Y38617D01*
X24468D01*
Y37026D01*
X24585Y36441D01*
X24916Y35945D01*
X31769Y29091D01*
Y23746D01*
X36531D01*
Y31254D01*
X33932D01*
X27569Y37617D01*
X27629Y38617D01*
X29473D01*
Y43383D01*
D02*
G37*
G36*
X124000Y23531D02*
X120746D01*
Y21650D01*
X124000D01*
Y23531D01*
D02*
G37*
G36*
X103027Y23362D02*
X101248D01*
Y20500D01*
X103027D01*
Y23362D01*
D02*
G37*
G36*
X119378Y20760D02*
X117500D01*
Y19079D01*
X119378D01*
Y20760D01*
D02*
G37*
G36*
X116500D02*
X114622D01*
Y19079D01*
X116500D01*
Y20760D01*
D02*
G37*
G36*
X20591Y31000D02*
X19409D01*
X18250Y30769D01*
X17158Y30317D01*
X16175Y29660D01*
X15339Y28825D01*
X14683Y27842D01*
X14231Y26750D01*
X14000Y25591D01*
Y24409D01*
X14231Y23250D01*
X14683Y22158D01*
X15339Y21175D01*
X16175Y20339D01*
X17158Y19683D01*
X18250Y19231D01*
X19409Y19000D01*
X20591D01*
X21750Y19231D01*
X22842Y19683D01*
X23825Y20339D01*
X24660Y21175D01*
X25317Y22158D01*
X25769Y23250D01*
X26000Y24409D01*
Y25591D01*
X25769Y26750D01*
X25317Y27842D01*
X24660Y28825D01*
X23825Y29660D01*
X22842Y30317D01*
X21750Y30769D01*
X20591Y31000D01*
D02*
G37*
G36*
X124000Y20650D02*
X120746D01*
Y18769D01*
X124000D01*
Y20650D01*
D02*
G37*
G36*
X75961Y25500D02*
X75039D01*
X74149Y25262D01*
X73351Y24801D01*
X72699Y24149D01*
X72238Y23351D01*
X72000Y22461D01*
Y21539D01*
X72238Y20649D01*
X72699Y19851D01*
X73351Y19199D01*
X74149Y18738D01*
X75039Y18500D01*
X75961D01*
X76851Y18738D01*
X77649Y19199D01*
X78301Y19851D01*
X78762Y20649D01*
X79000Y21539D01*
Y22461D01*
X78762Y23351D01*
X78301Y24149D01*
X77649Y24801D01*
X76851Y25262D01*
X75961Y25500D01*
D02*
G37*
G36*
X74336Y17575D02*
Y14586D01*
X77326D01*
X77098Y15437D01*
X76637Y16235D01*
X75985Y16886D01*
X75187Y17347D01*
X74336Y17575D01*
D02*
G37*
G36*
X73336D02*
X72485Y17347D01*
X71687Y16886D01*
X71035Y16235D01*
X70575Y15437D01*
X70347Y14586D01*
X73336D01*
Y17575D01*
D02*
G37*
G36*
X53862Y15531D02*
X51000D01*
Y13752D01*
X53862D01*
Y15531D01*
D02*
G37*
G36*
X50000D02*
X47138D01*
Y13752D01*
X50000D01*
Y15531D01*
D02*
G37*
G36*
X114086Y16450D02*
X114000D01*
Y12500D01*
X117950D01*
Y12586D01*
X117647Y13718D01*
X117061Y14732D01*
X116232Y15561D01*
X115218Y16147D01*
X114086Y16450D01*
D02*
G37*
G36*
X124000Y15489D02*
Y12500D01*
X126989D01*
X126761Y13351D01*
X126301Y14149D01*
X125649Y14801D01*
X124851Y15261D01*
X124000Y15489D01*
D02*
G37*
G36*
X123000D02*
X122149Y15261D01*
X121351Y14801D01*
X120699Y14149D01*
X120238Y13351D01*
X120010Y12500D01*
X123000D01*
Y15489D01*
D02*
G37*
G36*
X53862Y12752D02*
X51000D01*
Y10972D01*
X53862D01*
Y12752D01*
D02*
G37*
G36*
X50000D02*
X47138D01*
Y10972D01*
X50000D01*
Y12752D01*
D02*
G37*
G36*
X77326Y13586D02*
X74336D01*
Y10596D01*
X75187Y10824D01*
X75985Y11285D01*
X76637Y11937D01*
X77098Y12735D01*
X77326Y13586D01*
D02*
G37*
G36*
X73336D02*
X70347D01*
X70575Y12735D01*
X71035Y11937D01*
X71687Y11285D01*
X72485Y10824D01*
X73336Y10596D01*
Y13586D01*
D02*
G37*
G36*
X42461Y38000D02*
X41539D01*
X40649Y37762D01*
X39851Y37301D01*
X39199Y36649D01*
X38739Y35851D01*
X38500Y34961D01*
Y34039D01*
X38739Y33149D01*
X38912Y32849D01*
X38860Y32588D01*
Y31254D01*
X38469D01*
Y23746D01*
X38810D01*
Y20000D01*
Y18194D01*
X38408Y17792D01*
X37966Y17130D01*
X37810Y16350D01*
Y15754D01*
X37468D01*
Y8539D01*
X35531D01*
Y15754D01*
X30769D01*
Y14760D01*
X30473Y13883D01*
X23522D01*
Y9117D01*
X22762Y8539D01*
X20940D01*
X17412Y12067D01*
X17340Y12430D01*
X16813Y13218D01*
X16025Y13745D01*
X15095Y13929D01*
X12910D01*
X11980Y13745D01*
X11192Y13218D01*
X10665Y12430D01*
X10481Y11500D01*
X10665Y10570D01*
X11192Y9782D01*
X11980Y9255D01*
X12910Y9070D01*
X14641D01*
X18653Y5058D01*
X19315Y4616D01*
X20095Y4461D01*
X88315D01*
X89095Y4616D01*
X89757Y5058D01*
X92456Y7757D01*
X93229Y7550D01*
X94401D01*
X95533Y7853D01*
X96547Y8439D01*
X97376Y9268D01*
X97962Y10282D01*
X98265Y11414D01*
X99208D01*
X99511Y10282D01*
X100097Y9268D01*
X100925Y8439D01*
X101940Y7853D01*
X103072Y7550D01*
X104243D01*
X105375Y7853D01*
X106390Y8439D01*
X107218Y9268D01*
X107804Y10282D01*
X108107Y11414D01*
X109050D01*
X109353Y10282D01*
X109939Y9268D01*
X110768Y8439D01*
X111782Y7853D01*
X112914Y7550D01*
X113000D01*
Y12000D01*
Y16450D01*
X112914D01*
X111782Y16147D01*
X110768Y15561D01*
X109939Y14732D01*
X109353Y13718D01*
X109050Y12586D01*
X108107D01*
X107804Y13718D01*
X107218Y14732D01*
X106390Y15561D01*
X105375Y16147D01*
X104243Y16450D01*
X103950D01*
X103063Y16631D01*
X103027Y17388D01*
Y19500D01*
X100748D01*
Y20000D01*
X100248D01*
Y23362D01*
X98840D01*
Y29050D01*
X87160D01*
Y23200D01*
X87730D01*
Y17921D01*
X85859Y16049D01*
X85690Y16147D01*
X84558Y16450D01*
X83387D01*
X82255Y16147D01*
X81240Y15561D01*
X80411Y14732D01*
X79826Y13718D01*
X79522Y12586D01*
Y11414D01*
X79826Y10282D01*
X80255Y9539D01*
X79843Y8539D01*
X42231D01*
Y15754D01*
X42721Y16551D01*
X42734Y16569D01*
X42889Y17350D01*
Y17709D01*
X47138D01*
Y17469D01*
X53862D01*
Y22027D01*
X47138D01*
Y21787D01*
X42889D01*
Y23746D01*
X43231D01*
Y31206D01*
X43351Y31238D01*
X44149Y31699D01*
X44801Y32351D01*
X45261Y33149D01*
X45500Y34039D01*
Y34961D01*
X45261Y35851D01*
X44801Y36649D01*
X44149Y37301D01*
X43351Y37762D01*
X42461Y38000D01*
D02*
G37*
G36*
X120531Y7754D02*
X118650D01*
Y4500D01*
X120531D01*
Y7754D01*
D02*
G37*
G36*
X117950Y11500D02*
X114000D01*
Y7550D01*
X114086D01*
X114769Y7733D01*
X115663Y7178D01*
X115769Y7017D01*
Y4500D01*
X117650D01*
Y7754D01*
X116962D01*
X116548Y8754D01*
X117061Y9268D01*
X117647Y10282D01*
X117950Y11414D01*
Y11500D01*
D02*
G37*
G36*
X242610Y97139D02*
Y94150D01*
X245600D01*
X245372Y95000D01*
X244911Y95799D01*
X244259Y96450D01*
X243461Y96911D01*
X242610Y97139D01*
D02*
G37*
G36*
X241610D02*
X240759Y96911D01*
X239961Y96450D01*
X239310Y95799D01*
X238849Y95000D01*
X238621Y94150D01*
X241610D01*
Y97139D01*
D02*
G37*
G36*
X232917Y97201D02*
X229858D01*
Y93650D01*
X232917D01*
Y97201D01*
D02*
G37*
G36*
X228858D02*
X225799D01*
Y93650D01*
X228858D01*
Y97201D01*
D02*
G37*
G36*
X245600Y93150D02*
X242610D01*
Y90160D01*
X243461Y90388D01*
X244259Y90849D01*
X244911Y91501D01*
X245372Y92299D01*
X245600Y93150D01*
D02*
G37*
G36*
X241610D02*
X238621D01*
X238849Y92299D01*
X239310Y91501D01*
X239961Y90849D01*
X240759Y90388D01*
X241610Y90160D01*
Y93150D01*
D02*
G37*
G36*
X197500Y96800D02*
X196500D01*
X195533Y96541D01*
X194667Y96041D01*
X193959Y95333D01*
X193459Y94467D01*
X193200Y93500D01*
Y92500D01*
X193459Y91533D01*
X193959Y90667D01*
X194667Y89959D01*
X195533Y89459D01*
X196500Y89200D01*
X197500D01*
X198467Y89459D01*
X199333Y89959D01*
X200041Y90667D01*
X200541Y91533D01*
X200800Y92500D01*
Y93500D01*
X200541Y94467D01*
X200041Y95333D01*
X199333Y96041D01*
X198467Y96541D01*
X197500Y96800D01*
D02*
G37*
G36*
X232917Y92650D02*
X229858D01*
Y89098D01*
X232917D01*
Y92650D01*
D02*
G37*
G36*
X228858D02*
X225799D01*
Y89098D01*
X228858D01*
Y92650D01*
D02*
G37*
G36*
X172634Y86232D02*
X167484D01*
Y84945D01*
Y83886D01*
X172634D01*
Y84945D01*
Y86232D01*
D02*
G37*
G36*
X197500Y86800D02*
X196500D01*
X195533Y86541D01*
X194667Y86041D01*
X193959Y85333D01*
X193459Y84467D01*
X193200Y83500D01*
Y82500D01*
X193459Y81533D01*
X193959Y80667D01*
X194667Y79959D01*
X195533Y79459D01*
X196500Y79200D01*
X197500D01*
X198467Y79459D01*
X199333Y79959D01*
X200041Y80667D01*
X200541Y81533D01*
X200800Y82500D01*
Y83500D01*
X200541Y84467D01*
X200041Y85333D01*
X199333Y86041D01*
X198467Y86541D01*
X197500Y86800D01*
D02*
G37*
G36*
X135429Y78284D02*
X134216D01*
Y77071D01*
X135429Y78284D01*
D02*
G37*
G36*
X142000Y79858D02*
X139138D01*
Y76996D01*
X142000D01*
Y79858D01*
D02*
G37*
G36*
X205500Y79489D02*
Y76500D01*
X208489D01*
X208261Y77351D01*
X207801Y78149D01*
X207149Y78801D01*
X206351Y79261D01*
X205500Y79489D01*
D02*
G37*
G36*
X204500D02*
X203649Y79261D01*
X202851Y78801D01*
X202199Y78149D01*
X201739Y77351D01*
X201511Y76500D01*
X204500D01*
Y79489D01*
D02*
G37*
G36*
X193681Y74248D02*
X192000D01*
Y73059D01*
X193681D01*
Y74248D01*
D02*
G37*
G36*
X191000D02*
X189319D01*
Y73059D01*
X191000D01*
Y74248D01*
D02*
G37*
G36*
X242091Y84000D02*
X240909D01*
X239750Y83769D01*
X238658Y83317D01*
X237675Y82661D01*
X236840Y81825D01*
X236183Y80842D01*
X235731Y79750D01*
X235500Y78591D01*
Y77409D01*
X235731Y76250D01*
X236183Y75158D01*
X236840Y74175D01*
X237675Y73339D01*
X238658Y72683D01*
X239750Y72231D01*
X240909Y72000D01*
X242091D01*
X243250Y72231D01*
X244342Y72683D01*
X245325Y73339D01*
X246161Y74175D01*
X246817Y75158D01*
X247269Y76250D01*
X247500Y77409D01*
Y78591D01*
X247269Y79750D01*
X246817Y80842D01*
X246161Y81825D01*
X245325Y82661D01*
X244342Y83317D01*
X243250Y83769D01*
X242091Y84000D01*
D02*
G37*
G36*
X135504Y73362D02*
X132642D01*
Y70500D01*
X135504D01*
Y73362D01*
D02*
G37*
G36*
X242610Y65840D02*
Y62850D01*
X245600D01*
X245372Y63701D01*
X244911Y64499D01*
X244259Y65151D01*
X243461Y65612D01*
X242610Y65840D01*
D02*
G37*
G36*
X241610D02*
X240759Y65612D01*
X239961Y65151D01*
X239310Y64499D01*
X238849Y63701D01*
X238621Y62850D01*
X241610D01*
Y65840D01*
D02*
G37*
G36*
X232917Y65902D02*
X229858D01*
Y62350D01*
X232917D01*
Y65902D01*
D02*
G37*
G36*
X228858D02*
X225799D01*
Y62350D01*
X228858D01*
Y65902D01*
D02*
G37*
G36*
X161461Y68500D02*
X160539D01*
X159649Y68261D01*
X158851Y67801D01*
X158199Y67149D01*
X157738Y66351D01*
X157500Y65461D01*
Y64539D01*
X157738Y63649D01*
X158199Y62851D01*
X158851Y62199D01*
X159649Y61739D01*
X160539Y61500D01*
X161461D01*
X162351Y61739D01*
X163149Y62199D01*
X163801Y62851D01*
X164261Y63649D01*
X164500Y64539D01*
Y65461D01*
X164261Y66351D01*
X163801Y67149D01*
X163149Y67801D01*
X162351Y68261D01*
X161461Y68500D01*
D02*
G37*
G36*
X152358Y63004D02*
X149496D01*
Y60142D01*
X152358D01*
Y63004D01*
D02*
G37*
G36*
X245600Y61850D02*
X242610D01*
Y58861D01*
X243461Y59089D01*
X244259Y59550D01*
X244911Y60201D01*
X245372Y61000D01*
X245600Y61850D01*
D02*
G37*
G36*
X241610D02*
X238621D01*
X238849Y61000D01*
X239310Y60201D01*
X239961Y59550D01*
X240759Y59089D01*
X241610Y58861D01*
Y61850D01*
D02*
G37*
G36*
X232917Y61350D02*
X229858D01*
Y57799D01*
X232917D01*
Y61350D01*
D02*
G37*
G36*
X228858D02*
X225799D01*
Y57799D01*
X228858D01*
Y61350D01*
D02*
G37*
G36*
X143000Y58241D02*
Y55252D01*
X145990D01*
X145762Y56103D01*
X145301Y56901D01*
X144649Y57553D01*
X143851Y58013D01*
X143000Y58241D01*
D02*
G37*
G36*
X142000D02*
X141149Y58013D01*
X140351Y57553D01*
X139699Y56901D01*
X139239Y56103D01*
X139011Y55252D01*
X142000D01*
Y58241D01*
D02*
G37*
G36*
X194181Y53220D02*
X192500D01*
Y52031D01*
X194181D01*
Y53220D01*
D02*
G37*
G36*
X191500D02*
X189819D01*
Y52031D01*
X191500D01*
Y53220D01*
D02*
G37*
G36*
X145990Y54252D02*
X143000D01*
Y51262D01*
X143851Y51490D01*
X144649Y51951D01*
X145301Y52603D01*
X145762Y53401D01*
X145990Y54252D01*
D02*
G37*
G36*
X142000D02*
X139011D01*
X139239Y53401D01*
X139699Y52603D01*
X140351Y51951D01*
X141149Y51490D01*
X142000Y51262D01*
Y54252D01*
D02*
G37*
G36*
X213000Y53490D02*
Y50500D01*
X215989D01*
X215761Y51351D01*
X215301Y52149D01*
X214649Y52801D01*
X213851Y53262D01*
X213000Y53490D01*
D02*
G37*
G36*
X194681Y50468D02*
X193000D01*
Y49279D01*
X194681D01*
Y50468D01*
D02*
G37*
G36*
X192000D02*
X190319D01*
Y49279D01*
X192000D01*
Y50468D01*
D02*
G37*
G36*
X230658Y33000D02*
X230500D01*
Y28500D01*
X235000D01*
Y28658D01*
X234659Y29930D01*
X234001Y31070D01*
X233070Y32001D01*
X231930Y32659D01*
X230658Y33000D01*
D02*
G37*
G36*
X229500D02*
X229342D01*
X228070Y32659D01*
X226930Y32001D01*
X225999Y31070D01*
X225341Y29930D01*
X225000Y28658D01*
Y28500D01*
X229500D01*
Y33000D01*
D02*
G37*
G36*
X235000Y27500D02*
X230500D01*
Y23000D01*
X230658D01*
X231930Y23341D01*
X233070Y23999D01*
X234001Y24930D01*
X234659Y26070D01*
X235000Y27342D01*
Y27500D01*
D02*
G37*
G36*
X229500D02*
X225000D01*
Y27342D01*
X225341Y26070D01*
X225999Y24930D01*
X226930Y23999D01*
X228070Y23341D01*
X229342Y23000D01*
X229500D01*
Y27500D01*
D02*
G37*
G36*
X205020Y23950D02*
X203980D01*
X202975Y23681D01*
X202075Y23161D01*
X201339Y22425D01*
X200819Y21525D01*
X200550Y20520D01*
Y19480D01*
X200819Y18475D01*
X201339Y17575D01*
X202075Y16839D01*
X202975Y16319D01*
X203980Y16050D01*
X205020D01*
X206025Y16319D01*
X206925Y16839D01*
X207661Y17575D01*
X208181Y18475D01*
X208450Y19480D01*
Y20520D01*
X208181Y21525D01*
X207661Y22425D01*
X206925Y23161D01*
X206025Y23681D01*
X205020Y23950D01*
D02*
G37*
G36*
X196681Y8220D02*
X195000D01*
Y7032D01*
X196681D01*
Y8220D01*
D02*
G37*
G36*
X194000D02*
X192319D01*
Y7032D01*
X194000D01*
Y8220D01*
D02*
G37*
G36*
X181231Y9254D02*
X179350D01*
Y6000D01*
X181231D01*
Y9254D01*
D02*
G37*
G36*
X178350D02*
X176469D01*
Y6000D01*
X178350D01*
Y9254D01*
D02*
G37*
G36*
X187000Y6489D02*
Y3500D01*
X189989D01*
X189761Y4351D01*
X189301Y5149D01*
X188649Y5801D01*
X187851Y6261D01*
X187000Y6489D01*
D02*
G37*
G36*
X186000D02*
X185149Y6261D01*
X184351Y5801D01*
X183699Y5149D01*
X183238Y4351D01*
X183010Y3500D01*
X186000D01*
Y6489D01*
D02*
G37*
G36*
X151489Y5000D02*
X148500D01*
Y2011D01*
X149351Y2238D01*
X150149Y2699D01*
X150801Y3351D01*
X151261Y4149D01*
X151489Y5000D01*
D02*
G37*
G36*
X147500D02*
X144510D01*
X144738Y4149D01*
X145199Y3351D01*
X145851Y2699D01*
X146649Y2238D01*
X147500Y2011D01*
Y5000D01*
D02*
G37*
G36*
X181231D02*
X179350D01*
Y1746D01*
X181231D01*
Y5000D01*
D02*
G37*
G36*
X178350D02*
X176469D01*
Y1746D01*
X178350D01*
Y5000D01*
D02*
G37*
G36*
X168027Y17500D02*
X165748D01*
X163469D01*
Y14638D01*
X163469Y14638D01*
X163240Y13732D01*
X162915Y13308D01*
X162616Y12586D01*
X162514Y11811D01*
Y7087D01*
X162616Y6312D01*
X162915Y5590D01*
X163391Y4969D01*
X164011Y4494D01*
X164733Y4194D01*
X165508Y4092D01*
X166283Y4194D01*
X167005Y4494D01*
X167625Y4969D01*
X168010Y5471D01*
X169769D01*
Y1746D01*
X174531D01*
Y9254D01*
X169769D01*
Y8529D01*
X168502D01*
Y11811D01*
X168400Y12586D01*
X168101Y13308D01*
X167848Y13638D01*
X168028Y14638D01*
X168027D01*
Y17500D01*
D02*
G37*
G36*
X193681Y61000D02*
X192000D01*
Y59811D01*
X193681D01*
Y61000D01*
D02*
G37*
G36*
X191000D02*
X189319D01*
Y59811D01*
X191000D01*
Y61000D01*
D02*
G37*
%LPD*%
D14*
X98801Y60500D02*
D03*
X105500D02*
D03*
X98150Y50000D02*
D03*
X104850D02*
D03*
X118150Y4000D02*
D03*
X124850D02*
D03*
X178850Y5500D02*
D03*
X172150D02*
D03*
X112150Y32000D02*
D03*
X40850Y27500D02*
D03*
X34150D02*
D03*
X39850Y12000D02*
D03*
X33150D02*
D03*
X118850Y32000D02*
D03*
D15*
X172000Y29850D02*
D03*
Y23150D02*
D03*
X181500Y50150D02*
D03*
Y56850D02*
D03*
Y39150D02*
D03*
Y45850D02*
D03*
X124500Y21150D02*
D03*
Y27850D02*
D03*
X181500Y26199D02*
D03*
Y19500D02*
D03*
D16*
X114941Y80039D02*
D03*
Y83386D02*
D03*
Y90079D02*
D03*
Y93425D02*
D03*
X170059Y83386D02*
D03*
Y86732D02*
D03*
Y93425D02*
D03*
X114941Y86732D02*
D03*
Y76693D02*
D03*
Y73347D02*
D03*
Y70000D02*
D03*
Y66654D02*
D03*
Y63307D02*
D03*
Y59961D02*
D03*
Y56614D02*
D03*
Y53268D02*
D03*
Y49921D02*
D03*
Y46575D02*
D03*
X170059D02*
D03*
Y49921D02*
D03*
Y53268D02*
D03*
Y56614D02*
D03*
Y59961D02*
D03*
Y63307D02*
D03*
Y66654D02*
D03*
Y70000D02*
D03*
Y73347D02*
D03*
Y76693D02*
D03*
Y80039D02*
D03*
Y90079D02*
D03*
D17*
X229358Y61850D02*
D03*
Y93150D02*
D03*
X211642D02*
D03*
Y61850D02*
D03*
D18*
X114941Y42441D02*
D03*
Y97559D02*
D03*
X170059Y42441D02*
D03*
Y97559D02*
D03*
D19*
X136004Y70000D02*
D03*
Y63504D02*
D03*
X142500D02*
D03*
X148996D02*
D03*
X142500Y76496D02*
D03*
Y70000D02*
D03*
X148996D02*
D03*
Y76496D02*
D03*
D20*
X119075Y97559D02*
D03*
X125768D02*
D03*
X122421D02*
D03*
X132461D02*
D03*
X129114D02*
D03*
X139154D02*
D03*
X135807D02*
D03*
X145846D02*
D03*
X142500D02*
D03*
X152539D02*
D03*
X149193D02*
D03*
X159232D02*
D03*
X155886D02*
D03*
X162579D02*
D03*
X165925D02*
D03*
X119075Y42441D02*
D03*
X122421D02*
D03*
X125768D02*
D03*
X129114D02*
D03*
X132461D02*
D03*
X135807D02*
D03*
X139154D02*
D03*
X142500D02*
D03*
X145846D02*
D03*
X149193D02*
D03*
X152539D02*
D03*
X155886D02*
D03*
X159232D02*
D03*
X162579D02*
D03*
X165925D02*
D03*
D21*
X50500Y13252D02*
D03*
X94000Y79752D02*
D03*
X101500Y80000D02*
D03*
X68000Y43252D02*
D03*
X94000Y86248D02*
D03*
X101500Y86496D02*
D03*
X68000Y49748D02*
D03*
X50500Y19748D02*
D03*
D22*
X165748Y18000D02*
D03*
X100748Y20000D02*
D03*
X159252Y18000D02*
D03*
X94252Y20000D02*
D03*
D23*
X148000Y11125D02*
D03*
X93000Y36875D02*
D03*
X144260Y21875D02*
D03*
X148000D02*
D03*
X151740D02*
D03*
Y11125D02*
D03*
X144260D02*
D03*
X96740Y26125D02*
D03*
X93000D02*
D03*
X89260D02*
D03*
Y36875D02*
D03*
X96740D02*
D03*
D24*
X81375Y60500D02*
D03*
X70625D02*
D03*
X81375Y64240D02*
D03*
Y56760D02*
D03*
X70625D02*
D03*
Y64240D02*
D03*
D25*
X117000Y21260D02*
D03*
Y25000D02*
D03*
D26*
X191500Y72559D02*
D03*
Y61500D02*
D03*
X192000Y53720D02*
D03*
X192500Y48779D02*
D03*
X194500Y8721D02*
D03*
X72000Y73000D02*
D03*
X191500Y70000D02*
D03*
Y64059D02*
D03*
X192000Y56279D02*
D03*
X192500Y46220D02*
D03*
X194500Y11280D02*
D03*
X72000Y75559D02*
D03*
D27*
X25997Y41000D02*
D03*
X26998Y11500D02*
D03*
D28*
X13002Y41000D02*
D03*
X14003Y11500D02*
D03*
D38*
X50500Y88500D02*
D03*
Y49130D02*
D03*
X204500Y29842D02*
D03*
X50500Y58973D02*
D03*
Y68815D02*
D03*
Y78658D02*
D03*
X204500Y20000D02*
D03*
D39*
X113500Y12000D02*
D03*
X83972D02*
D03*
X93815D02*
D03*
X103657D02*
D03*
D40*
X230000Y28000D02*
D03*
Y9496D02*
D03*
Y46504D02*
D03*
D41*
X197000Y93000D02*
D03*
Y83000D02*
D03*
D42*
X131492Y25197D02*
D03*
X165508D02*
D03*
D43*
X131492Y9449D02*
D03*
X165508D02*
D03*
D45*
X136004Y76496D02*
D03*
D46*
X172000Y29850D02*
Y35500D01*
X148000Y5500D02*
Y11125D01*
X142500Y70000D02*
Y76496D01*
Y70000D02*
X148996D01*
X142500Y63504D02*
Y70000D01*
X136004D02*
X142500D01*
X114941Y97559D02*
X170059D01*
X197943Y61557D02*
Y64059D01*
Y61557D02*
X202000Y57500D01*
X34150Y27500D02*
Y28873D01*
X25997Y37026D02*
X34150Y28873D01*
X25997Y37026D02*
Y41000D01*
X194500Y11280D02*
Y13941D01*
X185373Y17000D02*
X191441D01*
X194500Y13941D01*
X211642Y61850D02*
Y93150D01*
X181881Y56469D02*
X195531D01*
X210504Y60713D02*
X211642Y61850D01*
X210504Y55429D02*
Y60713D01*
X201500Y67000D02*
X202000Y67500D01*
X194992Y67000D02*
X201500D01*
X195531Y56469D02*
X199650Y52350D01*
X207426D01*
X210504Y55429D01*
X181500Y56850D02*
X181881Y56469D01*
X191500Y64059D02*
X197943D01*
X94124Y86372D02*
X112029D01*
X112389Y86732D01*
X192500Y46220D02*
X192992D01*
X196862Y42350D01*
X210407D01*
X214561Y46504D01*
X230000D01*
X194500Y11280D02*
X209987D01*
X211771Y9496D01*
X230000D01*
X200857Y26199D02*
X204500Y29842D01*
X181500Y26199D02*
X200857D01*
X181500D02*
Y39150D01*
X181080Y46270D02*
X181500Y45850D01*
X176000Y23627D02*
Y41421D01*
X177246Y46270D02*
X181080D01*
X170059Y46575D02*
X170846D01*
X173594Y49921D02*
X177246Y46270D01*
X170846Y46575D02*
X176000Y41421D01*
X170059Y49921D02*
X173594D01*
X176000Y23627D02*
X180127Y19500D01*
X182873D02*
X185373Y17000D01*
X180127Y19500D02*
X182873D01*
X170846Y73346D02*
X176193Y68000D01*
X187559D01*
X191500Y64059D01*
X191992Y70000D02*
X194992Y67000D01*
X177539Y70000D02*
X191500D01*
X170059Y76693D02*
X170846D01*
X191500Y70000D02*
X191992D01*
X179246Y51032D02*
X180127Y50150D01*
X179246Y51032D02*
Y53413D01*
X176000Y56659D02*
X179246Y53413D01*
X176000Y56659D02*
Y60500D01*
X180127Y50150D02*
X181500D01*
X172150Y5028D02*
Y6119D01*
X170846Y76693D02*
X177539Y70000D01*
X114941Y83386D02*
X115728D01*
X120000Y79114D01*
Y75000D02*
Y79114D01*
X160467Y93425D02*
X170059D01*
X149542Y82500D02*
X160467Y93425D01*
X149000Y82500D02*
X149542D01*
X73650Y54315D02*
Y58315D01*
X69083Y49748D02*
X73650Y54315D01*
X68000Y49748D02*
X69083D01*
X108500Y22500D02*
X112150Y26150D01*
Y32000D01*
X112389Y86732D02*
X114941D01*
X94000Y86248D02*
X94124Y86372D01*
X87252Y86248D02*
X94000D01*
X79500Y94000D02*
X87252Y86248D01*
X71450Y60500D02*
X72990Y58960D01*
X73006D01*
X73650Y58315D01*
X70625Y60500D02*
X71450D01*
X67691Y49439D02*
X68000Y49748D01*
X50809Y49439D02*
X67691D01*
X50500Y49130D02*
X50809Y49439D01*
X94157Y60500D02*
X98801D01*
X81375Y64240D02*
X81615Y64000D01*
X90657D02*
X94157Y60500D01*
X81615Y64000D02*
X90657D01*
X81375Y56760D02*
X82200D01*
X88960Y50000D01*
X98150D01*
X96740Y36900D02*
X97340Y37500D01*
X135000D01*
X96740Y36875D02*
Y36900D01*
X98430Y39766D02*
X133920D01*
X90800Y39256D02*
X91444Y39900D01*
X98296D01*
X98430Y39766D01*
X133920D02*
X135807Y41654D01*
X135000Y37500D02*
X137000Y39500D01*
X90800Y39240D02*
Y39256D01*
X89260Y37700D02*
X90800Y39240D01*
X158792Y18460D02*
X159252Y18000D01*
X155362Y18460D02*
X158792D01*
X155362D02*
X155752Y18070D01*
X96740Y18810D02*
Y26125D01*
Y18810D02*
X103551Y12000D01*
X103657D01*
X94033Y19782D02*
X94252Y20000D01*
X94033Y12218D02*
Y19782D01*
X93815Y12000D02*
X94033Y12218D01*
X93000Y22335D02*
Y26125D01*
Y22335D02*
X94252Y21083D01*
Y20000D02*
Y21083D01*
X14002Y11500D02*
X15095D01*
X89260Y17287D02*
Y26125D01*
X83972Y12000D02*
X89260Y17287D01*
Y36875D02*
Y37700D01*
X135807Y41654D02*
Y42441D01*
X139154Y41654D02*
Y42441D01*
X137000Y39500D02*
X139154Y41654D01*
X137000Y39500D02*
X137000D01*
X40850Y20000D02*
X41102Y19748D01*
X150596Y16850D02*
X154848Y12598D01*
X137500Y17000D02*
X137650Y16850D01*
X150596D01*
X137000Y10500D02*
X140650Y14150D01*
X149556D01*
X137265Y5265D02*
X139225D01*
X144260Y10300D01*
Y11125D01*
X136500Y4500D02*
X137265Y5265D01*
X32650Y11500D02*
X33150Y12000D01*
X53695Y75559D02*
X82784D01*
X93290Y65054D01*
X106638D01*
X108384Y63307D01*
X114941D01*
X97346Y66654D02*
X114941D01*
X90000Y74000D02*
X97346Y66654D01*
X151140Y22475D02*
Y24360D01*
X146134Y29366D02*
Y42154D01*
X151140Y22475D02*
X151740Y21875D01*
X146134Y29366D02*
X151140Y24360D01*
X152520Y34520D02*
Y42421D01*
X152539Y42441D01*
X152500Y34500D02*
X152520Y34520D01*
X102000Y74000D02*
X106000Y70000D01*
X114941D01*
X62977Y58972D02*
X65190Y56760D01*
X70625D01*
X50500Y58972D02*
X62977D01*
X50596Y78658D02*
X53695Y75559D01*
X50500Y78658D02*
X50596D01*
X131500Y48500D02*
Y56500D01*
X129862Y46862D02*
X131500Y48500D01*
X115228Y46862D02*
X129862D01*
X114941Y46575D02*
X115228Y46862D01*
X117000Y25000D02*
X117197D01*
X118850Y26653D01*
Y32000D01*
X114941Y49921D02*
X115728D01*
X124000Y58193D01*
Y64000D01*
X120000Y68000D02*
X124000Y64000D01*
X119961Y61461D02*
X120000Y61500D01*
X119961Y57500D02*
Y61461D01*
X115728Y53268D02*
X119961Y57500D01*
X114941Y53268D02*
X115728D01*
X164000Y54000D02*
X164370D01*
X166984Y56614D01*
X170059D01*
X181500Y45850D02*
X187696D01*
X188066Y46220D01*
X192500D01*
X145846Y42441D02*
X146134Y42154D01*
X142500Y24460D02*
X144260Y22700D01*
Y21875D02*
Y22700D01*
X142500Y24460D02*
Y42441D01*
X104850Y50000D02*
Y51373D01*
X110091Y56614D01*
X114941D01*
X105500Y60500D02*
X106039Y59961D01*
X114941D01*
X50500Y68815D02*
X55075Y64240D01*
X70625D01*
X154973Y18850D02*
X155362Y18460D01*
X150185Y18850D02*
X154973D01*
X149478Y19557D02*
X150185Y18850D01*
X149478Y19557D02*
Y19572D01*
X148000Y21050D02*
X149478Y19572D01*
X148000Y21050D02*
Y21875D01*
X154848Y12598D02*
X155752Y13502D01*
Y18070D01*
X154848Y12598D02*
X158000Y9446D01*
Y4500D02*
Y9446D01*
X150263Y13428D02*
Y13443D01*
Y13428D02*
X151740Y11950D01*
X149556Y14150D02*
X150263Y13443D01*
X165508Y25197D02*
X166000Y24705D01*
X169160D01*
X170627Y23150D02*
X172000D01*
X169160Y24705D02*
X169746Y24119D01*
Y24032D02*
X170627Y23150D01*
X169746Y24032D02*
Y24119D01*
X151740Y11125D02*
Y11950D01*
X129438Y27850D02*
X129954Y27334D01*
X130136D01*
X124500Y27850D02*
X129438D01*
X130136Y27334D02*
X131492Y25977D01*
Y25197D02*
Y25977D01*
X166865Y7000D02*
X171269D01*
X165508Y8357D02*
Y9449D01*
Y8357D02*
X166865Y7000D01*
X171269D02*
X172150Y6119D01*
X127611Y4000D02*
X131492Y7881D01*
X124850Y4000D02*
X127611D01*
X131492Y7881D02*
Y9449D01*
D47*
X7500Y58500D02*
X13002Y52997D01*
Y41000D02*
Y52997D01*
X88315Y6500D02*
X93815Y12000D01*
X20095Y6500D02*
X88315D01*
X15095Y11500D02*
X20095Y6500D01*
X40850Y27500D02*
X40899Y27550D01*
X42000Y33688D02*
Y34500D01*
X40899Y32588D02*
X42000Y33688D01*
X40899Y27550D02*
Y32588D01*
X39850Y12000D02*
Y16350D01*
X40850Y17350D01*
Y20000D01*
X41102Y19748D02*
X50500D01*
X40850Y20000D02*
Y27500D01*
X26998Y11500D02*
X32650D01*
D48*
X241500Y78000D02*
D03*
X20000Y25000D02*
D03*
X23000Y80500D02*
D03*
D49*
X202000Y47500D02*
D03*
Y57500D02*
D03*
D50*
Y67500D02*
D03*
D51*
X7500Y58500D02*
D03*
X161000Y65000D02*
D03*
X182000Y63500D02*
D03*
X120000Y75000D02*
D03*
X79000Y43500D02*
D03*
X123500Y12000D02*
D03*
X125000Y33500D02*
D03*
X89000Y60000D02*
D03*
X85500Y81500D02*
D03*
X110000Y90500D02*
D03*
X148000Y5500D02*
D03*
X142500Y54752D02*
D03*
X172000Y35500D02*
D03*
X186500Y3000D02*
D03*
X242110Y62350D02*
D03*
X205000Y76000D02*
D03*
X242110Y93650D02*
D03*
X73836Y14086D02*
D03*
X149000Y82500D02*
D03*
X108500Y22500D02*
D03*
X87000Y45500D02*
D03*
X135500Y91000D02*
D03*
X79500Y94000D02*
D03*
X75500Y22000D02*
D03*
X42000Y34500D02*
D03*
X137500Y17000D02*
D03*
X137000Y10500D02*
D03*
X136500Y4500D02*
D03*
X152500Y34500D02*
D03*
X90000Y74000D02*
D03*
X102000D02*
D03*
X131500Y56500D02*
D03*
X120000Y61500D02*
D03*
Y68000D02*
D03*
X164000Y54000D02*
D03*
X176000Y60500D02*
D03*
X158000Y4500D02*
D03*
M02*
